  0
SECTION
  2
HEADER
  9
$ACADVER
  1
AC1032
  9
$ACADMAINTVER
 90
      251
  9
$DWGCODEPAGE
  3
ANSI_1252
  9
$REQUIREDVERSIONS
160
                 0
  9
$INSBASE
 10
0.0
 20
0.0
 30
0.0
  9
$EXTMIN
 10
1.000000000000000E+20
 20
1.000000000000000E+20
 30
1.000000000000000E+20
  9
$EXTMAX
 10
-1.000000000000000E+20
 20
-1.000000000000000E+20
 30
-1.000000000000000E+20
  9
$LIMMIN
 10
0.0
 20
0.0
  9
$LIMMAX
 10
12.0
 20
9.0
  9
$ORTHOMODE
 70
     0
  9
$REGENMODE
 70
     1
  9
$FILLMODE
 70
     1
  9
$QTEXTMODE
 70
     0
  9
$MIRRTEXT
 70
     0
  9
$LTSCALE
 40
1.0
  9
$ATTMODE
 70
     1
  9
$TEXTSIZE
 40
0.2
  9
$TRACEWID
 40
0.05
  9
$TEXTSTYLE
  7
Standard
  9
$CLAYER
  8
0
  9
$CELTYPE
  6
ByLayer
  9
$CECOLOR
 62
   256
  9
$CELTSCALE
 40
1.0
  9
$DISPSILH
 70
     0
  9
$DIMSCALE
 40
1.0
  9
$DIMASZ
 40
0.18
  9
$DIMEXO
 40
0.0625
  9
$DIMDLI
 40
0.38
  9
$DIMRND
 40
0.0
  9
$DIMDLE
 40
0.0
  9
$DIMEXE
 40
0.18
  9
$DIMTP
 40
0.0
  9
$DIMTM
 40
0.0
  9
$DIMTXT
 40
0.18
  9
$DIMCEN
 40
0.09
  9
$DIMTSZ
 40
0.0
  9
$DIMTOL
 70
     0
  9
$DIMLIM
 70
     0
  9
$DIMTIH
 70
     1
  9
$DIMTOH
 70
     1
  9
$DIMSE1
 70
     0
  9
$DIMSE2
 70
     0
  9
$DIMTAD
 70
     0
  9
$DIMZIN
 70
     0
  9
$DIMBLK
  1

  9
$DIMASO
 70
     1
  9
$DIMSHO
 70
     1
  9
$DIMPOST
  1

  9
$DIMAPOST
  1

  9
$DIMALT
 70
     0
  9
$DIMALTD
 70
     2
  9
$DIMALTF
 40
25.4
  9
$DIMLFAC
 40
1.0
  9
$DIMTOFL
 70
     0
  9
$DIMTVP
 40
0.0
  9
$DIMTIX
 70
     0
  9
$DIMSOXD
 70
     0
  9
$DIMSAH
 70
     0
  9
$DIMBLK1
  1

  9
$DIMBLK2
  1

  9
$DIMSTYLE
  2
Standard
  9
$DIMCLRD
 70
     0
  9
$DIMCLRE
 70
     0
  9
$DIMCLRT
 70
     0
  9
$DIMTFAC
 40
1.0
  9
$DIMGAP
 40
0.09
  9
$DIMJUST
 70
     0
  9
$DIMSD1
 70
     0
  9
$DIMSD2
 70
     0
  9
$DIMTOLJ
 70
     1
  9
$DIMTZIN
 70
     0
  9
$DIMALTZ
 70
     0
  9
$DIMALTTZ
 70
     0
  9
$DIMUPT
 70
     0
  9
$DIMDEC
 70
     4
  9
$DIMTDEC
 70
     4
  9
$DIMALTU
 70
     2
  9
$DIMALTTD
 70
     2
  9
$DIMTXSTY
  7
Standard
  9
$DIMAUNIT
 70
     0
  9
$DIMADEC
 70
     0
  9
$DIMALTRND
 40
0.0
  9
$DIMAZIN
 70
     0
  9
$DIMDSEP
 70
    46
  9
$DIMATFIT
 70
     3
  9
$DIMFRAC
 70
     0
  9
$DIMLDRBLK
  1

  9
$DIMLUNIT
 70
     2
  9
$DIMLWD
 70
    -2
  9
$DIMLWE
 70
    -2
  9
$DIMTMOVE
 70
     0
  9
$DIMFXL
 40
1.0
  9
$DIMFXLON
 70
     0
  9
$DIMJOGANG
 40
0.7853981633974483
  9
$DIMTFILL
 70
     0
  9
$DIMTFILLCLR
 70
     0
  9
$DIMARCSYM
 70
     0
  9
$DIMLTYPE
  6

  9
$DIMLTEX1
  6

  9
$DIMLTEX2
  6

  9
$DIMTXTDIRECTION
 70
     0
  9
$LUNITS
 70
     2
  9
$LUPREC
 70
     4
  9
$SKETCHINC
 40
0.1
  9
$FILLETRAD
 40
0.0
  9
$AUNITS
 70
     0
  9
$AUPREC
 70
     0
  9
$MENU
  1
.
  9
$ELEVATION
 40
0.0
  9
$PELEVATION
 40
0.0
  9
$THICKNESS
 40
0.0
  9
$LIMCHECK
 70
     0
  9
$CHAMFERA
 40
0.0
  9
$CHAMFERB
 40
0.0
  9
$CHAMFERC
 40
0.0
  9
$CHAMFERD
 40
0.0
  9
$SKPOLY
 70
     0
  9
$TDCREATE
 40
2459967.654942130
  9
$TDUCREATE
 40
2459967.904942130
  9
$TDUPDATE
 40
2459967.654942130
  9
$TDUUPDATE
 40
2459967.904942130
  9
$TDINDWG
 40
0.0000000000
  9
$TDUSRTIMER
 40
0.0000000000
  9
$USRTIMER
 70
     1
  9
$ANGBASE
 50
0.0
  9
$ANGDIR
 70
     0
  9
$PDMODE
 70
     0
  9
$PDSIZE
 40
0.0
  9
$PLINEWID
 40
0.0
  9
$SPLFRAME
 70
     0
  9
$SPLINETYPE
 70
     6
  9
$SPLINESEGS
 70
     8
  9
$HANDSEED
  5
A5
  9
$SURFTAB1
 70
     6
  9
$SURFTAB2
 70
     6
  9
$SURFTYPE
 70
     6
  9
$SURFU
 70
     6
  9
$SURFV
 70
     6
  9
$UCSBASE
  2

  9
$UCSNAME
  2

  9
$UCSORG
 10
0.0
 20
0.0
 30
0.0
  9
$UCSXDIR
 10
1.0
 20
0.0
 30
0.0
  9
$UCSYDIR
 10
0.0
 20
1.0
 30
0.0
  9
$UCSORTHOREF
  2

  9
$UCSORTHOVIEW
 70
     0
  9
$UCSORGTOP
 10
0.0
 20
0.0
 30
0.0
  9
$UCSORGBOTTOM
 10
0.0
 20
0.0
 30
0.0
  9
$UCSORGLEFT
 10
0.0
 20
0.0
 30
0.0
  9
$UCSORGRIGHT
 10
0.0
 20
0.0
 30
0.0
  9
$UCSORGFRONT
 10
0.0
 20
0.0
 30
0.0
  9
$UCSORGBACK
 10
0.0
 20
0.0
 30
0.0
  9
$PUCSBASE
  2

  9
$PUCSNAME
  2

  9
$PUCSORG
 10
0.0
 20
0.0
 30
0.0
  9
$PUCSXDIR
 10
1.0
 20
0.0
 30
0.0
  9
$PUCSYDIR
 10
0.0
 20
1.0
 30
0.0
  9
$PUCSORTHOREF
  2

  9
$PUCSORTHOVIEW
 70
     0
  9
$PUCSORGTOP
 10
0.0
 20
0.0
 30
0.0
  9
$PUCSORGBOTTOM
 10
0.0
 20
0.0
 30
0.0
  9
$PUCSORGLEFT
 10
0.0
 20
0.0
 30
0.0
  9
$PUCSORGRIGHT
 10
0.0
 20
0.0
 30
0.0
  9
$PUCSORGFRONT
 10
0.0
 20
0.0
 30
0.0
  9
$PUCSORGBACK
 10
0.0
 20
0.0
 30
0.0
  9
$USERI1
 70
     0
  9
$USERI2
 70
     0
  9
$USERI3
 70
     0
  9
$USERI4
 70
     0
  9
$USERI5
 70
     0
  9
$USERR1
 40
0.0
  9
$USERR2
 40
0.0
  9
$USERR3
 40
0.0
  9
$USERR4
 40
0.0
  9
$USERR5
 40
0.0
  9
$WORLDVIEW
 70
     1
  9
$SHADEDGE
 70
     3
  9
$SHADEDIF
 70
    70
  9
$TILEMODE
 70
     1
  9
$MAXACTVP
 70
    64
  9
$PINSBASE
 10
0.0
 20
0.0
 30
0.0
  9
$PLIMCHECK
 70
     0
  9
$PEXTMIN
 10
1.000000000000000E+20
 20
1.000000000000000E+20
 30
1.000000000000000E+20
  9
$PEXTMAX
 10
-1.000000000000000E+20
 20
-1.000000000000000E+20
 30
-1.000000000000000E+20
  9
$PLIMMIN
 10
0.0
 20
0.0
  9
$PLIMMAX
 10
12.0
 20
9.0
  9
$UNITMODE
 70
     0
  9
$VISRETAIN
 70
     1
  9
$PLINEGEN
 70
     0
  9
$PSLTSCALE
 70
     1
  9
$TREEDEPTH
 70
  3020
  9
$CMLSTYLE
  2
Standard
  9
$CMLJUST
 70
     0
  9
$CMLSCALE
 40
1.0
  9
$PROXYGRAPHICS
 70
     1
  9
$MEASUREMENT
 70
     0
  9
$CELWEIGHT
370
    -1
  9
$ENDCAPS
280
     0
  9
$JOINSTYLE
280
     0
  9
$LWDISPLAY
290
     1
  9
$INSUNITS
 70
     4
  9
$HYPERLINKBASE
  1

  9
$STYLESHEET
  1

  9
$XEDIT
290
     1
  9
$CEPSNTYPE
380
     0
  9
$PSTYLEMODE
290
     1
  9
$FINGERPRINTGUID
  2
{3DCBFC27-A8BD-F048-AF24-0827E805EFA2}
  9
$VERSIONGUID
  2
{45F5434D-8638-E64D-9D68-863D348833D5}
  9
$EXTNAMES
290
     1
  9
$PSVPSCALE
 40
0.0
  9
$OLESTARTUP
290
     0
  9
$SORTENTS
280
   127
  9
$INDEXCTL
280
     0
  9
$HIDETEXT
280
     1
  9
$XCLIPFRAME
280
     2
  9
$HALOGAP
280
     0
  9
$OBSCOLOR
 70
   257
  9
$OBSLTYPE
280
     0
  9
$INTERSECTIONDISPLAY
280
     0
  9
$INTERSECTIONCOLOR
 70
   257
  9
$DIMASSOC
280
     2
  9
$PROJECTNAME
  1

  9
$CAMERADISPLAY
290
     0
  9
$LENSLENGTH
 40
50.0
  9
$CAMERAHEIGHT
 40
0.0
  9
$STEPSPERSEC
 40
2.0
  9
$STEPSIZE
 40
6.0
  9
$3DDWFPREC
 40
2.0
  9
$PSOLWIDTH
 40
0.25
  9
$PSOLHEIGHT
 40
4.0
  9
$LOFTANG1
 40
1.570796326794896
  9
$LOFTANG2
 40
1.570796326794896
  9
$LOFTMAG1
 40
0.0
  9
$LOFTMAG2
 40
0.0
  9
$LOFTPARAM
 70
     7
  9
$LOFTNORMALS
280
     1
  9
$LATITUDE
 40
37.795
  9
$LONGITUDE
 40
-122.394
  9
$NORTHDIRECTION
 40
0.0
  9
$TIMEZONE
 70
 -8000
  9
$LIGHTGLYPHDISPLAY
280
     1
  9
$TILEMODELIGHTSYNCH
280
     1
  9
$CMATERIAL
347
11
  9
$SOLIDHIST
280
     0
  9
$SHOWHIST
280
     1
  9
$DWFFRAME
280
     2
  9
$DGNFRAME
280
     0
  9
$REALWORLDSCALE
290
     1
  9
$INTERFERECOLOR
 62
     1
  9
$INTERFEREOBJVS
345
33
  9
$INTERFEREVPVS
346
30
  9
$CSHADOW
280
     0
  9
$SHADOWPLANELOCATION
 40
0.0
  0
ENDSEC
  0
SECTION
  2
CLASSES
  0
CLASS
  1
ACDBDICTIONARYWDFLT
  2
AcDbDictionaryWithDefault
  3
ObjectDBX Classes
 90
        0
 91
        1
280
     0
281
     0
  0
CLASS
  1
MATERIAL
  2
AcDbMaterial
  3
ObjectDBX Classes
 90
     1153
 91
        3
280
     0
281
     0
  0
CLASS
  1
VISUALSTYLE
  2
AcDbVisualStyle
  3
ObjectDBX Classes
 90
     4095
 91
       24
280
     0
281
     0
  0
CLASS
  1
SCALE
  2
AcDbScale
  3
ObjectDBX Classes
 90
     1153
 91
       17
280
     0
281
     0
  0
CLASS
  1
TABLESTYLE
  2
AcDbTableStyle
  3
ObjectDBX Classes
 90
     4095
 91
        1
280
     0
281
     0
  0
CLASS
  1
MLEADERSTYLE
  2
AcDbMLeaderStyle
  3
ACDB_MLEADERSTYLE_CLASS
 90
     4095
 91
        1
280
     0
281
     0
  0
CLASS
  1
ACDBSECTIONVIEWSTYLE
  2
AcDbSectionViewStyle
  3
ObjectDBX Classes
 90
     1025
 91
        1
280
     0
281
     0
  0
CLASS
  1
ACDBDETAILVIEWSTYLE
  2
AcDbDetailViewStyle
  3
ObjectDBX Classes
 90
     1025
 91
        1
280
     0
281
     0
  0
CLASS
  1
DICTIONARYVAR
  2
AcDbDictionaryVar
  3
ObjectDBX Classes
 90
        0
 91
        5
280
     0
281
     0
  0
CLASS
  1
CELLSTYLEMAP
  2
AcDbCellStyleMap
  3
ObjectDBX Classes
 90
     1152
 91
        1
280
     0
281
     0
  0
ENDSEC
  0
SECTION
  2
TABLES
  0
TABLE
  2
VPORT
  5
8
330
0
100
AcDbSymbolTable
 70
     1
  0
VPORT
  5
57
330
8
100
AcDbSymbolTableRecord
100
AcDbViewportTableRecord
  2
*Active
 70
     0
 10
0.0
 20
0.0
 11
1.0
 21
1.0
 12
0.0
 22
0.0
 13
0.0
 23
0.0
 14
1.0
 24
1.0
 15
0.0
 25
0.0
 16
0.0
 26
0.0
 36
1.0
 17
0.0005531565334138
 27
0.0
 37
0.0
 40
3.785267855522238
 41
8.084270281437319
 42
50.0
 43
0.0
 44
0.0
 50
0.0
 51
0.0
 71
     0
 72
   100
 73
     1
 74
     1
 75
     0
 76
     0
 77
     0
 78
     0
281
     0
 65
     1
110
0.0
120
0.0
130
0.0
111
1.0
121
0.0
131
0.0
112
0.0
122
1.0
132
0.0
 79
     0
146
0.0
 60
     3
 61
     5
292
     1
282
     1
141
0.0
142
0.0
 63
   250
421
  3355443
  0
ENDTAB
  0
TABLE
  2
LTYPE
  5
5
330
0
100
AcDbSymbolTable
 70
     1
  0
LTYPE
  5
5B
330
5
100
AcDbSymbolTableRecord
100
AcDbLinetypeTableRecord
  2
ByBlock
 70
     0
  3

 72
    65
 73
     0
 40
0.0
  0
LTYPE
  5
5C
330
5
100
AcDbSymbolTableRecord
100
AcDbLinetypeTableRecord
  2
ByLayer
 70
     0
  3

 72
    65
 73
     0
 40
0.0
  0
LTYPE
  5
5D
330
5
100
AcDbSymbolTableRecord
100
AcDbLinetypeTableRecord
  2
Continuous
 70
     0
  3
Solid line
 72
    65
 73
     0
 40
0.0
  0
ENDTAB
  0
TABLE
  2
LAYER
  5
2
330
0
100
AcDbSymbolTable
 70
     2
  0
LAYER
  5
54
330
2
100
AcDbSymbolTableRecord
100
AcDbLayerTableRecord
  2
0
 70
     0
 62
     7
  6
Continuous
370
    -3
390
F
347
21
348
0
  0
LAYER
  5
78
330
2
100
AcDbSymbolTableRecord
100
AcDbLayerTableRecord
  2
Layer 1
 70
     0
 62
     7
  6
Continuous
370
     0
390
F
347
21
348
0
  0
ENDTAB
  0
TABLE
  2
STYLE
  5
3
330
0
100
AcDbSymbolTable
 70
     2
  0
STYLE
  5
55
330
3
100
AcDbSymbolTableRecord
100
AcDbTextStyleTableRecord
  2
Standard
 70
     0
 40
0.0
 41
1.0
 50
0.0
 71
     0
 42
0.2
  3
txt
  4

  0
STYLE
  5
5A
330
3
100
AcDbSymbolTableRecord
100
AcDbTextStyleTableRecord
  2
Annotative
 70
     0
 40
0.0
 41
1.0
 50
0.0
 71
     0
 42
0.2
  3
txt
  4

1001
AcadAnnotative
1000
AnnotativeData
1002
{
1070
     1
1070
     1
1002
}
  0
ENDTAB
  0
TABLE
  2
VIEW
  5
6
330
0
100
AcDbSymbolTable
 70
     0
  0
ENDTAB
  0
TABLE
  2
UCS
  5
7
330
0
100
AcDbSymbolTable
 70
     0
  0
ENDTAB
  0
TABLE
  2
APPID
  5
9
330
0
100
AcDbSymbolTable
 70
     2
  0
APPID
  5
56
330
9
100
AcDbSymbolTableRecord
100
AcDbRegAppTableRecord
  2
ACAD
 70
     0
  0
APPID
  5
5E
330
9
100
AcDbSymbolTableRecord
100
AcDbRegAppTableRecord
  2
AcadAnnotative
 70
     0
  0
ENDTAB
  0
TABLE
  2
DIMSTYLE
  5
A
330
0
100
AcDbSymbolTable
 70
     2
100
AcDbDimStyleTable
 71
     0
  0
DIMSTYLE
105
58
330
A
100
AcDbSymbolTableRecord
100
AcDbDimStyleTableRecord
  2
Standard
 70
     0
340
55
  0
DIMSTYLE
105
59
330
A
100
AcDbSymbolTableRecord
100
AcDbDimStyleTableRecord
  2
Annotative
 70
     0
340
55
1001
AcadAnnotative
1000
AnnotativeData
1002
{
1070
     1
1070
     1
1002
}
  0
ENDTAB
  0
TABLE
  2
BLOCK_RECORD
  5
1
330
0
100
AcDbSymbolTable
 70
     3
  0
BLOCK_RECORD
  5
70
330
1
100
AcDbSymbolTableRecord
100
AcDbBlockTableRecord
  2
*Model_Space
340
73
 70
     0
280
     1
281
     0
  0
BLOCK_RECORD
  5
6C
330
1
100
AcDbSymbolTableRecord
100
AcDbBlockTableRecord
  2
*Paper_Space
340
6F
 70
     0
280
     1
281
     0
  0
BLOCK_RECORD
  5
74
330
1
100
AcDbSymbolTableRecord
100
AcDbBlockTableRecord
  2
*Paper_Space0
340
77
 70
     0
280
     1
281
     0
  0
BLOCK_RECORD
  5
79
330
1
100
AcDbSymbolTableRecord
100
AcDbBlockTableRecord
  2
Block_0
340
0
102
{BLKREFS
331
7A
102
}
 70
     0
280
     1
281
     0
  0
BLOCK_RECORD
  5
8B
330
1
100
AcDbSymbolTableRecord
100
AcDbBlockTableRecord
  2
Block_1
340
0
102
{BLKREFS
331
8C
102
}
 70
     0
280
     1
281
     0
  0
ENDTAB
  0
ENDSEC
  0
SECTION
  2
BLOCKS
  0
BLOCK
  5
71
330
70
100
AcDbEntity
  8
0
100
AcDbBlockBegin
  2
*Model_Space
 70
     0
 10
0.0
 20
0.0
 30
0.0
  3
*Model_Space
  1

  0
ENDBLK
  5
72
330
70
100
AcDbEntity
  8
0
100
AcDbBlockEnd
  0
BLOCK
  5
6D
330
6C
100
AcDbEntity
 67
     1
  8
0
100
AcDbBlockBegin
  2
*Paper_Space
 70
     0
 10
0.0
 20
0.0
 30
0.0
  3
*Paper_Space
  1

  0
ENDBLK
  5
6E
330
6C
100
AcDbEntity
 67
     1
  8
0
100
AcDbBlockEnd
  0
BLOCK
  5
75
330
74
100
AcDbEntity
 67
     1
  8
0
100
AcDbBlockBegin
  2
*Paper_Space0
 70
     0
 10
0.0
 20
0.0
 30
0.0
  3
*Paper_Space0
  1

  0
ENDBLK
  5
76
330
74
100
AcDbEntity
 67
     1
  8
0
100
AcDbBlockEnd
  0
BLOCK
  5
7B
330
79
100
AcDbEntity
  8
0
100
AcDbBlockBegin
  2
Block_0
 70
     0
 10
0.0
 20
0.0
 30
0.0
  3
Block_0
  1

  0
SPLINE
  5
7D
330
79
100
AcDbEntity
  8
Layer 1
100
AcDbSpline
210
0.0
220
0.0
230
1.0
 70
    11
 71
     3
 72
    20
 73
    16
 74
     0
 42
0.0000000001
 43
0.0000000001
 40
0.0
 40
0.0
 40
0.0
 40
0.0
 40
1.0
 40
1.0
 40
1.0
 40
2.0
 40
2.0
 40
2.0
 40
3.0
 40
3.0
 40
3.0
 40
4.0
 40
4.0
 40
4.0
 40
5.0
 40
5.0
 40
5.0
 40
5.0
 10
-14.38746805467097
 20
-0.9580552162314553
 30
0.0
 10
-14.38746805467097
 20
-0.9580552162314553
 30
0.0
 10
-14.1134763809523
 20
-0.9580552162314553
 30
0.0
 10
-14.1134763809523
 20
-0.9580552162314553
 30
0.0
 10
-13.62422975835325
 20
-0.9580552162314553
 30
0.0
 10
-13.4011296810977
 20
-0.6645072426722866
 30
0.0
 10
-13.4011296810977
 20
-0.0147633107464422
 30
0.0
 10
-13.4011296810977
 20
0.6075791929634038
 30
0.0
 10
-13.63205227828938
 20
0.9070053606946009
 30
0.0
 10
-14.1134763809523
 20
0.9070053606946009
 30
0.0
 10
-14.1134763809523
 20
0.9070053606946009
 30
0.0
 10
-14.38746805467097
 20
0.9070053606946009
 30
0.0
 10
-14.38746805467097
 20
0.9070053606946009
 30
0.0
 10
-14.38746805467097
 20
0.9070053606946009
 30
0.0
 10
-14.38746805467097
 20
-0.9580552162314553
 30
0.0
 10
-14.38746805467097
 20
-0.9580552162314553
 30
0.0
  0
SPLINE
  5
7E
330
79
100
AcDbEntity
  8
Layer 1
100
AcDbSpline
210
0.0
220
0.0
230
1.0
 70
     9
 71
     3
 72
    20
 73
    16
 74
     0
 42
0.0000000001
 43
0.0000000001
 40
0.0
 40
0.0
 40
0.0
 40
0.0
 40
1.0
 40
1.0
 40
1.0
 40
2.0
 40
2.0
 40
2.0
 40
3.0
 40
3.0
 40
3.0
 40
4.0
 40
4.0
 40
4.0
 40
5.0
 40
5.0
 40
5.0
 40
5.0
 10
-14.03717289891571
 20
1.386485137592767
 30
0.0
 10
-13.24651056594293
 20
1.386485137592767
 30
0.0
 10
-12.83359003381921
 20
0.9089496864590246
 30
0.0
 10
-12.83359003381921
 20
-0.0049738566068295
 30
0.0
 10
-12.83359003381921
 20
-0.9521770220597478
 30
0.0
 10
-13.24065498020996
 20
-1.437534993129943
 30
0.0
 10
-14.03717289891571
 20
-1.437534993129943
 30
0.0
 10
-14.03717289891571
 20
-1.437534993129943
 30
0.0
 10
-14.94327392204511
 20
-1.437534993129943
 30
0.0
 10
-14.94327392204511
 20
-1.437534993129943
 30
0.0
 10
-14.94327392204511
 20
-1.437534993129943
 30
0.0
 10
-14.94327392204511
 20
1.386485137592767
 30
0.0
 10
-14.94327392204511
 20
1.386485137592767
 30
0.0
 10
-14.94327392204511
 20
1.386485137592767
 30
0.0
 10
-14.03717289891571
 20
1.386485137592767
 30
0.0
 10
-14.03717289891571
 20
1.386485137592767
 30
0.0
  0
HATCH
  5
7F
330
79
100
AcDbEntity
  8
Layer 1
 62
    18
420
        0
440
 33554687
100
AcDbHatch
 10
0.0
 20
0.0
 30
0.0
210
0.0
220
0.0
230
1.0
  2
SOLID
 70
     1
 71
     1
 91
        2
 92
        1
 93
        1
 72
     4
 94
        3
 73
     0
 74
     0
 95
       20
 96
       16
 40
0.0
 40
0.0
 40
0.0
 40
0.0
 40
1.0
 40
1.0
 40
1.0
 40
2.0
 40
2.0
 40
2.0
 40
3.0
 40
3.0
 40
3.0
 40
4.0
 40
4.0
 40
4.0
 40
5.0
 40
5.0
 40
5.0
 40
5.0
 10
-14.38746805467097
 20
-0.9580552162314553
 10
-14.38746805467097
 20
-0.9580552162314553
 10
-14.1134763809523
 20
-0.9580552162314553
 10
-14.1134763809523
 20
-0.9580552162314553
 10
-13.62422975835325
 20
-0.9580552162314553
 10
-13.4011296810977
 20
-0.6645072426722866
 10
-13.4011296810977
 20
-0.0147633107464422
 10
-13.4011296810977
 20
0.6075791929634038
 10
-13.63205227828938
 20
0.9070053606946009
 10
-14.1134763809523
 20
0.9070053606946009
 10
-14.1134763809523
 20
0.9070053606946009
 10
-14.38746805467097
 20
0.9070053606946009
 10
-14.38746805467097
 20
0.9070053606946009
 10
-14.38746805467097
 20
0.9070053606946009
 10
-14.38746805467097
 20
-0.9580552162314553
 10
-14.38746805467097
 20
-0.9580552162314553
 97
        0
 97
        1
330
7D
 92
        1
 93
        1
 72
     4
 94
        3
 73
     0
 74
     0
 95
       20
 96
       16
 40
0.0
 40
0.0
 40
0.0
 40
0.0
 40
1.0
 40
1.0
 40
1.0
 40
2.0
 40
2.0
 40
2.0
 40
3.0
 40
3.0
 40
3.0
 40
4.0
 40
4.0
 40
4.0
 40
5.0
 40
5.0
 40
5.0
 40
5.0
 10
-14.03717289891571
 20
1.386485137592767
 10
-13.24651056594293
 20
1.386485137592767
 10
-12.83359003381921
 20
0.9089496864590246
 10
-12.83359003381921
 20
-0.0049738566068295
 10
-12.83359003381921
 20
-0.9521770220597478
 10
-13.24065498020996
 20
-1.437534993129943
 10
-14.03717289891571
 20
-1.437534993129943
 10
-14.03717289891571
 20
-1.437534993129943
 10
-14.94327392204511
 20
-1.437534993129943
 10
-14.94327392204511
 20
-1.437534993129943
 10
-14.94327392204511
 20
-1.437534993129943
 10
-14.94327392204511
 20
1.386485137592767
 10
-14.94327392204511
 20
1.386485137592767
 10
-14.94327392204511
 20
1.386485137592767
 10
-14.03717289891571
 20
1.386485137592767
 10
-14.03717289891571
 20
1.386485137592767
 97
        0
 97
        1
330
7E
 75
     2
 76
     1
 98
        1
 10
0.0
 20
0.0
450
        0
451
        0
460
0.0
461
0.0
452
        0
462
0.0
453
        0
470

  0
SPLINE
  5
80
330
79
100
AcDbEntity
  8
Layer 1
100
AcDbSpline
210
0.0
220
0.0
230
1.0
 70
    11
 71
     3
 72
    41
 73
    37
 74
     0
 42
0.0000000001
 43
0.0000000001
 40
0.0
 40
0.0
 40
0.0
 40
0.0
 40
1.0
 40
1.0
 40
1.0
 40
2.0
 40
2.0
 40
2.0
 40
3.0
 40
3.0
 40
3.0
 40
4.0
 40
4.0
 40
4.0
 40
5.0
 40
5.0
 40
5.0
 40
6.0
 40
6.0
 40
6.0
 40
7.0
 40
7.0
 40
7.0
 40
8.0
 40
8.0
 40
8.0
 40
9.0
 40
9.0
 40
9.0
 40
10.0
 40
10.0
 40
10.0
 40
11.0
 40
11.0
 40
11.0
 40
12.0
 40
12.0
 40
12.0
 40
12.0
 10
-12.3265731780707
 20
-1.437534993129943
 30
0.0
 10
-12.3265731780707
 20
-1.437534993129943
 30
0.0
 10
-12.3265731780707
 20
-0.9600221504352576
 30
0.0
 10
-12.3265731780707
 20
-0.9600221504352576
 30
0.0
 10
-12.3265731780707
 20
-0.9600221504352576
 30
0.0
 10
-11.74142155671614
 20
-0.9600221504352576
 30
0.0
 10
-11.74142155671614
 20
-0.9600221504352576
 30
0.0
 10
-11.74142155671614
 20
-0.9600221504352576
 30
0.0
 10
-11.74142155671614
 20
0.9089496864590246
 30
0.0
 10
-11.74142155671614
 20
0.9089496864590246
 30
0.0
 10
-11.74142155671614
 20
0.9089496864590246
 30
0.0
 10
-12.3265731780707
 20
0.9089496864590246
 30
0.0
 10
-12.3265731780707
 20
0.9089496864590246
 30
0.0
 10
-12.3265731780707
 20
0.9089496864590246
 30
0.0
 10
-12.3265731780707
 20
1.386485137592767
 30
0.0
 10
-12.3265731780707
 20
1.386485137592767
 30
0.0
 10
-12.3265731780707
 20
1.386485137592767
 30
0.0
 10
-10.6004640679881
 20
1.386485137592767
 30
0.0
 10
-10.6004640679881
 20
1.386485137592767
 30
0.0
 10
-10.6004640679881
 20
1.386485137592767
 30
0.0
 10
-10.6004640679881
 20
0.9089496864590246
 30
0.0
 10
-10.6004640679881
 20
0.9089496864590246
 30
0.0
 10
-10.6004640679881
 20
0.9089496864590246
 30
0.0
 10
-11.18561568934233
 20
0.9089496864590246
 30
0.0
 10
-11.18561568934233
 20
0.9089496864590246
 30
0.0
 10
-11.18561568934233
 20
0.9089496864590246
 30
0.0
 10
-11.18561568934233
 20
-0.9600221504352576
 30
0.0
 10
-11.18561568934233
 20
-0.9600221504352576
 30
0.0
 10
-11.18561568934233
 20
-0.9600221504352576
 30
0.0
 10
-10.6004640679881
 20
-0.9600221504352576
 30
0.0
 10
-10.6004640679881
 20
-0.9600221504352576
 30
0.0
 10
-10.6004640679881
 20
-0.9600221504352576
 30
0.0
 10
-10.6004640679881
 20
-1.437534993129943
 30
0.0
 10
-10.6004640679881
 20
-1.437534993129943
 30
0.0
 10
-10.6004640679881
 20
-1.437534993129943
 30
0.0
 10
-12.3265731780707
 20
-1.437534993129943
 30
0.0
 10
-12.3265731780707
 20
-1.437534993129943
 30
0.0
  0
HATCH
  5
81
330
79
100
AcDbEntity
  8
Layer 1
 62
    18
420
        0
440
 33554687
100
AcDbHatch
 10
0.0
 20
0.0
 30
0.0
210
0.0
220
0.0
230
1.0
  2
SOLID
 70
     1
 71
     1
 91
        1
 92
        1
 93
        1
 72
     4
 94
        3
 73
     0
 74
     0
 95
       41
 96
       37
 40
0.0
 40
0.0
 40
0.0
 40
0.0
 40
1.0
 40
1.0
 40
1.0
 40
2.0
 40
2.0
 40
2.0
 40
3.0
 40
3.0
 40
3.0
 40
4.0
 40
4.0
 40
4.0
 40
5.0
 40
5.0
 40
5.0
 40
6.0
 40
6.0
 40
6.0
 40
7.0
 40
7.0
 40
7.0
 40
8.0
 40
8.0
 40
8.0
 40
9.0
 40
9.0
 40
9.0
 40
10.0
 40
10.0
 40
10.0
 40
11.0
 40
11.0
 40
11.0
 40
12.0
 40
12.0
 40
12.0
 40
12.0
 10
-12.3265731780707
 20
-1.437534993129943
 10
-12.3265731780707
 20
-1.437534993129943
 10
-12.3265731780707
 20
-0.9600221504352576
 10
-12.3265731780707
 20
-0.9600221504352576
 10
-12.3265731780707
 20
-0.9600221504352576
 10
-11.74142155671614
 20
-0.9600221504352576
 10
-11.74142155671614
 20
-0.9600221504352576
 10
-11.74142155671614
 20
-0.9600221504352576
 10
-11.74142155671614
 20
0.9089496864590246
 10
-11.74142155671614
 20
0.9089496864590246
 10
-11.74142155671614
 20
0.9089496864590246
 10
-12.3265731780707
 20
0.9089496864590246
 10
-12.3265731780707
 20
0.9089496864590246
 10
-12.3265731780707
 20
0.9089496864590246
 10
-12.3265731780707
 20
1.386485137592767
 10
-12.3265731780707
 20
1.386485137592767
 10
-12.3265731780707
 20
1.386485137592767
 10
-10.6004640679881
 20
1.386485137592767
 10
-10.6004640679881
 20
1.386485137592767
 10
-10.6004640679881
 20
1.386485137592767
 10
-10.6004640679881
 20
0.9089496864590246
 10
-10.6004640679881
 20
0.9089496864590246
 10
-10.6004640679881
 20
0.9089496864590246
 10
-11.18561568934233
 20
0.9089496864590246
 10
-11.18561568934233
 20
0.9089496864590246
 10
-11.18561568934233
 20
0.9089496864590246
 10
-11.18561568934233
 20
-0.9600221504352576
 10
-11.18561568934233
 20
-0.9600221504352576
 10
-11.18561568934233
 20
-0.9600221504352576
 10
-10.6004640679881
 20
-0.9600221504352576
 10
-10.6004640679881
 20
-0.9600221504352576
 10
-10.6004640679881
 20
-0.9600221504352576
 10
-10.6004640679881
 20
-1.437534993129943
 10
-10.6004640679881
 20
-1.437534993129943
 10
-10.6004640679881
 20
-1.437534993129943
 10
-12.3265731780707
 20
-1.437534993129943
 10
-12.3265731780707
 20
-1.437534993129943
 97
        0
 97
        1
330
80
 75
     2
 76
     1
 98
        1
 10
0.0
 20
0.0
450
        0
451
        0
460
0.0
461
0.0
452
        0
462
0.0
453
        0
470

  0
SPLINE
  5
82
330
79
100
AcDbEntity
  8
Layer 1
100
AcDbSpline
210
0.0
220
0.0
230
1.0
 70
    11
 71
     3
 72
    35
 73
    31
 74
     0
 42
0.0000000001
 43
0.0000000001
 40
0.0
 40
0.0
 40
0.0
 40
0.0
 40
1.0
 40
1.0
 40
1.0
 40
2.0
 40
2.0
 40
2.0
 40
3.0
 40
3.0
 40
3.0
 40
4.0
 40
4.0
 40
4.0
 40
5.0
 40
5.0
 40
5.0
 40
6.0
 40
6.0
 40
6.0
 40
7.0
 40
7.0
 40
7.0
 40
8.0
 40
8.0
 40
8.0
 40
9.0
 40
9.0
 40
9.0
 40
10.0
 40
10.0
 40
10.0
 40
10.0
 10
-9.263672279585508
 20
-1.437534993129943
 30
0.0
 10
-9.263672279585508
 20
-1.437534993129943
 30
0.0
 10
-9.263672279585508
 20
-0.3944268289211906
 30
0.0
 10
-9.263672279585508
 20
-0.3944268289211906
 30
0.0
 10
-9.263672279585508
 20
-0.3944268289211906
 30
0.0
 10
-10.16977330271491
 20
1.386485137592767
 30
0.0
 10
-10.16977330271491
 20
1.386485137592767
 30
0.0
 10
-10.16977330271491
 20
1.386485137592767
 30
0.0
 10
-9.568976641488092
 20
1.386485137592767
 30
0.0
 10
-9.568976641488092
 20
1.386485137592767
 30
0.0
 10
-9.568976641488092
 20
1.386485137592767
 30
0.0
 10
-9.003381319974346
 20
0.1829022724965922
 30
0.0
 10
-9.003381319974346
 20
0.1829022724965922
 30
0.0
 10
-9.003381319974346
 20
0.1829022724965922
 30
0.0
 10
-8.968157371822217
 20
0.1829022724965922
 30
0.0
 10
-8.968157371822217
 20
0.1829022724965922
 30
0.0
 10
-8.968157371822217
 20
0.1829022724965922
 30
0.0
 10
-8.402562050308469
 20
1.386485137592767
 30
0.0
 10
-8.402562050308469
 20
1.386485137592767
 30
0.0
 10
-8.402562050308469
 20
1.386485137592767
 30
0.0
 10
-7.801765389081973
 20
1.386485137592767
 30
0.0
 10
-7.801765389081973
 20
1.386485137592767
 30
0.0
 10
-7.801765389081973
 20
1.386485137592767
 30
0.0
 10
-8.707866412211375
 20
-0.3944268289211906
 30
0.0
 10
-8.707866412211375
 20
-0.3944268289211906
 30
0.0
 10
-8.707866412211375
 20
-0.3944268289211906
 30
0.0
 10
-8.707866412211375
 20
-1.437534993129943
 30
0.0
 10
-8.707866412211375
 20
-1.437534993129943
 30
0.0
 10
-8.707866412211375
 20
-1.437534993129943
 30
0.0
 10
-9.263672279585508
 20
-1.437534993129943
 30
0.0
 10
-9.263672279585508
 20
-1.437534993129943
 30
0.0
  0
HATCH
  5
83
330
79
100
AcDbEntity
  8
Layer 1
 62
    18
420
        0
440
 33554687
100
AcDbHatch
 10
0.0
 20
0.0
 30
0.0
210
0.0
220
0.0
230
1.0
  2
SOLID
 70
     1
 71
     1
 91
        1
 92
        1
 93
        1
 72
     4
 94
        3
 73
     0
 74
     0
 95
       35
 96
       31
 40
0.0
 40
0.0
 40
0.0
 40
0.0
 40
1.0
 40
1.0
 40
1.0
 40
2.0
 40
2.0
 40
2.0
 40
3.0
 40
3.0
 40
3.0
 40
4.0
 40
4.0
 40
4.0
 40
5.0
 40
5.0
 40
5.0
 40
6.0
 40
6.0
 40
6.0
 40
7.0
 40
7.0
 40
7.0
 40
8.0
 40
8.0
 40
8.0
 40
9.0
 40
9.0
 40
9.0
 40
10.0
 40
10.0
 40
10.0
 40
10.0
 10
-9.263672279585508
 20
-1.437534993129943
 10
-9.263672279585508
 20
-1.437534993129943
 10
-9.263672279585508
 20
-0.3944268289211906
 10
-9.263672279585508
 20
-0.3944268289211906
 10
-9.263672279585508
 20
-0.3944268289211906
 10
-10.16977330271491
 20
1.386485137592767
 10
-10.16977330271491
 20
1.386485137592767
 10
-10.16977330271491
 20
1.386485137592767
 10
-9.568976641488092
 20
1.386485137592767
 10
-9.568976641488092
 20
1.386485137592767
 10
-9.568976641488092
 20
1.386485137592767
 10
-9.003381319974346
 20
0.1829022724965922
 10
-9.003381319974346
 20
0.1829022724965922
 10
-9.003381319974346
 20
0.1829022724965922
 10
-8.968157371822217
 20
0.1829022724965922
 10
-8.968157371822217
 20
0.1829022724965922
 10
-8.968157371822217
 20
0.1829022724965922
 10
-8.402562050308469
 20
1.386485137592767
 10
-8.402562050308469
 20
1.386485137592767
 10
-8.402562050308469
 20
1.386485137592767
 10
-7.801765389081973
 20
1.386485137592767
 10
-7.801765389081973
 20
1.386485137592767
 10
-7.801765389081973
 20
1.386485137592767
 10
-8.707866412211375
 20
-0.3944268289211906
 10
-8.707866412211375
 20
-0.3944268289211906
 10
-8.707866412211375
 20
-0.3944268289211906
 10
-8.707866412211375
 20
-1.437534993129943
 10
-8.707866412211375
 20
-1.437534993129943
 10
-8.707866412211375
 20
-1.437534993129943
 10
-9.263672279585508
 20
-1.437534993129943
 10
-9.263672279585508
 20
-1.437534993129943
 97
        0
 97
        1
330
82
 75
     2
 76
     1
 98
        1
 10
0.0
 20
0.0
450
        0
451
        0
460
0.0
461
0.0
452
        0
462
0.0
453
        0
470

  0
SPLINE
  5
84
330
79
100
AcDbEntity
  8
Layer 1
100
AcDbSpline
210
0.0
220
0.0
230
1.0
 70
     9
 71
     3
 72
    53
 73
    49
 74
     0
 42
0.0000000001
 43
0.0000000001
 40
0.0
 40
0.0
 40
0.0
 40
0.0
 40
1.0
 40
1.0
 40
1.0
 40
2.0
 40
2.0
 40
2.0
 40
3.0
 40
3.0
 40
3.0
 40
4.0
 40
4.0
 40
4.0
 40
5.0
 40
5.0
 40
5.0
 40
6.0
 40
6.0
 40
6.0
 40
7.0
 40
7.0
 40
7.0
 40
8.0
 40
8.0
 40
8.0
 40
9.0
 40
9.0
 40
9.0
 40
10.0
 40
10.0
 40
10.0
 40
11.0
 40
11.0
 40
11.0
 40
12.0
 40
12.0
 40
12.0
 40
13.0
 40
13.0
 40
13.0
 40
14.0
 40
14.0
 40
14.0
 40
15.0
 40
15.0
 40
15.0
 40
16.0
 40
16.0
 40
16.0
 40
16.0
 10
-7.036401899486402
 20
-0.6468952685962217
 30
0.0
 10
-7.010967405474206
 20
-0.8915185798957431
 30
0.0
 10
-6.811334888027369
 20
-1.032436980942677
 30
0.0
 10
-6.490385486252201
 20
-1.032436980942677
 30
0.0
 10
-6.185081124349297
 20
-1.032436980942677
 30
0.0
 10
-5.991326801074167
 20
-0.8856403857240355
 30
0.0
 10
-5.991326801074167
 20
-0.6566847227358345
 30
0.0
 10
-5.991326801074167
 20
-0.4648747252254499
 30
0.0
 10
-6.116577553809782
 20
-0.363114140737287
 30
0.0
 10
-6.443405149756657
 20
-0.2906993102298671
 30
0.0
 10
-6.443405149756657
 20
-0.2906993102298671
 30
0.0
 10
-6.736975731755205
 20
-0.222218348129731
 30
0.0
 10
-6.736975731755205
 20
-0.222218348129731
 30
0.0
 10
-7.247768196837275
 20
-0.1067570495337293
 30
0.0
 10
-7.498269702308504
 20
0.1633233642173667
 30
0.0
 10
-7.498269702308504
 20
0.5821220905121499
 30
0.0
 10
-7.498269702308504
 20
1.108582203905861
 30
0.0
 10
-7.108816729994142
 20
1.443232319788867
 30
0.0
 10
-6.498208006188333
 20
1.443232319788867
 30
0.0
 10
-5.90717819066239
 20
1.443232319788867
 30
0.0
 10
-5.509902698411577
 20
1.112493463874087
 30
0.0
 10
-5.492290724335192
 20
0.6075791929634038
 30
0.0
 10
-5.492290724335192
 20
0.6075791929634038
 30
0.0
 10
-6.016783903525742
 20
0.6075791929634038
 30
0.0
 10
-6.016783903525742
 20
0.6075791929634038
 30
0.0
 10
-6.038307137569712
 20
0.8404687243585676
 30
0.0
 10
-6.2163938125332
 20
0.983331451170247
 30
0.0
 10
-6.492329812016626
 20
0.983331451170247
 30
0.0
 10
-6.772199679907334
 20
0.983331451170247
 30
0.0
 10
-6.946375094902917
 20
0.852202504262925
 30
0.0
 10
-6.946375094902917
 20
0.6408362069117311
 30
0.0
 10
-6.946375094902917
 20
0.4412262979039522
 30
0.0
 10
-6.821124342167302
 20
0.3316205850409211
 30
0.0
 10
-6.515819980264398
 20
0.2650839487048879
 30
0.0
 10
-6.515819980264398
 20
0.2650839487048879
 30
0.0
 10
-6.226183266673134
 20
0.1985473123691755
 30
0.0
 10
-6.226183266673134
 20
0.1985473123691755
 30
0.0
 10
-5.680166853438613
 20
0.0772078196014663
 30
0.0
 10
-5.441399127872062
 20
-0.1674154916977341
 30
0.0
 10
-5.441399127872062
 20
-0.5999149321006771
 30
0.0
 10
-5.441399127872062
 20
-1.157687733678292
 30
0.0
 10
-5.840641554326678
 20
-1.494282175326042
 30
0.0
 10
-6.500174940391814
 20
-1.494282175326042
 30
0.0
 10
-7.140129418178046
 20
-1.494282175326042
 30
0.0
 10
-7.541316170397085
 20
-1.175299707754356
 30
0.0
 10
-7.560895078676311
 20
-0.6468952685962217
 30
0.0
 10
-7.560895078676311
 20
-0.6468952685962217
 30
0.0
 10
-7.036401899486402
 20
-0.6468952685962217
 30
0.0
 10
-7.036401899486402
 20
-0.6468952685962217
 30
0.0
  0
HATCH
  5
85
330
79
100
AcDbEntity
  8
Layer 1
 62
    18
420
        0
440
 33554687
100
AcDbHatch
 10
0.0
 20
0.0
 30
0.0
210
0.0
220
0.0
230
1.0
  2
SOLID
 70
     1
 71
     1
 91
        1
 92
        1
 93
        1
 72
     4
 94
        3
 73
     0
 74
     0
 95
       53
 96
       49
 40
0.0
 40
0.0
 40
0.0
 40
0.0
 40
1.0
 40
1.0
 40
1.0
 40
2.0
 40
2.0
 40
2.0
 40
3.0
 40
3.0
 40
3.0
 40
4.0
 40
4.0
 40
4.0
 40
5.0
 40
5.0
 40
5.0
 40
6.0
 40
6.0
 40
6.0
 40
7.0
 40
7.0
 40
7.0
 40
8.0
 40
8.0
 40
8.0
 40
9.0
 40
9.0
 40
9.0
 40
10.0
 40
10.0
 40
10.0
 40
11.0
 40
11.0
 40
11.0
 40
12.0
 40
12.0
 40
12.0
 40
13.0
 40
13.0
 40
13.0
 40
14.0
 40
14.0
 40
14.0
 40
15.0
 40
15.0
 40
15.0
 40
16.0
 40
16.0
 40
16.0
 40
16.0
 10
-7.036401899486402
 20
-0.6468952685962217
 10
-7.010967405474206
 20
-0.8915185798957431
 10
-6.811334888027369
 20
-1.032436980942677
 10
-6.490385486252201
 20
-1.032436980942677
 10
-6.185081124349297
 20
-1.032436980942677
 10
-5.991326801074167
 20
-0.8856403857240355
 10
-5.991326801074167
 20
-0.6566847227358345
 10
-5.991326801074167
 20
-0.4648747252254499
 10
-6.116577553809782
 20
-0.363114140737287
 10
-6.443405149756657
 20
-0.2906993102298671
 10
-6.443405149756657
 20
-0.2906993102298671
 10
-6.736975731755205
 20
-0.222218348129731
 10
-6.736975731755205
 20
-0.222218348129731
 10
-7.247768196837275
 20
-0.1067570495337293
 10
-7.498269702308504
 20
0.1633233642173667
 10
-7.498269702308504
 20
0.5821220905121499
 10
-7.498269702308504
 20
1.108582203905861
 10
-7.108816729994142
 20
1.443232319788867
 10
-6.498208006188333
 20
1.443232319788867
 10
-5.90717819066239
 20
1.443232319788867
 10
-5.509902698411577
 20
1.112493463874087
 10
-5.492290724335192
 20
0.6075791929634038
 10
-5.492290724335192
 20
0.6075791929634038
 10
-6.016783903525742
 20
0.6075791929634038
 10
-6.016783903525742
 20
0.6075791929634038
 10
-6.038307137569712
 20
0.8404687243585676
 10
-6.2163938125332
 20
0.983331451170247
 10
-6.492329812016626
 20
0.983331451170247
 10
-6.772199679907334
 20
0.983331451170247
 10
-6.946375094902917
 20
0.852202504262925
 10
-6.946375094902917
 20
0.6408362069117311
 10
-6.946375094902917
 20
0.4412262979039522
 10
-6.821124342167302
 20
0.3316205850409211
 10
-6.515819980264398
 20
0.2650839487048879
 10
-6.515819980264398
 20
0.2650839487048879
 10
-6.226183266673134
 20
0.1985473123691755
 10
-6.226183266673134
 20
0.1985473123691755
 10
-5.680166853438613
 20
0.0772078196014663
 10
-5.441399127872062
 20
-0.1674154916977341
 10
-5.441399127872062
 20
-0.5999149321006771
 10
-5.441399127872062
 20
-1.157687733678292
 10
-5.840641554326678
 20
-1.494282175326042
 10
-6.500174940391814
 20
-1.494282175326042
 10
-7.140129418178046
 20
-1.494282175326042
 10
-7.541316170397085
 20
-1.175299707754356
 10
-7.560895078676311
 20
-0.6468952685962217
 10
-7.560895078676311
 20
-0.6468952685962217
 10
-7.036401899486402
 20
-0.6468952685962217
 10
-7.036401899486402
 20
-0.6468952685962217
 97
        0
 97
        1
330
84
 75
     2
 76
     1
 98
        1
 10
0.0
 20
0.0
450
        0
451
        0
460
0.0
461
0.0
452
        0
462
0.0
453
        0
470

  0
SPLINE
  5
86
330
79
100
AcDbEntity
  8
Layer 1
100
AcDbSpline
210
0.0
220
0.0
230
1.0
 70
     9
 71
     3
 72
    23
 73
    19
 74
     0
 42
0.0000000001
 43
0.0000000001
 40
0.0
 40
0.0
 40
0.0
 40
0.0
 40
1.0
 40
1.0
 40
1.0
 40
2.0
 40
2.0
 40
2.0
 40
3.0
 40
3.0
 40
3.0
 40
4.0
 40
4.0
 40
4.0
 40
5.0
 40
5.0
 40
5.0
 40
6.0
 40
6.0
 40
6.0
 40
6.0
 10
-3.509666263975305
 20
-0.2359190622372488
 30
0.0
 10
-3.509666263975305
 20
-0.2359190622372488
 30
0.0
 10
-3.509666263975305
 20
0.1848465982610159
 30
0.0
 10
-3.509666263975305
 20
0.1848465982610159
 30
0.0
 10
-3.509666263975305
 20
0.6936947375789834
 30
0.0
 10
-3.689719873142275
 20
0.9500518287828619
 30
0.0
 10
-4.03024818319731
 20
0.9500518287828619
 30
0.0
 10
-4.370776493252344
 20
0.9500518287828619
 30
0.0
 10
-4.550830102418992
 20
0.6936947375789834
 30
0.0
 10
-4.550830102418992
 20
0.1848465982610159
 30
0.0
 10
-4.550830102418992
 20
0.1848465982610159
 30
0.0
 10
-4.550830102418992
 20
-0.2359190622372488
 30
0.0
 10
-4.550830102418992
 20
-0.2359190622372488
 30
0.0
 10
-4.550830102418992
 20
-0.7447445931158378
 30
0.0
 10
-4.370776493252344
 20
-1.001124292758774
 30
0.0
 10
-4.03024818319731
 20
-1.001124292758774
 30
0.0
 10
-3.689719873142275
 20
-1.001124292758774
 30
0.0
 10
-3.509666263975305
 20
-0.7447445931158378
 30
0.0
 10
-3.509666263975305
 20
-0.2359190622372488
 30
0.0
  0
SPLINE
  5
87
330
79
100
AcDbEntity
  8
Layer 1
100
AcDbSpline
210
0.0
220
0.0
230
1.0
 70
    11
 71
     3
 72
    23
 73
    19
 74
     0
 42
0.0000000001
 43
0.0000000001
 40
0.0
 40
0.0
 40
0.0
 40
0.0
 40
1.0
 40
1.0
 40
1.0
 40
2.0
 40
2.0
 40
2.0
 40
3.0
 40
3.0
 40
3.0
 40
4.0
 40
4.0
 40
4.0
 40
5.0
 40
5.0
 40
5.0
 40
6.0
 40
6.0
 40
6.0
 40
6.0
 10
-4.03024818319731
 20
-1.494282175326042
 30
0.0
 10
-4.70739354333851
 20
-1.494282175326042
 30
0.0
 10
-5.116402815494001
 20
-1.02655878677097
 30
0.0
 10
-5.116402815494001
 20
-0.2417746479702195
 30
0.0
 10
-5.116402815494001
 20
-0.2417746479702195
 30
0.0
 10
-5.116402815494001
 20
0.1907247924327234
 30
0.0
 10
-5.116402815494001
 20
0.1907247924327234
 30
0.0
 10
-5.116402815494001
 20
0.9755089312341157
 30
0.0
 10
-4.70739354333851
 20
1.443232319788867
 30
0.0
 10
-4.03024818319731
 20
1.443232319788867
 30
0.0
 10
-3.353102823055787
 20
1.443232319788867
 30
0.0
 10
-2.944093550900296
 20
0.9755089312341157
 30
0.0
 10
-2.944093550900296
 20
0.1907247924327234
 30
0.0
 10
-2.944093550900296
 20
0.1907247924327234
 30
0.0
 10
-2.944093550900296
 20
-0.2417746479702195
 30
0.0
 10
-2.944093550900296
 20
-0.2417746479702195
 30
0.0
 10
-2.944093550900296
 20
-1.02655878677097
 30
0.0
 10
-3.353102823055787
 20
-1.494282175326042
 30
0.0
 10
-4.03024818319731
 20
-1.494282175326042
 30
0.0
  0
HATCH
  5
88
330
79
100
AcDbEntity
  8
Layer 1
 62
    18
420
        0
440
 33554687
100
AcDbHatch
 10
0.0
 20
0.0
 30
0.0
210
0.0
220
0.0
230
1.0
  2
SOLID
 70
     1
 71
     1
 91
        2
 92
        1
 93
        1
 72
     4
 94
        3
 73
     0
 74
     0
 95
       23
 96
       19
 40
0.0
 40
0.0
 40
0.0
 40
0.0
 40
1.0
 40
1.0
 40
1.0
 40
2.0
 40
2.0
 40
2.0
 40
3.0
 40
3.0
 40
3.0
 40
4.0
 40
4.0
 40
4.0
 40
5.0
 40
5.0
 40
5.0
 40
6.0
 40
6.0
 40
6.0
 40
6.0
 10
-3.509666263975305
 20
-0.2359190622372488
 10
-3.509666263975305
 20
-0.2359190622372488
 10
-3.509666263975305
 20
0.1848465982610159
 10
-3.509666263975305
 20
0.1848465982610159
 10
-3.509666263975305
 20
0.6936947375789834
 10
-3.689719873142275
 20
0.9500518287828619
 10
-4.03024818319731
 20
0.9500518287828619
 10
-4.370776493252344
 20
0.9500518287828619
 10
-4.550830102418992
 20
0.6936947375789834
 10
-4.550830102418992
 20
0.1848465982610159
 10
-4.550830102418992
 20
0.1848465982610159
 10
-4.550830102418992
 20
-0.2359190622372488
 10
-4.550830102418992
 20
-0.2359190622372488
 10
-4.550830102418992
 20
-0.7447445931158378
 10
-4.370776493252344
 20
-1.001124292758774
 10
-4.03024818319731
 20
-1.001124292758774
 10
-3.689719873142275
 20
-1.001124292758774
 10
-3.509666263975305
 20
-0.7447445931158378
 10
-3.509666263975305
 20
-0.2359190622372488
 97
        0
 97
        1
330
86
 92
        1
 93
        1
 72
     4
 94
        3
 73
     0
 74
     0
 95
       23
 96
       19
 40
0.0
 40
0.0
 40
0.0
 40
0.0
 40
1.0
 40
1.0
 40
1.0
 40
2.0
 40
2.0
 40
2.0
 40
3.0
 40
3.0
 40
3.0
 40
4.0
 40
4.0
 40
4.0
 40
5.0
 40
5.0
 40
5.0
 40
6.0
 40
6.0
 40
6.0
 40
6.0
 10
-4.03024818319731
 20
-1.494282175326042
 10
-4.70739354333851
 20
-1.494282175326042
 10
-5.116402815494001
 20
-1.02655878677097
 10
-5.116402815494001
 20
-0.2417746479702195
 10
-5.116402815494001
 20
-0.2417746479702195
 10
-5.116402815494001
 20
0.1907247924327234
 10
-5.116402815494001
 20
0.1907247924327234
 10
-5.116402815494001
 20
0.9755089312341157
 10
-4.70739354333851
 20
1.443232319788867
 10
-4.03024818319731
 20
1.443232319788867
 10
-3.353102823055787
 20
1.443232319788867
 10
-2.944093550900296
 20
0.9755089312341157
 10
-2.944093550900296
 20
0.1907247924327234
 10
-2.944093550900296
 20
0.1907247924327234
 10
-2.944093550900296
 20
-0.2417746479702195
 10
-2.944093550900296
 20
-0.2417746479702195
 10
-2.944093550900296
 20
-1.02655878677097
 10
-3.353102823055787
 20
-1.494282175326042
 10
-4.03024818319731
 20
-1.494282175326042
 97
        0
 97
        1
330
87
 75
     2
 76
     1
 98
        1
 10
0.0
 20
0.0
450
        0
451
        0
460
0.0
461
0.0
452
        0
462
0.0
453
        0
470

  0
SPLINE
  5
89
330
79
100
AcDbEntity
  8
Layer 1
100
AcDbSpline
210
0.0
220
0.0
230
1.0
 70
    11
 71
     3
 72
    41
 73
    37
 74
     0
 42
0.0000000001
 43
0.0000000001
 40
0.0
 40
0.0
 40
0.0
 40
0.0
 40
1.0
 40
1.0
 40
1.0
 40
2.0
 40
2.0
 40
2.0
 40
3.0
 40
3.0
 40
3.0
 40
4.0
 40
4.0
 40
4.0
 40
5.0
 40
5.0
 40
5.0
 40
6.0
 40
6.0
 40
6.0
 40
7.0
 40
7.0
 40
7.0
 40
8.0
 40
8.0
 40
8.0
 40
9.0
 40
9.0
 40
9.0
 40
10.0
 40
10.0
 40
10.0
 40
11.0
 40
11.0
 40
11.0
 40
12.0
 40
12.0
 40
12.0
 40
12.0
 10
-2.54277114804691
 20
-1.437534993129943
 30
0.0
 10
-2.54277114804691
 20
-1.437534993129943
 30
0.0
 10
-2.54277114804691
 20
1.386485137592767
 30
0.0
 10
-2.54277114804691
 20
1.386485137592767
 30
0.0
 10
-2.54277114804691
 20
1.386485137592767
 30
0.0
 10
-2.047623722836781
 20
1.386485137592767
 30
0.0
 10
-2.047623722836781
 20
1.386485137592767
 30
0.0
 10
-2.047623722836781
 20
1.386485137592767
 30
0.0
 10
-1.07693038913577
 20
-0.4903318276767038
 30
0.0
 10
-1.07693038913577
 20
-0.4903318276767038
 30
0.0
 10
-1.07693038913577
 20
-0.4903318276767038
 30
0.0
 10
-1.043650766748385
 20
-0.4903318276767038
 30
0.0
 10
-1.043650766748385
 20
-0.4903318276767038
 30
0.0
 10
-1.043650766748385
 20
-0.4903318276767038
 30
0.0
 10
-1.043650766748385
 20
1.386485137592767
 30
0.0
 10
-1.043650766748385
 20
1.386485137592767
 30
0.0
 10
-1.043650766748385
 20
1.386485137592767
 30
0.0
 10
-0.5622266640854738
 20
1.386485137592767
 30
0.0
 10
-0.5622266640854738
 20
1.386485137592767
 30
0.0
 10
-0.5622266640854738
 20
1.386485137592767
 30
0.0
 10
-0.5622266640854738
 20
-1.437534993129943
 30
0.0
 10
-0.5622266640854738
 20
-1.437534993129943
 30
0.0
 10
-0.5622266640854738
 20
-1.437534993129943
 30
0.0
 10
-1.0554071550918
 20
-1.437534993129943
 30
0.0
 10
-1.0554071550918
 20
-1.437534993129943
 30
0.0
 10
-1.0554071550918
 20
-1.437534993129943
 30
0.0
 10
-2.028067422996293
 20
0.4510157520442066
 30
0.0
 10
-2.028067422996293
 20
0.4510157520442066
 30
0.0
 10
-2.028067422996293
 20
0.4510157520442066
 30
0.0
 10
-2.061324436944941
 20
0.4510157520442066
 30
0.0
 10
-2.061324436944941
 20
0.4510157520442066
 30
0.0
 10
-2.061324436944941
 20
0.4510157520442066
 30
0.0
 10
-2.061324436944941
 20
-1.437534993129943
 30
0.0
 10
-2.061324436944941
 20
-1.437534993129943
 30
0.0
 10
-2.061324436944941
 20
-1.437534993129943
 30
0.0
 10
-2.54277114804691
 20
-1.437534993129943
 30
0.0
 10
-2.54277114804691
 20
-1.437534993129943
 30
0.0
  0
HATCH
  5
8A
330
79
100
AcDbEntity
  8
Layer 1
 62
    18
420
        0
440
 33554687
100
AcDbHatch
 10
0.0
 20
0.0
 30
0.0
210
0.0
220
0.0
230
1.0
  2
SOLID
 70
     1
 71
     1
 91
        1
 92
        1
 93
        1
 72
     4
 94
        3
 73
     0
 74
     0
 95
       41
 96
       37
 40
0.0
 40
0.0
 40
0.0
 40
0.0
 40
1.0
 40
1.0
 40
1.0
 40
2.0
 40
2.0
 40
2.0
 40
3.0
 40
3.0
 40
3.0
 40
4.0
 40
4.0
 40
4.0
 40
5.0
 40
5.0
 40
5.0
 40
6.0
 40
6.0
 40
6.0
 40
7.0
 40
7.0
 40
7.0
 40
8.0
 40
8.0
 40
8.0
 40
9.0
 40
9.0
 40
9.0
 40
10.0
 40
10.0
 40
10.0
 40
11.0
 40
11.0
 40
11.0
 40
12.0
 40
12.0
 40
12.0
 40
12.0
 10
-2.54277114804691
 20
-1.437534993129943
 10
-2.54277114804691
 20
-1.437534993129943
 10
-2.54277114804691
 20
1.386485137592767
 10
-2.54277114804691
 20
1.386485137592767
 10
-2.54277114804691
 20
1.386485137592767
 10
-2.047623722836781
 20
1.386485137592767
 10
-2.047623722836781
 20
1.386485137592767
 10
-2.047623722836781
 20
1.386485137592767
 10
-1.07693038913577
 20
-0.4903318276767038
 10
-1.07693038913577
 20
-0.4903318276767038
 10
-1.07693038913577
 20
-0.4903318276767038
 10
-1.043650766748385
 20
-0.4903318276767038
 10
-1.043650766748385
 20
-0.4903318276767038
 10
-1.043650766748385
 20
-0.4903318276767038
 10
-1.043650766748385
 20
1.386485137592767
 10
-1.043650766748385
 20
1.386485137592767
 10
-1.043650766748385
 20
1.386485137592767
 10
-0.5622266640854738
 20
1.386485137592767
 10
-0.5622266640854738
 20
1.386485137592767
 10
-0.5622266640854738
 20
1.386485137592767
 10
-0.5622266640854738
 20
-1.437534993129943
 10
-0.5622266640854738
 20
-1.437534993129943
 10
-0.5622266640854738
 20
-1.437534993129943
 10
-1.0554071550918
 20
-1.437534993129943
 10
-1.0554071550918
 20
-1.437534993129943
 10
-1.0554071550918
 20
-1.437534993129943
 10
-2.028067422996293
 20
0.4510157520442066
 10
-2.028067422996293
 20
0.4510157520442066
 10
-2.028067422996293
 20
0.4510157520442066
 10
-2.061324436944941
 20
0.4510157520442066
 10
-2.061324436944941
 20
0.4510157520442066
 10
-2.061324436944941
 20
0.4510157520442066
 10
-2.061324436944941
 20
-1.437534993129943
 10
-2.061324436944941
 20
-1.437534993129943
 10
-2.061324436944941
 20
-1.437534993129943
 10
-2.54277114804691
 20
-1.437534993129943
 10
-2.54277114804691
 20
-1.437534993129943
 97
        0
 97
        1
330
89
 75
     2
 76
     1
 98
        1
 10
0.0
 20
0.0
450
        0
451
        0
460
0.0
461
0.0
452
        0
462
0.0
453
        0
470

  0
ENDBLK
  5
7C
330
79
100
AcDbEntity
  8
0
100
AcDbBlockEnd
  0
BLOCK
  5
8D
330
8B
100
AcDbEntity
  8
0
100
AcDbBlockBegin
  2
Block_1
 70
     0
 10
0.0
 20
0.0
 30
0.0
  3
Block_1
  1

  0
SPLINE
  5
8F
330
8B
100
AcDbEntity
  8
Layer 1
100
AcDbSpline
210
0.0
220
0.0
230
1.0
 70
     9
 71
     3
 72
    29
 73
    25
 74
     0
 42
0.0000000001
 43
0.0000000001
 40
0.0
 40
0.0
 40
0.0
 40
0.0
 40
1.0
 40
1.0
 40
1.0
 40
2.0
 40
2.0
 40
2.0
 40
3.0
 40
3.0
 40
3.0
 40
4.0
 40
4.0
 40
4.0
 40
5.0
 40
5.0
 40
5.0
 40
6.0
 40
6.0
 40
6.0
 40
7.0
 40
7.0
 40
7.0
 40
8.0
 40
8.0
 40
8.0
 40
8.0
 10
8.198272194400329
 20
0.3665280150452792
 30
0.0
 10
8.198272194400329
 20
0.4804293313414813
 30
0.0
 10
8.162460426831414
 20
0.5704109190468504
 30
0.0
 10
8.090882108571058
 20
0.6364501697220082
 30
0.0
 10
8.019303790311342
 20
0.7024668119581082
 30
0.0
 10
7.921997068330075
 20
0.7354977415155368
 30
0.0
 10
7.799052376385093
 20
0.7354977415155368
 30
0.0
 10
7.799052376385093
 20
0.7354977415155368
 30
0.0
 10
7.366552935982471
 20
0.7354977415155368
 30
0.0
 10
7.366552935982471
 20
0.7354977415155368
 30
0.0
 10
7.366552935982471
 20
0.7354977415155368
 30
0.0
 10
7.366552935982471
 20
-0.0069860076887474
 30
0.0
 10
7.366552935982471
 20
-0.0069860076887474
 30
0.0
 10
7.366552935982471
 20
-0.0069860076887474
 30
0.0
 10
7.806603595051889
 20
-0.0069860076887474
 30
0.0
 10
7.806603595051889
 20
-0.0069860076887474
 30
0.0
 10
7.930588275196417
 20
-0.0069860076887474
 30
0.0
 10
8.026855008977818
 20
0.0255249277690689
 30
0.0
 10
8.095403796395448
 20
0.090546798683418
 30
0.0
 10
8.163952583813399
 20
0.1555686695980879
 30
0.0
 10
8.198272194400329
 20
0.2465450286248872
 30
0.0
 10
8.198272194400329
 20
0.3634984842028735
 30
0.0
 10
8.198272194400329
 20
0.3634984842028735
 30
0.0
 10
8.198272194400329
 20
0.3665280150452792
 30
0.0
 10
8.198272194400329
 20
0.3665280150452792
 30
0.0
  0
HATCH
  5
90
330
8B
100
AcDbEntity
  8
Layer 1
 62
    18
420
        0
440
 33554687
100
AcDbHatch
 10
0.0
 20
0.0
 30
0.0
210
0.0
220
0.0
230
1.0
  2
SOLID
 70
     1
 71
     1
 91
        1
 92
        1
 93
        1
 72
     4
 94
        3
 73
     0
 74
     0
 95
       29
 96
       25
 40
0.0
 40
0.0
 40
0.0
 40
0.0
 40
1.0
 40
1.0
 40
1.0
 40
2.0
 40
2.0
 40
2.0
 40
3.0
 40
3.0
 40
3.0
 40
4.0
 40
4.0
 40
4.0
 40
5.0
 40
5.0
 40
5.0
 40
6.0
 40
6.0
 40
6.0
 40
7.0
 40
7.0
 40
7.0
 40
8.0
 40
8.0
 40
8.0
 40
8.0
 10
8.198272194400329
 20
0.3665280150452792
 10
8.198272194400329
 20
0.4804293313414813
 10
8.162460426831414
 20
0.5704109190468504
 10
8.090882108571058
 20
0.6364501697220082
 10
8.019303790311342
 20
0.7024668119581082
 10
7.921997068330075
 20
0.7354977415155368
 10
7.799052376385093
 20
0.7354977415155368
 10
7.799052376385093
 20
0.7354977415155368
 10
7.366552935982471
 20
0.7354977415155368
 10
7.366552935982471
 20
0.7354977415155368
 10
7.366552935982471
 20
0.7354977415155368
 10
7.366552935982471
 20
-0.0069860076887474
 10
7.366552935982471
 20
-0.0069860076887474
 10
7.366552935982471
 20
-0.0069860076887474
 10
7.806603595051889
 20
-0.0069860076887474
 10
7.806603595051889
 20
-0.0069860076887474
 10
7.930588275196417
 20
-0.0069860076887474
 10
8.026855008977818
 20
0.0255249277690689
 10
8.095403796395448
 20
0.090546798683418
 10
8.163952583813399
 20
0.1555686695980879
 10
8.198272194400329
 20
0.2465450286248872
 10
8.198272194400329
 20
0.3634984842028735
 10
8.198272194400329
 20
0.3634984842028735
 10
8.198272194400329
 20
0.3665280150452792
 10
8.198272194400329
 20
0.3665280150452792
 97
        0
 97
        1
330
8F
 75
     2
 76
     1
 98
        1
 10
0.0
 20
0.0
450
        0
451
        0
460
0.0
461
0.0
452
        0
462
0.0
453
        0
470

  0
SPLINE
  5
91
330
8B
100
AcDbEntity
  8
Layer 1
100
AcDbSpline
210
0.0
220
0.0
230
1.0
 70
     9
 71
     3
 72
    29
 73
    25
 74
     0
 42
0.0000000001
 43
0.0000000001
 40
0.0
 40
0.0
 40
0.0
 40
0.0
 40
1.0
 40
1.0
 40
1.0
 40
2.0
 40
2.0
 40
2.0
 40
3.0
 40
3.0
 40
3.0
 40
4.0
 40
4.0
 40
4.0
 40
5.0
 40
5.0
 40
5.0
 40
6.0
 40
6.0
 40
6.0
 40
7.0
 40
7.0
 40
7.0
 40
8.0
 40
8.0
 40
8.0
 40
8.0
 10
5.852827503011228
 20
0.732490819112189
 30
0.0
 10
5.852827503011228
 20
0.732490819112189
 30
0.0
 10
5.498960213874563
 20
0.732490819112189
 30
0.0
 10
5.498960213874563
 20
0.732490819112189
 30
0.0
 10
5.498960213874563
 20
0.732490819112189
 30
0.0
 10
5.498960213874563
 20
-0.0961989084635852
 30
0.0
 10
5.498960213874563
 20
-0.0961989084635852
 30
0.0
 10
5.498960213874563
 20
-0.0961989084635852
 30
0.0
 10
5.852827503011228
 20
-0.0961989084635852
 30
0.0
 10
5.852827503011228
 20
-0.0961989084635852
 30
0.0
 10
5.993949380010004
 20
-0.0961989084635852
 30
0.0
 10
6.103057707213122
 20
-0.0601836649425081
 30
0.0
 10
6.180197701497094
 20
0.0119146474174613
 30
0.0
 10
6.257337695780745
 20
0.0839903513380519
 30
0.0
 10
6.295862476044937
 20
0.1855474598740531
 30
0.0
 10
6.295862476044937
 20
0.3166311899029386
 30
0.0
 10
6.295862476044937
 20
0.3166311899029386
 30
0.0
 10
6.295862476044937
 20
0.3196381123062865
 30
0.0
 10
6.295862476044937
 20
0.3196381123062865
 30
0.0
 10
6.295862476044937
 20
0.4517166136566022
 30
0.0
 10
6.257337695780745
 20
0.5535224150228806
 30
0.0
 10
6.180197701497094
 20
0.6251233417219745
 30
0.0
 10
6.103057707213122
 20
0.6966790515429527
 30
0.0
 10
5.993949380010004
 20
0.732490819112189
 30
0.0
 10
5.852827503011228
 20
0.732490819112189
 30
0.0
  0
HATCH
  5
92
330
8B
100
AcDbEntity
  8
Layer 1
 62
    18
420
        0
440
 33554687
100
AcDbHatch
 10
0.0
 20
0.0
 30
0.0
210
0.0
220
0.0
230
1.0
  2
SOLID
 70
     1
 71
     1
 91
        1
 92
        1
 93
        1
 72
     4
 94
        3
 73
     0
 74
     0
 95
       29
 96
       25
 40
0.0
 40
0.0
 40
0.0
 40
0.0
 40
1.0
 40
1.0
 40
1.0
 40
2.0
 40
2.0
 40
2.0
 40
3.0
 40
3.0
 40
3.0
 40
4.0
 40
4.0
 40
4.0
 40
5.0
 40
5.0
 40
5.0
 40
6.0
 40
6.0
 40
6.0
 40
7.0
 40
7.0
 40
7.0
 40
8.0
 40
8.0
 40
8.0
 40
8.0
 10
5.852827503011228
 20
0.732490819112189
 10
5.852827503011228
 20
0.732490819112189
 10
5.498960213874563
 20
0.732490819112189
 10
5.498960213874563
 20
0.732490819112189
 10
5.498960213874563
 20
0.732490819112189
 10
5.498960213874563
 20
-0.0961989084635852
 10
5.498960213874563
 20
-0.0961989084635852
 10
5.498960213874563
 20
-0.0961989084635852
 10
5.852827503011228
 20
-0.0961989084635852
 10
5.852827503011228
 20
-0.0961989084635852
 10
5.993949380010004
 20
-0.0961989084635852
 10
6.103057707213122
 20
-0.0601836649425081
 10
6.180197701497094
 20
0.0119146474174613
 10
6.257337695780745
 20
0.0839903513380519
 10
6.295862476044937
 20
0.1855474598740531
 10
6.295862476044937
 20
0.3166311899029386
 10
6.295862476044937
 20
0.3166311899029386
 10
6.295862476044937
 20
0.3196381123062865
 10
6.295862476044937
 20
0.3196381123062865
 10
6.295862476044937
 20
0.4517166136566022
 10
6.257337695780745
 20
0.5535224150228806
 10
6.180197701497094
 20
0.6251233417219745
 10
6.103057707213122
 20
0.6966790515429527
 10
5.993949380010004
 20
0.732490819112189
 10
5.852827503011228
 20
0.732490819112189
 97
        0
 97
        1
330
91
 75
     2
 76
     1
 98
        1
 10
0.0
 20
0.0
450
        0
451
        0
460
0.0
461
0.0
452
        0
462
0.0
453
        0
470

  0
SPLINE
  5
93
330
8B
100
AcDbEntity
  8
Layer 1
100
AcDbSpline
210
0.0
220
0.0
230
1.0
 70
     9
 71
     3
 72
   140
 73
   136
 74
     0
 42
0.0000000001
 43
0.0000000001
 40
0.0
 40
0.0
 40
0.0
 40
0.0
 40
1.0
 40
1.0
 40
1.0
 40
2.0
 40
2.0
 40
2.0
 40
3.0
 40
3.0
 40
3.0
 40
4.0
 40
4.0
 40
4.0
 40
5.0
 40
5.0
 40
5.0
 40
6.0
 40
6.0
 40
6.0
 40
7.0
 40
7.0
 40
7.0
 40
8.0
 40
8.0
 40
8.0
 40
9.0
 40
9.0
 40
9.0
 40
10.0
 40
10.0
 40
10.0
 40
11.0
 40
11.0
 40
11.0
 40
12.0
 40
12.0
 40
12.0
 40
13.0
 40
13.0
 40
13.0
 40
14.0
 40
14.0
 40
14.0
 40
15.0
 40
15.0
 40
15.0
 40
16.0
 40
16.0
 40
16.0
 40
17.0
 40
17.0
 40
17.0
 40
18.0
 40
18.0
 40
18.0
 40
19.0
 40
19.0
 40
19.0
 40
20.0
 40
20.0
 40
20.0
 40
21.0
 40
21.0
 40
21.0
 40
22.0
 40
22.0
 40
22.0
 40
23.0
 40
23.0
 40
23.0
 40
24.0
 40
24.0
 40
24.0
 40
25.0
 40
25.0
 40
25.0
 40
26.0
 40
26.0
 40
26.0
 40
27.0
 40
27.0
 40
27.0
 40
28.0
 40
28.0
 40
28.0
 40
29.0
 40
29.0
 40
29.0
 40
30.0
 40
30.0
 40
30.0
 40
31.0
 40
31.0
 40
31.0
 40
32.0
 40
32.0
 40
32.0
 40
33.0
 40
33.0
 40
33.0
 40
34.0
 40
34.0
 40
34.0
 40
35.0
 40
35.0
 40
35.0
 40
36.0
 40
36.0
 40
36.0
 40
37.0
 40
37.0
 40
37.0
 40
38.0
 40
38.0
 40
38.0
 40
39.0
 40
39.0
 40
39.0
 40
40.0
 40
40.0
 40
40.0
 40
41.0
 40
41.0
 40
41.0
 40
42.0
 40
42.0
 40
42.0
 40
43.0
 40
43.0
 40
43.0
 40
44.0
 40
44.0
 40
44.0
 40
45.0
 40
45.0
 40
45.0
 40
45.0
 10
14.19416590017668
 20
-0.5045073190060393
 30
0.0
 10
14.19416590017668
 20
-0.6396153511987607
 30
0.0
 10
14.1601628077372
 20
-0.7570435839982438
 30
0.0
 10
14.09211140598013
 20
-0.856859842721662
 30
0.0
 10
14.02406000422305
 20
-0.9566534930060226
 30
0.0
 10
13.92625589658155
 20
-1.033770878850936
 30
0.0
 10
13.79874429993374
 20
-1.088212000256725
 30
0.0
 10
13.67118748640782
 20
-1.142653121662194
 30
0.0
 10
13.51871617296867
 20
-1.169873682365088
 30
0.0
 10
13.3412851427401
 20
-1.169873682365088
 30
0.0
 10
13.17393747635922
 20
-1.169873682365088
 30
0.0
 10
13.02775130899706
 20
-1.144665272744111
 30
0.0
 10
12.90277185753078
 20
-1.094271061941216
 30
0.0
 10
12.77774718918639
 20
-1.043876851138642
 30
0.0
 10
12.67917439461468
 20
-0.9717785387786728
 30
0.0
 10
12.60709869069376
 20
-0.8780213417397451
 30
0.0
 10
12.53502298677285
 20
-0.7842641447011383
 30
0.0
 10
12.49446344698833
 20
-0.6723523710474756
 30
0.0
 10
12.48537485446175
 20
-0.5423086292181357
 30
0.0
 10
12.48537485446175
 20
-0.5423086292181357
 30
0.0
 10
12.48388269747912
 20
-0.5196323647786895
 30
0.0
 10
12.48388269747912
 20
-0.5196323647786895
 30
0.0
 10
12.48388269747912
 20
-0.5196323647786895
 30
0.0
 10
12.85588195479179
 20
-0.5196323647786895
 30
0.0
 10
12.85588195479179
 20
-0.5196323647786895
 30
0.0
 10
12.85588195479179
 20
-0.5196323647786895
 30
0.0
 10
12.85891148563419
 20
-0.5377643329543666
 30
0.0
 10
12.85891148563419
 20
-0.5377643329543666
 30
0.0
 10
12.86998962080395
 20
-0.6002992755659427
 30
0.0
 10
12.89721018150652
 20
-0.6542204028717985
 30
0.0
 10
12.94057316774256
 20
-0.6995729317503701
 30
0.0
 10
12.98389093710047
 20
-0.7449480690679995
 30
0.0
 10
13.04113550495713
 20
-0.7799911497070252
 30
0.0
 10
13.11217122067817
 20
-0.8046795652283893
 30
0.0
 10
13.18325215327765
 20
-0.8293905891884904
 30
0.0
 10
13.26419036533424
 20
-0.8417347969490121
 30
0.0
 10
13.35489542309171
 20
-0.8417347969490121
 30
0.0
 10
13.4466404690484
 20
-0.8417347969490121
 30
0.0
 10
13.52599609036645
 20
-0.8291418963582131
 30
0.0
 10
13.59305272080209
 20
-0.8039334867372364
 30
0.0
 10
13.66010935123806
 20
-0.7787250771162601
 30
0.0
 10
13.71179224307013
 20
-0.7426872251558043
 30
0.0
 10
13.74805617942245
 20
-0.6957973224168115
 30
0.0
 10
13.7843653326516
 20
-0.6489300281171974
 30
0.0
 10
13.80249730082792
 20
-0.5942402138811313
 30
0.0
 10
13.80249730082792
 20
-0.5317278797089338
 30
0.0
 10
13.80249730082792
 20
-0.5317278797089338
 30
0.0
 10
13.80249730082792
 20
-0.5302131142878914
 30
0.0
 10
13.80249730082792
 20
-0.5302131142878914
 30
0.0
 10
13.80249730082792
 20
-0.448551432179208
 30
0.0
 10
13.77202112489172
 20
-0.3840495553644713
 30
0.0
 10
13.71102355614057
 20
-0.3366396585255453
 30
0.0
 10
13.65002598738941
 20
-0.2892749785650557
 30
0.0
 10
13.54896626451429
 20
-0.2504562885927924
 30
0.0
 10
13.40784438751519
 20
-0.2202061970474922
 30
0.0
 10
13.40784438751519
 20
-0.2202061970474922
 30
0.0
 10
13.17344009069866
 20
-0.1718241373265148
 30
0.0
 10
13.17344009069866
 20
-0.1718241373265148
 30
0.0
 10
12.95969990723998
 20
-0.1274663797693732
 30
0.0
 10
12.79940607386534
 20
-0.0546219889182512
 30
0.0
 10
12.69255859057474
 20
0.046686426786831
 30
0.0
 10
12.58566589040602
 20
0.1480174509316126
 30
0.0
 10
12.5322647572001
 20
0.2798020425732145
 30
0.0
 10
12.5322647572001
 20
0.4421306354688304
 30
0.0
 10
12.5322647572001
 20
0.4421306354688304
 30
0.0
 10
12.5322647572001
 20
0.4436454008901936
 30
0.0
 10
12.5322647572001
 20
0.4436454008901936
 30
0.0
 10
12.53325952852153
 20
0.5726943713981035
 30
0.0
 10
12.56830260916056
 20
0.6853522235429188
 30
0.0
 10
12.63734878223906
 20
0.7816189573243192
 30
0.0
 10
12.70639495531725
 20
0.8778856911053983
 30
0.0
 10
12.80193821904688
 20
0.9530135343077734
 30
0.0
 10
12.92393335654886
 20
1.006957270052686
 30
0.0
 10
13.04588327717274
 20
1.060878397358542
 30
0.0
 10
13.18501561152897
 20
1.087850265231159
 30
0.0
 10
13.3412851427401
 20
1.087850265231159
 30
0.0
 10
13.49954421659376
 20
1.087850265231159
 30
0.0
 10
13.63817916528976
 20
1.061624475849695
 30
0.0
 10
13.75714477194935
 20
1.009218113964882
 30
0.0
 10
13.87611037860893
 20
0.9567891436410111
 30
0.0
 10
13.96961888281758
 20
0.8836960599599326
 30
0.0
 10
14.03767028457466
 20
0.789938862921005
 30
0.0
 10
14.10572168633173
 20
0.6961816658823981
 30
0.0
 10
14.14325169527417
 20
0.5872994230711412
 30
0.0
 10
14.1503055282801
 20
0.4633147429262919
 30
0.0
 10
14.1503055282801
 20
0.4633147429262919
 30
0.0
 10
14.15184290214052
 20
0.4376089476444399
 30
0.0
 10
14.15184290214052
 20
0.4376089476444399
 30
0.0
 10
14.15184290214052
 20
0.4376089476444399
 30
0.0
 10
13.77984364482721
 20
0.4376089476444399
 30
0.0
 10
13.77984364482721
 20
0.4376089476444399
 30
0.0
 10
13.77984364482721
 20
0.4376089476444399
 30
0.0
 10
13.77681411398545
 20
0.4572556812414804
 30
0.0
 10
13.77681411398545
 20
0.4572556812414804
 30
0.0
 10
13.76772552145855
 20
0.5207627867351079
 30
0.0
 10
13.74403187725862
 20
0.5749552153102986
 30
0.0
 10
13.70573318138596
 20
0.6198329669673735
 30
0.0
 10
13.6673892686352
 20
0.6646655017463328
 30
0.0
 10
13.61701766627136
 20
0.6992111967248038
 30
0.0
 10
13.55452794053854
 20
0.7234022265852925
 30
0.0
 10
13.49199299792697
 20
0.7475932564457813
 30
0.0
 10
13.41991729400573
 20
0.7597113798150833
 30
0.0
 10
13.33825561189769
 20
0.7597113798150833
 30
0.0
 10
13.25356439894692
 20
0.7597113798150833
 30
0.0
 10
13.18022262243525
 20
0.7473445636151831
 30
0.0
 10
13.11823028236298
 20
0.7226561480941398
 30
0.0
 10
13.05623794229072
 20
0.6979451241337178
 30
0.0
 10
13.0083532682303
 20
0.6634220375946254
 30
0.0
 10
12.97457626018204
 20
0.6190642800374837
 30
0.0
 10
12.94079925213378
 20
0.5746839140409636
 30
0.0
 10
12.92393335654886
 20
0.5232723234775804
 30
0.0
 10
12.92393335654886
 20
0.4648295083473343
 30
0.0
 10
12.92393335654886
 20
0.4648295083473343
 30
0.0
 10
12.92393335654886
 20
0.4633147429262919
 30
0.0
 10
12.92393335654886
 20
0.4633147429262919
 30
0.0
 10
12.92393335654886
 20
0.3866721343028744
 30
0.0
 10
12.95490691814594
 20
0.324431101400012
 30
0.0
 10
13.01694447509664
 20
0.2765464273399101
 30
0.0
 10
13.0789368151689
 20
0.2286617532798081
 30
0.0
 10
13.17542963334152
 20
0.1911091358979891
 30
0.0
 10
13.30651336337073
 20
0.1638885751954155
 30
0.0
 10
13.30651336337073
 20
0.1638885751954155
 30
0.0
 10
13.54091766018693
 20
0.1155065154744381
 30
0.0
 10
13.54091766018693
 20
0.1155065154744381
 30
0.0
 10
13.69311767235611
 20
0.0842390441683292
 30
0.0
 10
13.81710235250064
 20
0.0418934376931055
 30
0.0
 10
13.9129169174996
 20
-0.0115303039521956
 30
0.0
 10
14.00868626562012
 20
-0.0649766540365544
 30
0.0
 10
14.07949589695027
 20
-0.1320106760331422
 30
0.0
 10
14.12539102836783
 20
-0.212654978380696
 30
0.0
 10
14.17124094290696
 20
-0.2933218891682702
 30
0.0
 10
14.19416590017668
 20
-0.3901086170489619
 30
0.0
 10
14.19416590017668
 20
-0.5029925535849969
 30
0.0
 10
14.19416590017668
 20
-0.5029925535849969
 30
0.0
 10
14.19416590017668
 20
-0.5045073190060393
 30
0.0
 10
14.19416590017668
 20
-0.5045073190060393
 30
0.0
  0
SPLINE
  5
94
330
8B
100
AcDbEntity
  8
Layer 1
100
AcDbSpline
210
0.0
220
0.0
230
1.0
 70
     9
 71
     3
 72
   140
 73
   136
 74
     0
 42
0.0000000001
 43
0.0000000001
 40
0.0
 40
0.0
 40
0.0
 40
0.0
 40
1.0
 40
1.0
 40
1.0
 40
2.0
 40
2.0
 40
2.0
 40
3.0
 40
3.0
 40
3.0
 40
4.0
 40
4.0
 40
4.0
 40
5.0
 40
5.0
 40
5.0
 40
6.0
 40
6.0
 40
6.0
 40
7.0
 40
7.0
 40
7.0
 40
8.0
 40
8.0
 40
8.0
 40
9.0
 40
9.0
 40
9.0
 40
10.0
 40
10.0
 40
10.0
 40
11.0
 40
11.0
 40
11.0
 40
12.0
 40
12.0
 40
12.0
 40
13.0
 40
13.0
 40
13.0
 40
14.0
 40
14.0
 40
14.0
 40
15.0
 40
15.0
 40
15.0
 40
16.0
 40
16.0
 40
16.0
 40
17.0
 40
17.0
 40
17.0
 40
18.0
 40
18.0
 40
18.0
 40
19.0
 40
19.0
 40
19.0
 40
20.0
 40
20.0
 40
20.0
 40
21.0
 40
21.0
 40
21.0
 40
22.0
 40
22.0
 40
22.0
 40
23.0
 40
23.0
 40
23.0
 40
24.0
 40
24.0
 40
24.0
 40
25.0
 40
25.0
 40
25.0
 40
26.0
 40
26.0
 40
26.0
 40
27.0
 40
27.0
 40
27.0
 40
28.0
 40
28.0
 40
28.0
 40
29.0
 40
29.0
 40
29.0
 40
30.0
 40
30.0
 40
30.0
 40
31.0
 40
31.0
 40
31.0
 40
32.0
 40
32.0
 40
32.0
 40
33.0
 40
33.0
 40
33.0
 40
34.0
 40
34.0
 40
34.0
 40
35.0
 40
35.0
 40
35.0
 40
36.0
 40
36.0
 40
36.0
 40
37.0
 40
37.0
 40
37.0
 40
38.0
 40
38.0
 40
38.0
 40
39.0
 40
39.0
 40
39.0
 40
40.0
 40
40.0
 40
40.0
 40
41.0
 40
41.0
 40
41.0
 40
42.0
 40
42.0
 40
42.0
 40
43.0
 40
43.0
 40
43.0
 40
44.0
 40
44.0
 40
44.0
 40
45.0
 40
45.0
 40
45.0
 40
45.0
 10
12.28271280617187
 20
-0.5045073190060393
 30
0.0
 10
12.28271280617187
 20
-0.6396153511987607
 30
0.0
 10
12.24870971373271
 20
-0.7570435839982438
 30
0.0
 10
12.18065831197563
 20
-0.856859842721662
 30
0.0
 10
12.11260691021856
 20
-0.9566534930060226
 30
0.0
 10
12.01480280257674
 20
-1.033770878850936
 30
0.0
 10
11.88729120592892
 20
-1.088212000256725
 30
0.0
 10
11.759734392403
 20
-1.142653121662194
 30
0.0
 10
11.60726307896513
 20
-1.169873682365088
 30
0.0
 10
11.42983204873592
 20
-1.169873682365088
 30
0.0
 10
11.26248438235536
 20
-1.169873682365088
 30
0.0
 10
11.11629821499224
 20
-1.144665272744111
 30
0.0
 10
10.99131876352596
 20
-1.094271061941216
 30
0.0
 10
10.86629409518157
 20
-1.043876851138642
 30
0.0
 10
10.76772130060986
 20
-0.9717785387786728
 30
0.0
 10
10.69564559668959
 20
-0.8780213417397451
 30
0.0
 10
10.623569892769
 20
-0.7842641447011383
 30
0.0
 10
10.58301035298351
 20
-0.6723523710474756
 30
0.0
 10
10.57392176045693
 20
-0.5423086292181357
 30
0.0
 10
10.57392176045693
 20
-0.5423086292181357
 30
0.0
 10
10.57242960347495
 20
-0.5196323647786895
 30
0.0
 10
10.57242960347495
 20
-0.5196323647786895
 30
0.0
 10
10.57242960347495
 20
-0.5196323647786895
 30
0.0
 10
10.94442886078761
 20
-0.5196323647786895
 30
0.0
 10
10.94442886078761
 20
-0.5196323647786895
 30
0.0
 10
10.94442886078761
 20
-0.5196323647786895
 30
0.0
 10
10.94745839162938
 20
-0.5377643329543666
 30
0.0
 10
10.94745839162938
 20
-0.5377643329543666
 30
0.0
 10
10.95853652679913
 20
-0.6002992755659427
 30
0.0
 10
10.98575708750267
 20
-0.6542204028717985
 30
0.0
 10
11.02912007373806
 20
-0.6995729317503701
 30
0.0
 10
11.07243784309566
 20
-0.7449480690679995
 30
0.0
 10
11.12968241095231
 20
-0.7799911497070252
 30
0.0
 10
11.20071812667368
 20
-0.8046795652283893
 30
0.0
 10
11.27179905927348
 20
-0.8293905891884904
 30
0.0
 10
11.35273727133007
 20
-0.8417347969490121
 30
0.0
 10
11.44344232908689
 20
-0.8417347969490121
 30
0.0
 10
11.53518737504422
 20
-0.8417347969490121
 30
0.0
 10
11.61454299636227
 20
-0.8291418963582131
 30
0.0
 10
11.6815996267976
 20
-0.8039334867372364
 30
0.0
 10
11.74865625723324
 20
-0.7787250771162601
 30
0.0
 10
11.8003391490666
 20
-0.7426872251558043
 30
0.0
 10
11.83660308541764
 20
-0.6957973224168115
 30
0.0
 10
11.87291223864807
 20
-0.6489300281171974
 30
0.0
 10
11.89104420682342
 20
-0.5942402138811313
 30
0.0
 10
11.89104420682342
 20
-0.5317278797089338
 30
0.0
 10
11.89104420682342
 20
-0.5317278797089338
 30
0.0
 10
11.89104420682342
 20
-0.5302131142878914
 30
0.0
 10
11.89104420682342
 20
-0.5302131142878914
 30
0.0
 10
11.89104420682342
 20
-0.448551432179208
 30
0.0
 10
11.86056803088691
 20
-0.3840495553644713
 30
0.0
 10
11.79957046213575
 20
-0.3366396585255453
 30
0.0
 10
11.73857289338491
 20
-0.2892749785650557
 30
0.0
 10
11.63751317050979
 20
-0.2504562885927924
 30
0.0
 10
11.49639129351037
 20
-0.2202061970474922
 30
0.0
 10
11.49639129351037
 20
-0.2202061970474922
 30
0.0
 10
11.26198699669417
 20
-0.1718241373265148
 30
0.0
 10
11.26198699669417
 20
-0.1718241373265148
 30
0.0
 10
11.04824681323517
 20
-0.1274663797693732
 30
0.0
 10
10.88795297986085
 20
-0.0546219889182512
 30
0.0
 10
10.78110549657025
 20
0.046686426786831
 30
0.0
 10
10.67421279640217
 20
0.1480174509316126
 30
0.0
 10
10.62081166319593
 20
0.2798020425732145
 30
0.0
 10
10.62081166319593
 20
0.4421306354688304
 30
0.0
 10
10.62081166319593
 20
0.4421306354688304
 30
0.0
 10
10.62081166319593
 20
0.4436454008901936
 30
0.0
 10
10.62081166319593
 20
0.4436454008901936
 30
0.0
 10
10.62180643451736
 20
0.5726943713981035
 30
0.0
 10
10.65684951515638
 20
0.6853522235429188
 30
0.0
 10
10.72589568823425
 20
0.7816189573243192
 30
0.0
 10
10.7949418613134
 20
0.8778856911053983
 30
0.0
 10
10.89048512504206
 20
0.9530135343077734
 30
0.0
 10
11.01248026254469
 20
1.006957270052686
 30
0.0
 10
11.13443018316792
 20
1.060878397358542
 30
0.0
 10
11.27356251752512
 20
1.087850265231159
 30
0.0
 10
11.42983204873592
 20
1.087850265231159
 30
0.0
 10
11.58809112258959
 20
1.087850265231159
 30
0.0
 10
11.72672607128495
 20
1.061624475849695
 30
0.0
 10
11.84569167794453
 20
1.009218113964882
 30
0.0
 10
11.96465728460444
 20
0.9567891436410111
 30
0.0
 10
12.05816578881277
 20
0.8836960599599326
 30
0.0
 10
12.12621719056984
 20
0.789938862921005
 30
0.0
 10
12.19426859232692
 20
0.6961816658823981
 30
0.0
 10
12.23179860126936
 20
0.5872994230711412
 30
0.0
 10
12.23885243427528
 20
0.4633147429262919
 30
0.0
 10
12.23885243427528
 20
0.4633147429262919
 30
0.0
 10
12.2403898081357
 20
0.4376089476444399
 30
0.0
 10
12.2403898081357
 20
0.4376089476444399
 30
0.0
 10
12.2403898081357
 20
0.4376089476444399
 30
0.0
 10
11.86839055082368
 20
0.4376089476444399
 30
0.0
 10
11.86839055082368
 20
0.4376089476444399
 30
0.0
 10
11.86839055082368
 20
0.4376089476444399
 30
0.0
 10
11.86536101998063
 20
0.4572556812414804
 30
0.0
 10
11.86536101998063
 20
0.4572556812414804
 30
0.0
 10
11.85627242745374
 20
0.5207627867351079
 30
0.0
 10
11.8325787832538
 20
0.5749552153102986
 30
0.0
 10
11.79428008738179
 20
0.6198329669673735
 30
0.0
 10
11.75593617463038
 20
0.6646655017463328
 30
0.0
 10
11.70556457226687
 20
0.6992111967248038
 30
0.0
 10
11.64307484653373
 20
0.7234022265852925
 30
0.0
 10
11.58053990392247
 20
0.7475932564457813
 30
0.0
 10
11.5084642000022
 20
0.7597113798150833
 30
0.0
 10
11.4268025178932
 20
0.7597113798150833
 30
0.0
 10
11.34211130494275
 20
0.7597113798150833
 30
0.0
 10
11.26876952843075
 20
0.7473445636151831
 30
0.0
 10
11.20677718835817
 20
0.7226561480941398
 30
0.0
 10
11.1447848482859
 20
0.6979451241337178
 30
0.0
 10
11.09690017422548
 20
0.6634220375946254
 30
0.0
 10
11.06312316617786
 20
0.6190642800374837
 30
0.0
 10
11.02934615812928
 20
0.5746839140409636
 30
0.0
 10
11.01248026254469
 20
0.5232723234775804
 30
0.0
 10
11.01248026254469
 20
0.4648295083473343
 30
0.0
 10
11.01248026254469
 20
0.4648295083473343
 30
0.0
 10
11.01248026254469
 20
0.4633147429262919
 30
0.0
 10
11.01248026254469
 20
0.4633147429262919
 30
0.0
 10
11.01248026254469
 20
0.3866721343028744
 30
0.0
 10
11.04345382414176
 20
0.324431101400012
 30
0.0
 10
11.10549138109182
 20
0.2765464273399101
 30
0.0
 10
11.16748372116441
 20
0.2286617532798081
 30
0.0
 10
11.26397653933671
 20
0.1911091358979891
 30
0.0
 10
11.39506026936591
 20
0.1638885751954155
 30
0.0
 10
11.39506026936591
 20
0.1638885751954155
 30
0.0
 10
11.62946456618276
 20
0.1155065154744381
 30
0.0
 10
11.62946456618276
 20
0.1155065154744381
 30
0.0
 10
11.78166457835129
 20
0.0842390441683292
 30
0.0
 10
11.90564925849614
 20
0.0418934376931055
 30
0.0
 10
12.00146382349478
 20
-0.0115303039521956
 30
0.0
 10
12.09723317161563
 20
-0.0649766540365544
 30
0.0
 10
12.16804280294545
 20
-0.1320106760331422
 30
0.0
 10
12.21393793436302
 20
-0.212654978380696
 30
0.0
 10
12.25978784890246
 20
-0.2933218891682702
 30
0.0
 10
12.28271280617187
 20
-0.3901086170489619
 30
0.0
 10
12.28271280617187
 20
-0.5029925535849969
 30
0.0
 10
12.28271280617187
 20
-0.5029925535849969
 30
0.0
 10
12.28271280617187
 20
-0.5045073190060393
 30
0.0
 10
12.28271280617187
 20
-0.5045073190060393
 30
0.0
  0
SPLINE
  5
95
330
8B
100
AcDbEntity
  8
Layer 1
100
AcDbSpline
210
0.0
220
0.0
230
1.0
 70
    11
 71
     3
 72
    41
 73
    37
 74
     0
 42
0.0000000001
 43
0.0000000001
 40
0.0
 40
0.0
 40
0.0
 40
0.0
 40
1.0
 40
1.0
 40
1.0
 40
2.0
 40
2.0
 40
2.0
 40
3.0
 40
3.0
 40
3.0
 40
4.0
 40
4.0
 40
4.0
 40
5.0
 40
5.0
 40
5.0
 40
6.0
 40
6.0
 40
6.0
 40
7.0
 40
7.0
 40
7.0
 40
8.0
 40
8.0
 40
8.0
 40
9.0
 40
9.0
 40
9.0
 40
10.0
 40
10.0
 40
10.0
 40
11.0
 40
11.0
 40
11.0
 40
12.0
 40
12.0
 40
12.0
 40
12.0
 10
10.32446024318557
 20
0.7218874611639292
 30
0.0
 10
10.32446024318557
 20
0.7218874611639292
 30
0.0
 10
9.302197059847133
 20
0.7218874611639292
 30
0.0
 10
9.302197059847133
 20
0.7218874611639292
 30
0.0
 10
9.302197059847133
 20
0.7218874611639292
 30
0.0
 10
9.302197059847133
 20
0.1336384836497944
 30
0.0
 10
9.302197059847133
 20
0.1336384836497944
 30
0.0
 10
9.302197059847133
 20
0.1336384836497944
 30
0.0
 10
10.26848174791936
 20
0.1336384836497944
 30
0.0
 10
10.26848174791936
 20
0.1336384836497944
 30
0.0
 10
10.26848174791936
 20
0.1336384836497944
 30
0.0
 10
10.26848174791936
 20
-0.1808901214143534
 30
0.0
 10
10.26848174791936
 20
-0.1808901214143534
 30
0.0
 10
10.26848174791936
 20
-0.1808901214143534
 30
0.0
 10
9.302197059847133
 20
-0.1808901214143534
 30
0.0
 10
9.302197059847133
 20
-0.1808901214143534
 30
0.0
 10
9.302197059847133
 20
-0.1808901214143534
 30
0.0
 10
9.302197059847133
 20
-0.8039334867372364
 30
0.0
 10
9.302197059847133
 20
-0.8039334867372364
 30
0.0
 10
9.302197059847133
 20
-0.8039334867372364
 30
0.0
 10
10.32446024318557
 20
-0.8039334867372364
 30
0.0
 10
10.32446024318557
 20
-0.8039334867372364
 30
0.0
 10
10.32446024318557
 20
-0.8039334867372364
 30
0.0
 10
10.32446024318557
 20
-1.132072372153312
 30
0.0
 10
10.32446024318557
 20
-1.132072372153312
 30
0.0
 10
10.32446024318557
 20
-1.132072372153312
 30
0.0
 10
8.912020617480356
 20
-1.132072372153312
 30
0.0
 10
8.912020617480356
 20
-1.132072372153312
 30
0.0
 10
8.912020617480356
 20
-1.132072372153312
 30
0.0
 10
8.912020617480356
 20
1.050048955019063
 30
0.0
 10
8.912020617480356
 20
1.050048955019063
 30
0.0
 10
8.912020617480356
 20
1.050048955019063
 30
0.0
 10
10.32446024318557
 20
1.050048955019063
 30
0.0
 10
10.32446024318557
 20
1.050048955019063
 30
0.0
 10
10.32446024318557
 20
1.050048955019063
 30
0.0
 10
10.32446024318557
 20
0.7218874611639292
 30
0.0
 10
10.32446024318557
 20
0.7218874611639292
 30
0.0
  0
SPLINE
  5
96
330
8B
100
AcDbEntity
  8
Layer 1
100
AcDbSpline
210
0.0
220
0.0
230
1.0
 70
    11
 71
     3
 72
    53
 73
    49
 74
     0
 42
0.0000000001
 43
0.0000000001
 40
0.0
 40
0.0
 40
0.0
 40
0.0
 40
1.0
 40
1.0
 40
1.0
 40
2.0
 40
2.0
 40
2.0
 40
3.0
 40
3.0
 40
3.0
 40
4.0
 40
4.0
 40
4.0
 40
5.0
 40
5.0
 40
5.0
 40
6.0
 40
6.0
 40
6.0
 40
7.0
 40
7.0
 40
7.0
 40
8.0
 40
8.0
 40
8.0
 40
9.0
 40
9.0
 40
9.0
 40
10.0
 40
10.0
 40
10.0
 40
11.0
 40
11.0
 40
11.0
 40
12.0
 40
12.0
 40
12.0
 40
13.0
 40
13.0
 40
13.0
 40
14.0
 40
14.0
 40
14.0
 40
15.0
 40
15.0
 40
15.0
 40
16.0
 40
16.0
 40
16.0
 40
16.0
 10
8.217896319558313
 20
-1.132072372153312
 30
0.0
 10
8.217896319558313
 20
-1.132072372153312
 30
0.0
 10
7.788426409997775
 20
-0.3154781595074623
 30
0.0
 10
7.788426409997775
 20
-0.3154781595074623
 30
0.0
 10
7.785442096033485
 20
-0.3154781595074623
 30
0.0
 10
7.782141263922065
 20
-0.3154781595074623
 30
0.0
 10
7.778614347418784
 20
-0.3154781595074623
 30
0.0
 10
7.775087430915823
 20
-0.3154781595074623
 30
0.0
 10
7.771831815682198
 20
-0.3154781595074623
 30
0.0
 10
7.768802284840114
 20
-0.3154781595074623
 30
0.0
 10
7.768802284840114
 20
-0.3154781595074623
 30
0.0
 10
7.366552935982471
 20
-0.3154781595074623
 30
0.0
 10
7.366552935982471
 20
-0.3154781595074623
 30
0.0
 10
7.366552935982471
 20
-0.3154781595074623
 30
0.0
 10
7.366552935982471
 20
-1.132072372153312
 30
0.0
 10
7.366552935982471
 20
-1.132072372153312
 30
0.0
 10
7.366552935982471
 20
-1.132072372153312
 30
0.0
 10
6.976376493615694
 20
-1.132072372153312
 30
0.0
 10
6.976376493615694
 20
-1.132072372153312
 30
0.0
 10
6.976376493615694
 20
-1.132072372153312
 30
0.0
 10
6.976376493615694
 20
1.050048955019063
 30
0.0
 10
6.976376493615694
 20
1.050048955019063
 30
0.0
 10
6.976376493615694
 20
1.050048955019063
 30
0.0
 10
7.847434436106071
 20
1.050048955019063
 30
0.0
 10
7.847434436106071
 20
1.050048955019063
 30
0.0
 10
8.002663979117329
 20
1.050048955019063
 30
0.0
 10
8.13623463744995
 20
1.022557093046833
 30
0.0
 10
8.248146411103613
 20
0.967641194419548
 30
0.0
 10
8.360058184757276
 20
0.9126800789141467
 30
0.0
 10
8.446241554690027
 20
0.8342966204784673
 30
0.0
 10
8.506741737780629
 20
0.732490819112189
 30
0.0
 10
8.567241920870587
 20
0.6306398008677949
 30
0.0
 10
8.597492012415887
 20
0.5096620431262937
 30
0.0
 10
8.597492012415887
 20
0.3695575458873642
 30
0.0
 10
8.597492012415887
 20
0.3695575458873642
 30
0.0
 10
8.597492012415887
 20
0.3665280150452792
 30
0.0
 10
8.597492012415887
 20
0.3665280150452792
 30
0.0
 10
8.597492012415887
 20
0.2193244679219927
 30
0.0
 10
8.560414172255885
 20
0.0902981058534616
 30
0.0
 10
8.486348925692436
 20
-0.0205962880397133
 30
0.0
 10
8.412238462250869
 20
-0.1315132903722668
 30
0.0
 10
8.312173510696853
 20
-0.2101454416382235
 30
0.0
 10
8.186154071031348
 20
-0.2564927418382252
 30
0.0
 10
8.186154071031348
 20
-0.2564927418382252
 30
0.0
 10
8.662513883330879
 20
-1.132072372153312
 30
0.0
 10
8.662513883330879
 20
-1.132072372153312
 30
0.0
 10
8.662513883330879
 20
-1.132072372153312
 30
0.0
 10
8.217896319558313
 20
-1.132072372153312
 30
0.0
 10
8.217896319558313
 20
-1.132072372153312
 30
0.0
  0
SPLINE
  5
97
330
8B
100
AcDbEntity
  8
Layer 1
100
AcDbSpline
210
0.0
220
0.0
230
1.0
 70
     9
 71
     3
 72
    47
 73
    43
 74
     0
 42
0.0000000001
 43
0.0000000001
 40
0.0
 40
0.0
 40
0.0
 40
0.0
 40
1.0
 40
1.0
 40
1.0
 40
2.0
 40
2.0
 40
2.0
 40
3.0
 40
3.0
 40
3.0
 40
4.0
 40
4.0
 40
4.0
 40
5.0
 40
5.0
 40
5.0
 40
6.0
 40
6.0
 40
6.0
 40
7.0
 40
7.0
 40
7.0
 40
8.0
 40
8.0
 40
8.0
 40
9.0
 40
9.0
 40
9.0
 40
10.0
 40
10.0
 40
10.0
 40
11.0
 40
11.0
 40
11.0
 40
12.0
 40
12.0
 40
12.0
 40
13.0
 40
13.0
 40
13.0
 40
14.0
 40
14.0
 40
14.0
 40
14.0
 10
6.692097980095883
 20
0.3181459553243018
 30
0.0
 10
6.692097980095883
 20
0.1729545592829332
 30
0.0
 10
6.660807900351679
 20
0.0456690470263432
 30
0.0
 10
6.598318174618539
 20
-0.0636879730064106
 30
0.0
 10
6.535783232007284
 20
-0.1730902099172799
 30
0.0
 10
6.44883117514368
 20
-0.2582788085292444
 30
0.0
 10
6.337462004029329
 20
-0.3192537688407
 30
0.0
 10
6.226047616036542
 20
-0.3802739460309128
 30
0.0
 10
6.096772561137091
 20
-0.4107501219674325
 30
0.0
 10
5.949591622453183
 20
-0.4107501219674325
 30
0.0
 10
5.949591622453183
 20
-0.4107501219674325
 30
0.0
 10
5.498960213874563
 20
-0.4107501219674325
 30
0.0
 10
5.498960213874563
 20
-0.4107501219674325
 30
0.0
 10
5.498960213874563
 20
-0.4107501219674325
 30
0.0
 10
5.498960213874563
 20
-1.132072372153312
 30
0.0
 10
5.498960213874563
 20
-1.132072372153312
 30
0.0
 10
5.498960213874563
 20
-1.132072372153312
 30
0.0
 10
5.108783771507786
 20
-1.132072372153312
 30
0.0
 10
5.108783771507786
 20
-1.132072372153312
 30
0.0
 10
5.108783771507786
 20
-1.132072372153312
 30
0.0
 10
5.108783771507786
 20
1.050048955019063
 30
0.0
 10
5.108783771507786
 20
1.050048955019063
 30
0.0
 10
5.108783771507786
 20
1.050048955019063
 30
0.0
 10
5.303894601130233
 20
1.050048955019063
 30
0.0
 10
5.303894601130233
 20
1.050048955019063
 30
0.0
 10
5.303894601130233
 20
1.050048955019063
 30
0.0
 10
5.498960213874563
 20
1.050048955019063
 30
0.0
 10
5.498960213874563
 20
1.050048955019063
 30
0.0
 10
5.498960213874563
 20
1.050048955019063
 30
0.0
 10
5.949591622453183
 20
1.050048955019063
 30
0.0
 10
5.949591622453183
 20
1.050048955019063
 30
0.0
 10
6.096772561137091
 20
1.050048955019063
 30
0.0
 10
6.226047616036542
 20
1.019798863474083
 30
0.0
 10
6.337462004029329
 20
0.9593212888228622
 30
0.0
 10
6.44883117514368
 20
0.8988211057322617
 30
0.0
 10
6.535783232007284
 20
0.8138811999512164
 30
0.0
 10
6.598318174618539
 20
0.704501571479084
 30
0.0
 10
6.660807900351679
 20
0.5950993345682147
 30
0.0
 10
6.692097980095883
 20
0.467316436650749
 30
0.0
 10
6.692097980095883
 20
0.321152877727329
 30
0.0
 10
6.692097980095883
 20
0.321152877727329
 30
0.0
 10
6.692097980095883
 20
0.3181459553243018
 30
0.0
 10
6.692097980095883
 20
0.3181459553243018
 30
0.0
  0
SPLINE
  5
98
330
8B
100
AcDbEntity
  8
Layer 1
100
AcDbSpline
210
0.0
220
0.0
230
1.0
 70
    11
 71
     3
 72
    53
 73
    49
 74
     0
 42
0.0000000001
 43
0.0000000001
 40
0.0
 40
0.0
 40
0.0
 40
0.0
 40
1.0
 40
1.0
 40
1.0
 40
2.0
 40
2.0
 40
2.0
 40
3.0
 40
3.0
 40
3.0
 40
4.0
 40
4.0
 40
4.0
 40
5.0
 40
5.0
 40
5.0
 40
6.0
 40
6.0
 40
6.0
 40
7.0
 40
7.0
 40
7.0
 40
8.0
 40
8.0
 40
8.0
 40
9.0
 40
9.0
 40
9.0
 40
10.0
 40
10.0
 40
10.0
 40
11.0
 40
11.0
 40
11.0
 40
12.0
 40
12.0
 40
12.0
 40
13.0
 40
13.0
 40
13.0
 40
14.0
 40
14.0
 40
14.0
 40
15.0
 40
15.0
 40
15.0
 40
16.0
 40
16.0
 40
16.0
 40
16.0
 10
4.838115538339905
 20
-1.132072372153312
 30
0.0
 10
4.838115538339905
 20
-1.132072372153312
 30
0.0
 10
4.388998895182647
 20
-1.132072372153312
 30
0.0
 10
4.388998895182647
 20
-1.132072372153312
 30
0.0
 10
4.388998895182647
 20
-1.132072372153312
 30
0.0
 10
3.873345615688716
 20
-0.3290884398587491
 30
0.0
 10
3.873345615688716
 20
-0.3290884398587491
 30
0.0
 10
3.873345615688716
 20
-0.3290884398587491
 30
0.0
 10
3.859495120672079
 20
-0.3290884398587491
 30
0.0
 10
3.859495120672079
 20
-0.3290884398587491
 30
0.0
 10
3.859495120672079
 20
-0.3290884398587491
 30
0.0
 10
3.342544681983397
 20
-1.132072372153312
 30
0.0
 10
3.342544681983397
 20
-1.132072372153312
 30
0.0
 10
3.342544681983397
 20
-1.132072372153312
 30
0.0
 10
2.917619068686308
 20
-1.132072372153312
 30
0.0
 10
2.917619068686308
 20
-1.132072372153312
 30
0.0
 10
2.917619068686308
 20
-1.132072372153312
 30
0.0
 10
3.629875334784671
 20
-0.0314398606536437
 30
0.0
 10
3.629875334784671
 20
-0.0314398606536437
 30
0.0
 10
3.629875334784671
 20
-0.0314398606536437
 30
0.0
 10
3.629875334784671
 20
-0.0281701151455673
 30
0.0
 10
3.629875334784671
 20
-0.0281701151455673
 30
0.0
 10
3.629875334784671
 20
-0.0281701151455673
 30
0.0
 10
2.92367813037144
 20
1.050048955019063
 30
0.0
 10
2.92367813037144
 20
1.050048955019063
 30
0.0
 10
2.92367813037144
 20
1.050048955019063
 30
0.0
 10
3.38337552303822
 20
1.050048955019063
 30
0.0
 10
3.38337552303822
 20
1.050048955019063
 30
0.0
 10
3.38337552303822
 20
1.050048955019063
 30
0.0
 10
3.891477583864393
 20
0.2289104461097646
 30
0.0
 10
3.891477583864393
 20
0.2289104461097646
 30
0.0
 10
3.891477583864393
 20
0.2289104461097646
 30
0.0
 10
3.907690660770108
 20
0.2289104461097646
 30
0.0
 10
3.907690660770108
 20
0.2289104461097646
 30
0.0
 10
3.907690660770108
 20
0.2289104461097646
 30
0.0
 10
4.413189925043137
 20
1.050048955019063
 30
0.0
 10
4.413189925043137
 20
1.050048955019063
 30
0.0
 10
4.413189925043137
 20
1.050048955019063
 30
0.0
 10
4.850233661709206
 20
1.050048955019063
 30
0.0
 10
4.850233661709206
 20
1.050048955019063
 30
0.0
 10
4.850233661709206
 20
1.050048955019063
 30
0.0
 10
4.121337584417473
 20
-0.03875086465509
 30
0.0
 10
4.121337584417473
 20
-0.03875086465509
 30
0.0
 10
4.121337584417473
 20
-0.03875086465509
 30
0.0
 10
4.121337584417473
 20
-0.0441655858243483
 30
0.0
 10
4.121337584417473
 20
-0.0441655858243483
 30
0.0
 10
4.121337584417473
 20
-0.0441655858243483
 30
0.0
 10
4.838115538339905
 20
-1.132072372153312
 30
0.0
 10
4.838115538339905
 20
-1.132072372153312
 30
0.0
  0
SPLINE
  5
99
330
8B
100
AcDbEntity
  8
Layer 1
100
AcDbSpline
210
0.0
220
0.0
230
1.0
 70
    11
 71
     3
 72
    41
 73
    37
 74
     0
 42
0.0000000001
 43
0.0000000001
 40
0.0
 40
0.0
 40
0.0
 40
0.0
 40
1.0
 40
1.0
 40
1.0
 40
2.0
 40
2.0
 40
2.0
 40
3.0
 40
3.0
 40
3.0
 40
4.0
 40
4.0
 40
4.0
 40
5.0
 40
5.0
 40
5.0
 40
6.0
 40
6.0
 40
6.0
 40
7.0
 40
7.0
 40
7.0
 40
8.0
 40
8.0
 40
8.0
 40
9.0
 40
9.0
 40
9.0
 40
10.0
 40
10.0
 40
10.0
 40
11.0
 40
11.0
 40
11.0
 40
12.0
 40
12.0
 40
12.0
 40
12.0
 10
2.704398879327563
 20
0.7218874611639292
 30
0.0
 10
2.704398879327563
 20
0.7218874611639292
 30
0.0
 10
1.682135695989444
 20
0.7218874611639292
 30
0.0
 10
1.682135695989444
 20
0.7218874611639292
 30
0.0
 10
1.682135695989444
 20
0.7218874611639292
 30
0.0
 10
1.682135695989444
 20
0.1336384836497944
 30
0.0
 10
1.682135695989444
 20
0.1336384836497944
 30
0.0
 10
1.682135695989444
 20
0.1336384836497944
 30
0.0
 10
2.648442992500732
 20
0.1336384836497944
 30
0.0
 10
2.648442992500732
 20
0.1336384836497944
 30
0.0
 10
2.648442992500732
 20
0.1336384836497944
 30
0.0
 10
2.648442992500732
 20
-0.1808901214143534
 30
0.0
 10
2.648442992500732
 20
-0.1808901214143534
 30
0.0
 10
2.648442992500732
 20
-0.1808901214143534
 30
0.0
 10
1.682135695989444
 20
-0.1808901214143534
 30
0.0
 10
1.682135695989444
 20
-0.1808901214143534
 30
0.0
 10
1.682135695989444
 20
-0.1808901214143534
 30
0.0
 10
1.682135695989444
 20
-0.8039334867372364
 30
0.0
 10
1.682135695989444
 20
-0.8039334867372364
 30
0.0
 10
1.682135695989444
 20
-0.8039334867372364
 30
0.0
 10
2.704398879327563
 20
-0.8039334867372364
 30
0.0
 10
2.704398879327563
 20
-0.8039334867372364
 30
0.0
 10
2.704398879327563
 20
-0.8039334867372364
 30
0.0
 10
2.704398879327563
 20
-1.132072372153312
 30
0.0
 10
2.704398879327563
 20
-1.132072372153312
 30
0.0
 10
2.704398879327563
 20
-1.132072372153312
 30
0.0
 10
1.292004470501103
 20
-1.132072372153312
 30
0.0
 10
1.292004470501103
 20
-1.132072372153312
 30
0.0
 10
1.292004470501103
 20
-1.132072372153312
 30
0.0
 10
1.292004470501103
 20
1.050048955019063
 30
0.0
 10
1.292004470501103
 20
1.050048955019063
 30
0.0
 10
1.292004470501103
 20
1.050048955019063
 30
0.0
 10
2.704398879327563
 20
1.050048955019063
 30
0.0
 10
2.704398879327563
 20
1.050048955019063
 30
0.0
 10
2.704398879327563
 20
1.050048955019063
 30
0.0
 10
2.704398879327563
 20
0.7218874611639292
 30
0.0
 10
2.704398879327563
 20
0.7218874611639292
 30
0.0
  0
SPLINE
  5
9A
330
8B
100
AcDbEntity
  8
Layer 1
100
AcDbSpline
210
0.0
220
0.0
230
1.0
 70
     9
 71
     3
 72
    29
 73
    25
 74
     0
 42
0.0000000001
 43
0.0000000001
 40
0.0
 40
0.0
 40
0.0
 40
0.0
 40
1.0
 40
1.0
 40
1.0
 40
2.0
 40
2.0
 40
2.0
 40
3.0
 40
3.0
 40
3.0
 40
4.0
 40
4.0
 40
4.0
 40
5.0
 40
5.0
 40
5.0
 40
6.0
 40
6.0
 40
6.0
 40
7.0
 40
7.0
 40
7.0
 40
8.0
 40
8.0
 40
8.0
 40
8.0
 10
14.6321478870667
 20
1.852083332870312
 30
0.0
 10
14.6321478870667
 20
1.852083332870312
 30
0.0
 10
0.761757443554465
 20
1.852083332870312
 30
0.0
 10
0.761757443554465
 20
1.852083332870312
 30
0.0
 10
0.5588297461057321
 20
1.852083332870312
 30
0.0
 10
0.3927990213038966
 20
1.686052608068477
 30
0.0
 10
0.3927990213038966
 20
1.483124910619744
 30
0.0
 10
0.3927990213038966
 20
1.483124910619744
 30
0.0
 10
0.3927990213038966
 20
-1.483124910619423
 30
0.0
 10
0.3927990213038966
 20
-1.483124910619423
 30
0.0
 10
0.3927990213038966
 20
-1.686052608068156
 30
0.0
 10
0.5588297461057321
 20
-1.852083332869991
 30
0.0
 10
0.761757443554465
 20
-1.852083332869991
 30
0.0
 10
0.761757443554465
 20
-1.852083332869991
 30
0.0
 10
14.6321478870667
 20
-1.852083332869991
 30
0.0
 10
14.6321478870667
 20
-1.852083332869991
 30
0.0
 10
14.83507558451511
 20
-1.852083332869991
 30
0.0
 10
15.00110630931694
 20
-1.686052608068156
 30
0.0
 10
15.00110630931694
 20
-1.483124910619423
 30
0.0
 10
15.00110630931694
 20
-1.483124910619423
 30
0.0
 10
15.00110630931694
 20
1.483124910619744
 30
0.0
 10
15.00110630931694
 20
1.483124910619744
 30
0.0
 10
15.00110630931694
 20
1.686052608068477
 30
0.0
 10
14.83507558451511
 20
1.852083332870312
 30
0.0
 10
14.6321478870667
 20
1.852083332870312
 30
0.0
  0
HATCH
  5
9B
330
8B
100
AcDbEntity
  8
Layer 1
 62
    18
420
        0
440
 33554687
100
AcDbHatch
 10
0.0
 20
0.0
 30
0.0
210
0.0
220
0.0
230
1.0
  2
SOLID
 70
     1
 71
     1
 91
        8
 92
        1
 93
        1
 72
     4
 94
        3
 73
     0
 74
     0
 95
      140
 96
      136
 40
0.0
 40
0.0
 40
0.0
 40
0.0
 40
1.0
 40
1.0
 40
1.0
 40
2.0
 40
2.0
 40
2.0
 40
3.0
 40
3.0
 40
3.0
 40
4.0
 40
4.0
 40
4.0
 40
5.0
 40
5.0
 40
5.0
 40
6.0
 40
6.0
 40
6.0
 40
7.0
 40
7.0
 40
7.0
 40
8.0
 40
8.0
 40
8.0
 40
9.0
 40
9.0
 40
9.0
 40
10.0
 40
10.0
 40
10.0
 40
11.0
 40
11.0
 40
11.0
 40
12.0
 40
12.0
 40
12.0
 40
13.0
 40
13.0
 40
13.0
 40
14.0
 40
14.0
 40
14.0
 40
15.0
 40
15.0
 40
15.0
 40
16.0
 40
16.0
 40
16.0
 40
17.0
 40
17.0
 40
17.0
 40
18.0
 40
18.0
 40
18.0
 40
19.0
 40
19.0
 40
19.0
 40
20.0
 40
20.0
 40
20.0
 40
21.0
 40
21.0
 40
21.0
 40
22.0
 40
22.0
 40
22.0
 40
23.0
 40
23.0
 40
23.0
 40
24.0
 40
24.0
 40
24.0
 40
25.0
 40
25.0
 40
25.0
 40
26.0
 40
26.0
 40
26.0
 40
27.0
 40
27.0
 40
27.0
 40
28.0
 40
28.0
 40
28.0
 40
29.0
 40
29.0
 40
29.0
 40
30.0
 40
30.0
 40
30.0
 40
31.0
 40
31.0
 40
31.0
 40
32.0
 40
32.0
 40
32.0
 40
33.0
 40
33.0
 40
33.0
 40
34.0
 40
34.0
 40
34.0
 40
35.0
 40
35.0
 40
35.0
 40
36.0
 40
36.0
 40
36.0
 40
37.0
 40
37.0
 40
37.0
 40
38.0
 40
38.0
 40
38.0
 40
39.0
 40
39.0
 40
39.0
 40
40.0
 40
40.0
 40
40.0
 40
41.0
 40
41.0
 40
41.0
 40
42.0
 40
42.0
 40
42.0
 40
43.0
 40
43.0
 40
43.0
 40
44.0
 40
44.0
 40
44.0
 40
45.0
 40
45.0
 40
45.0
 40
45.0
 10
14.19416590017668
 20
-0.5045073190060393
 10
14.19416590017668
 20
-0.6396153511987607
 10
14.1601628077372
 20
-0.7570435839982438
 10
14.09211140598013
 20
-0.856859842721662
 10
14.02406000422305
 20
-0.9566534930060226
 10
13.92625589658155
 20
-1.033770878850936
 10
13.79874429993374
 20
-1.088212000256725
 10
13.67118748640782
 20
-1.142653121662194
 10
13.51871617296867
 20
-1.169873682365088
 10
13.3412851427401
 20
-1.169873682365088
 10
13.17393747635922
 20
-1.169873682365088
 10
13.02775130899706
 20
-1.144665272744111
 10
12.90277185753078
 20
-1.094271061941216
 10
12.77774718918639
 20
-1.043876851138642
 10
12.67917439461468
 20
-0.9717785387786728
 10
12.60709869069376
 20
-0.8780213417397451
 10
12.53502298677285
 20
-0.7842641447011383
 10
12.49446344698833
 20
-0.6723523710474756
 10
12.48537485446175
 20
-0.5423086292181357
 10
12.48537485446175
 20
-0.5423086292181357
 10
12.48388269747912
 20
-0.5196323647786895
 10
12.48388269747912
 20
-0.5196323647786895
 10
12.48388269747912
 20
-0.5196323647786895
 10
12.85588195479179
 20
-0.5196323647786895
 10
12.85588195479179
 20
-0.5196323647786895
 10
12.85588195479179
 20
-0.5196323647786895
 10
12.85891148563419
 20
-0.5377643329543666
 10
12.85891148563419
 20
-0.5377643329543666
 10
12.86998962080395
 20
-0.6002992755659427
 10
12.89721018150652
 20
-0.6542204028717985
 10
12.94057316774256
 20
-0.6995729317503701
 10
12.98389093710047
 20
-0.7449480690679995
 10
13.04113550495713
 20
-0.7799911497070252
 10
13.11217122067817
 20
-0.8046795652283893
 10
13.18325215327765
 20
-0.8293905891884904
 10
13.26419036533424
 20
-0.8417347969490121
 10
13.35489542309171
 20
-0.8417347969490121
 10
13.4466404690484
 20
-0.8417347969490121
 10
13.52599609036645
 20
-0.8291418963582131
 10
13.59305272080209
 20
-0.8039334867372364
 10
13.66010935123806
 20
-0.7787250771162601
 10
13.71179224307013
 20
-0.7426872251558043
 10
13.74805617942245
 20
-0.6957973224168115
 10
13.7843653326516
 20
-0.6489300281171974
 10
13.80249730082792
 20
-0.5942402138811313
 10
13.80249730082792
 20
-0.5317278797089338
 10
13.80249730082792
 20
-0.5317278797089338
 10
13.80249730082792
 20
-0.5302131142878914
 10
13.80249730082792
 20
-0.5302131142878914
 10
13.80249730082792
 20
-0.448551432179208
 10
13.77202112489172
 20
-0.3840495553644713
 10
13.71102355614057
 20
-0.3366396585255453
 10
13.65002598738941
 20
-0.2892749785650557
 10
13.54896626451429
 20
-0.2504562885927924
 10
13.40784438751519
 20
-0.2202061970474922
 10
13.40784438751519
 20
-0.2202061970474922
 10
13.17344009069866
 20
-0.1718241373265148
 10
13.17344009069866
 20
-0.1718241373265148
 10
12.95969990723998
 20
-0.1274663797693732
 10
12.79940607386534
 20
-0.0546219889182512
 10
12.69255859057474
 20
0.046686426786831
 10
12.58566589040602
 20
0.1480174509316126
 10
12.5322647572001
 20
0.2798020425732145
 10
12.5322647572001
 20
0.4421306354688304
 10
12.5322647572001
 20
0.4421306354688304
 10
12.5322647572001
 20
0.4436454008901936
 10
12.5322647572001
 20
0.4436454008901936
 10
12.53325952852153
 20
0.5726943713981035
 10
12.56830260916056
 20
0.6853522235429188
 10
12.63734878223906
 20
0.7816189573243192
 10
12.70639495531725
 20
0.8778856911053983
 10
12.80193821904688
 20
0.9530135343077734
 10
12.92393335654886
 20
1.006957270052686
 10
13.04588327717274
 20
1.060878397358542
 10
13.18501561152897
 20
1.087850265231159
 10
13.3412851427401
 20
1.087850265231159
 10
13.49954421659376
 20
1.087850265231159
 10
13.63817916528976
 20
1.061624475849695
 10
13.75714477194935
 20
1.009218113964882
 10
13.87611037860893
 20
0.9567891436410111
 10
13.96961888281758
 20
0.8836960599599326
 10
14.03767028457466
 20
0.789938862921005
 10
14.10572168633173
 20
0.6961816658823981
 10
14.14325169527417
 20
0.5872994230711412
 10
14.1503055282801
 20
0.4633147429262919
 10
14.1503055282801
 20
0.4633147429262919
 10
14.15184290214052
 20
0.4376089476444399
 10
14.15184290214052
 20
0.4376089476444399
 10
14.15184290214052
 20
0.4376089476444399
 10
13.77984364482721
 20
0.4376089476444399
 10
13.77984364482721
 20
0.4376089476444399
 10
13.77984364482721
 20
0.4376089476444399
 10
13.77681411398545
 20
0.4572556812414804
 10
13.77681411398545
 20
0.4572556812414804
 10
13.76772552145855
 20
0.5207627867351079
 10
13.74403187725862
 20
0.5749552153102986
 10
13.70573318138596
 20
0.6198329669673735
 10
13.6673892686352
 20
0.6646655017463328
 10
13.61701766627136
 20
0.6992111967248038
 10
13.55452794053854
 20
0.7234022265852925
 10
13.49199299792697
 20
0.7475932564457813
 10
13.41991729400573
 20
0.7597113798150833
 10
13.33825561189769
 20
0.7597113798150833
 10
13.25356439894692
 20
0.7597113798150833
 10
13.18022262243525
 20
0.7473445636151831
 10
13.11823028236298
 20
0.7226561480941398
 10
13.05623794229072
 20
0.6979451241337178
 10
13.0083532682303
 20
0.6634220375946254
 10
12.97457626018204
 20
0.6190642800374837
 10
12.94079925213378
 20
0.5746839140409636
 10
12.92393335654886
 20
0.5232723234775804
 10
12.92393335654886
 20
0.4648295083473343
 10
12.92393335654886
 20
0.4648295083473343
 10
12.92393335654886
 20
0.4633147429262919
 10
12.92393335654886
 20
0.4633147429262919
 10
12.92393335654886
 20
0.3866721343028744
 10
12.95490691814594
 20
0.324431101400012
 10
13.01694447509664
 20
0.2765464273399101
 10
13.0789368151689
 20
0.2286617532798081
 10
13.17542963334152
 20
0.1911091358979891
 10
13.30651336337073
 20
0.1638885751954155
 10
13.30651336337073
 20
0.1638885751954155
 10
13.54091766018693
 20
0.1155065154744381
 10
13.54091766018693
 20
0.1155065154744381
 10
13.69311767235611
 20
0.0842390441683292
 10
13.81710235250064
 20
0.0418934376931055
 10
13.9129169174996
 20
-0.0115303039521956
 10
14.00868626562012
 20
-0.0649766540365544
 10
14.07949589695027
 20
-0.1320106760331422
 10
14.12539102836783
 20
-0.212654978380696
 10
14.17124094290696
 20
-0.2933218891682702
 10
14.19416590017668
 20
-0.3901086170489619
 10
14.19416590017668
 20
-0.5029925535849969
 10
14.19416590017668
 20
-0.5029925535849969
 10
14.19416590017668
 20
-0.5045073190060393
 10
14.19416590017668
 20
-0.5045073190060393
 97
        0
 97
        1
330
93
 92
        1
 93
        1
 72
     4
 94
        3
 73
     0
 74
     0
 95
      140
 96
      136
 40
0.0
 40
0.0
 40
0.0
 40
0.0
 40
1.0
 40
1.0
 40
1.0
 40
2.0
 40
2.0
 40
2.0
 40
3.0
 40
3.0
 40
3.0
 40
4.0
 40
4.0
 40
4.0
 40
5.0
 40
5.0
 40
5.0
 40
6.0
 40
6.0
 40
6.0
 40
7.0
 40
7.0
 40
7.0
 40
8.0
 40
8.0
 40
8.0
 40
9.0
 40
9.0
 40
9.0
 40
10.0
 40
10.0
 40
10.0
 40
11.0
 40
11.0
 40
11.0
 40
12.0
 40
12.0
 40
12.0
 40
13.0
 40
13.0
 40
13.0
 40
14.0
 40
14.0
 40
14.0
 40
15.0
 40
15.0
 40
15.0
 40
16.0
 40
16.0
 40
16.0
 40
17.0
 40
17.0
 40
17.0
 40
18.0
 40
18.0
 40
18.0
 40
19.0
 40
19.0
 40
19.0
 40
20.0
 40
20.0
 40
20.0
 40
21.0
 40
21.0
 40
21.0
 40
22.0
 40
22.0
 40
22.0
 40
23.0
 40
23.0
 40
23.0
 40
24.0
 40
24.0
 40
24.0
 40
25.0
 40
25.0
 40
25.0
 40
26.0
 40
26.0
 40
26.0
 40
27.0
 40
27.0
 40
27.0
 40
28.0
 40
28.0
 40
28.0
 40
29.0
 40
29.0
 40
29.0
 40
30.0
 40
30.0
 40
30.0
 40
31.0
 40
31.0
 40
31.0
 40
32.0
 40
32.0
 40
32.0
 40
33.0
 40
33.0
 40
33.0
 40
34.0
 40
34.0
 40
34.0
 40
35.0
 40
35.0
 40
35.0
 40
36.0
 40
36.0
 40
36.0
 40
37.0
 40
37.0
 40
37.0
 40
38.0
 40
38.0
 40
38.0
 40
39.0
 40
39.0
 40
39.0
 40
40.0
 40
40.0
 40
40.0
 40
41.0
 40
41.0
 40
41.0
 40
42.0
 40
42.0
 40
42.0
 40
43.0
 40
43.0
 40
43.0
 40
44.0
 40
44.0
 40
44.0
 40
45.0
 40
45.0
 40
45.0
 40
45.0
 10
12.28271280617187
 20
-0.5045073190060393
 10
12.28271280617187
 20
-0.6396153511987607
 10
12.24870971373271
 20
-0.7570435839982438
 10
12.18065831197563
 20
-0.856859842721662
 10
12.11260691021856
 20
-0.9566534930060226
 10
12.01480280257674
 20
-1.033770878850936
 10
11.88729120592892
 20
-1.088212000256725
 10
11.759734392403
 20
-1.142653121662194
 10
11.60726307896513
 20
-1.169873682365088
 10
11.42983204873592
 20
-1.169873682365088
 10
11.26248438235536
 20
-1.169873682365088
 10
11.11629821499224
 20
-1.144665272744111
 10
10.99131876352596
 20
-1.094271061941216
 10
10.86629409518157
 20
-1.043876851138642
 10
10.76772130060986
 20
-0.9717785387786728
 10
10.69564559668959
 20
-0.8780213417397451
 10
10.623569892769
 20
-0.7842641447011383
 10
10.58301035298351
 20
-0.6723523710474756
 10
10.57392176045693
 20
-0.5423086292181357
 10
10.57392176045693
 20
-0.5423086292181357
 10
10.57242960347495
 20
-0.5196323647786895
 10
10.57242960347495
 20
-0.5196323647786895
 10
10.57242960347495
 20
-0.5196323647786895
 10
10.94442886078761
 20
-0.5196323647786895
 10
10.94442886078761
 20
-0.5196323647786895
 10
10.94442886078761
 20
-0.5196323647786895
 10
10.94745839162938
 20
-0.5377643329543666
 10
10.94745839162938
 20
-0.5377643329543666
 10
10.95853652679913
 20
-0.6002992755659427
 10
10.98575708750267
 20
-0.6542204028717985
 10
11.02912007373806
 20
-0.6995729317503701
 10
11.07243784309566
 20
-0.7449480690679995
 10
11.12968241095231
 20
-0.7799911497070252
 10
11.20071812667368
 20
-0.8046795652283893
 10
11.27179905927348
 20
-0.8293905891884904
 10
11.35273727133007
 20
-0.8417347969490121
 10
11.44344232908689
 20
-0.8417347969490121
 10
11.53518737504422
 20
-0.8417347969490121
 10
11.61454299636227
 20
-0.8291418963582131
 10
11.6815996267976
 20
-0.8039334867372364
 10
11.74865625723324
 20
-0.7787250771162601
 10
11.8003391490666
 20
-0.7426872251558043
 10
11.83660308541764
 20
-0.6957973224168115
 10
11.87291223864807
 20
-0.6489300281171974
 10
11.89104420682342
 20
-0.5942402138811313
 10
11.89104420682342
 20
-0.5317278797089338
 10
11.89104420682342
 20
-0.5317278797089338
 10
11.89104420682342
 20
-0.5302131142878914
 10
11.89104420682342
 20
-0.5302131142878914
 10
11.89104420682342
 20
-0.448551432179208
 10
11.86056803088691
 20
-0.3840495553644713
 10
11.79957046213575
 20
-0.3366396585255453
 10
11.73857289338491
 20
-0.2892749785650557
 10
11.63751317050979
 20
-0.2504562885927924
 10
11.49639129351037
 20
-0.2202061970474922
 10
11.49639129351037
 20
-0.2202061970474922
 10
11.26198699669417
 20
-0.1718241373265148
 10
11.26198699669417
 20
-0.1718241373265148
 10
11.04824681323517
 20
-0.1274663797693732
 10
10.88795297986085
 20
-0.0546219889182512
 10
10.78110549657025
 20
0.046686426786831
 10
10.67421279640217
 20
0.1480174509316126
 10
10.62081166319593
 20
0.2798020425732145
 10
10.62081166319593
 20
0.4421306354688304
 10
10.62081166319593
 20
0.4421306354688304
 10
10.62081166319593
 20
0.4436454008901936
 10
10.62081166319593
 20
0.4436454008901936
 10
10.62180643451736
 20
0.5726943713981035
 10
10.65684951515638
 20
0.6853522235429188
 10
10.72589568823425
 20
0.7816189573243192
 10
10.7949418613134
 20
0.8778856911053983
 10
10.89048512504206
 20
0.9530135343077734
 10
11.01248026254469
 20
1.006957270052686
 10
11.13443018316792
 20
1.060878397358542
 10
11.27356251752512
 20
1.087850265231159
 10
11.42983204873592
 20
1.087850265231159
 10
11.58809112258959
 20
1.087850265231159
 10
11.72672607128495
 20
1.061624475849695
 10
11.84569167794453
 20
1.009218113964882
 10
11.96465728460444
 20
0.9567891436410111
 10
12.05816578881277
 20
0.8836960599599326
 10
12.12621719056984
 20
0.789938862921005
 10
12.19426859232692
 20
0.6961816658823981
 10
12.23179860126936
 20
0.5872994230711412
 10
12.23885243427528
 20
0.4633147429262919
 10
12.23885243427528
 20
0.4633147429262919
 10
12.2403898081357
 20
0.4376089476444399
 10
12.2403898081357
 20
0.4376089476444399
 10
12.2403898081357
 20
0.4376089476444399
 10
11.86839055082368
 20
0.4376089476444399
 10
11.86839055082368
 20
0.4376089476444399
 10
11.86839055082368
 20
0.4376089476444399
 10
11.86536101998063
 20
0.4572556812414804
 10
11.86536101998063
 20
0.4572556812414804
 10
11.85627242745374
 20
0.5207627867351079
 10
11.8325787832538
 20
0.5749552153102986
 10
11.79428008738179
 20
0.6198329669673735
 10
11.75593617463038
 20
0.6646655017463328
 10
11.70556457226687
 20
0.6992111967248038
 10
11.64307484653373
 20
0.7234022265852925
 10
11.58053990392247
 20
0.7475932564457813
 10
11.5084642000022
 20
0.7597113798150833
 10
11.4268025178932
 20
0.7597113798150833
 10
11.34211130494275
 20
0.7597113798150833
 10
11.26876952843075
 20
0.7473445636151831
 10
11.20677718835817
 20
0.7226561480941398
 10
11.1447848482859
 20
0.6979451241337178
 10
11.09690017422548
 20
0.6634220375946254
 10
11.06312316617786
 20
0.6190642800374837
 10
11.02934615812928
 20
0.5746839140409636
 10
11.01248026254469
 20
0.5232723234775804
 10
11.01248026254469
 20
0.4648295083473343
 10
11.01248026254469
 20
0.4648295083473343
 10
11.01248026254469
 20
0.4633147429262919
 10
11.01248026254469
 20
0.4633147429262919
 10
11.01248026254469
 20
0.3866721343028744
 10
11.04345382414176
 20
0.324431101400012
 10
11.10549138109182
 20
0.2765464273399101
 10
11.16748372116441
 20
0.2286617532798081
 10
11.26397653933671
 20
0.1911091358979891
 10
11.39506026936591
 20
0.1638885751954155
 10
11.39506026936591
 20
0.1638885751954155
 10
11.62946456618276
 20
0.1155065154744381
 10
11.62946456618276
 20
0.1155065154744381
 10
11.78166457835129
 20
0.0842390441683292
 10
11.90564925849614
 20
0.0418934376931055
 10
12.00146382349478
 20
-0.0115303039521956
 10
12.09723317161563
 20
-0.0649766540365544
 10
12.16804280294545
 20
-0.1320106760331422
 10
12.21393793436302
 20
-0.212654978380696
 10
12.25978784890246
 20
-0.2933218891682702
 10
12.28271280617187
 20
-0.3901086170489619
 10
12.28271280617187
 20
-0.5029925535849969
 10
12.28271280617187
 20
-0.5029925535849969
 10
12.28271280617187
 20
-0.5045073190060393
 10
12.28271280617187
 20
-0.5045073190060393
 97
        0
 97
        1
330
94
 92
        1
 93
        1
 72
     4
 94
        3
 73
     0
 74
     0
 95
       41
 96
       37
 40
0.0
 40
0.0
 40
0.0
 40
0.0
 40
1.0
 40
1.0
 40
1.0
 40
2.0
 40
2.0
 40
2.0
 40
3.0
 40
3.0
 40
3.0
 40
4.0
 40
4.0
 40
4.0
 40
5.0
 40
5.0
 40
5.0
 40
6.0
 40
6.0
 40
6.0
 40
7.0
 40
7.0
 40
7.0
 40
8.0
 40
8.0
 40
8.0
 40
9.0
 40
9.0
 40
9.0
 40
10.0
 40
10.0
 40
10.0
 40
11.0
 40
11.0
 40
11.0
 40
12.0
 40
12.0
 40
12.0
 40
12.0
 10
10.32446024318557
 20
0.7218874611639292
 10
10.32446024318557
 20
0.7218874611639292
 10
9.302197059847133
 20
0.7218874611639292
 10
9.302197059847133
 20
0.7218874611639292
 10
9.302197059847133
 20
0.7218874611639292
 10
9.302197059847133
 20
0.1336384836497944
 10
9.302197059847133
 20
0.1336384836497944
 10
9.302197059847133
 20
0.1336384836497944
 10
10.26848174791936
 20
0.1336384836497944
 10
10.26848174791936
 20
0.1336384836497944
 10
10.26848174791936
 20
0.1336384836497944
 10
10.26848174791936
 20
-0.1808901214143534
 10
10.26848174791936
 20
-0.1808901214143534
 10
10.26848174791936
 20
-0.1808901214143534
 10
9.302197059847133
 20
-0.1808901214143534
 10
9.302197059847133
 20
-0.1808901214143534
 10
9.302197059847133
 20
-0.1808901214143534
 10
9.302197059847133
 20
-0.8039334867372364
 10
9.302197059847133
 20
-0.8039334867372364
 10
9.302197059847133
 20
-0.8039334867372364
 10
10.32446024318557
 20
-0.8039334867372364
 10
10.32446024318557
 20
-0.8039334867372364
 10
10.32446024318557
 20
-0.8039334867372364
 10
10.32446024318557
 20
-1.132072372153312
 10
10.32446024318557
 20
-1.132072372153312
 10
10.32446024318557
 20
-1.132072372153312
 10
8.912020617480356
 20
-1.132072372153312
 10
8.912020617480356
 20
-1.132072372153312
 10
8.912020617480356
 20
-1.132072372153312
 10
8.912020617480356
 20
1.050048955019063
 10
8.912020617480356
 20
1.050048955019063
 10
8.912020617480356
 20
1.050048955019063
 10
10.32446024318557
 20
1.050048955019063
 10
10.32446024318557
 20
1.050048955019063
 10
10.32446024318557
 20
1.050048955019063
 10
10.32446024318557
 20
0.7218874611639292
 10
10.32446024318557
 20
0.7218874611639292
 97
        0
 97
        1
330
95
 92
        1
 93
        1
 72
     4
 94
        3
 73
     0
 74
     0
 95
       53
 96
       49
 40
0.0
 40
0.0
 40
0.0
 40
0.0
 40
1.0
 40
1.0
 40
1.0
 40
2.0
 40
2.0
 40
2.0
 40
3.0
 40
3.0
 40
3.0
 40
4.0
 40
4.0
 40
4.0
 40
5.0
 40
5.0
 40
5.0
 40
6.0
 40
6.0
 40
6.0
 40
7.0
 40
7.0
 40
7.0
 40
8.0
 40
8.0
 40
8.0
 40
9.0
 40
9.0
 40
9.0
 40
10.0
 40
10.0
 40
10.0
 40
11.0
 40
11.0
 40
11.0
 40
12.0
 40
12.0
 40
12.0
 40
13.0
 40
13.0
 40
13.0
 40
14.0
 40
14.0
 40
14.0
 40
15.0
 40
15.0
 40
15.0
 40
16.0
 40
16.0
 40
16.0
 40
16.0
 10
8.217896319558313
 20
-1.132072372153312
 10
8.217896319558313
 20
-1.132072372153312
 10
7.788426409997775
 20
-0.3154781595074623
 10
7.788426409997775
 20
-0.3154781595074623
 10
7.785442096033485
 20
-0.3154781595074623
 10
7.782141263922065
 20
-0.3154781595074623
 10
7.778614347418784
 20
-0.3154781595074623
 10
7.775087430915823
 20
-0.3154781595074623
 10
7.771831815682198
 20
-0.3154781595074623
 10
7.768802284840114
 20
-0.3154781595074623
 10
7.768802284840114
 20
-0.3154781595074623
 10
7.366552935982471
 20
-0.3154781595074623
 10
7.366552935982471
 20
-0.3154781595074623
 10
7.366552935982471
 20
-0.3154781595074623
 10
7.366552935982471
 20
-1.132072372153312
 10
7.366552935982471
 20
-1.132072372153312
 10
7.366552935982471
 20
-1.132072372153312
 10
6.976376493615694
 20
-1.132072372153312
 10
6.976376493615694
 20
-1.132072372153312
 10
6.976376493615694
 20
-1.132072372153312
 10
6.976376493615694
 20
1.050048955019063
 10
6.976376493615694
 20
1.050048955019063
 10
6.976376493615694
 20
1.050048955019063
 10
7.847434436106071
 20
1.050048955019063
 10
7.847434436106071
 20
1.050048955019063
 10
8.002663979117329
 20
1.050048955019063
 10
8.13623463744995
 20
1.022557093046833
 10
8.248146411103613
 20
0.967641194419548
 10
8.360058184757276
 20
0.9126800789141467
 10
8.446241554690027
 20
0.8342966204784673
 10
8.506741737780629
 20
0.732490819112189
 10
8.567241920870587
 20
0.6306398008677949
 10
8.597492012415887
 20
0.5096620431262937
 10
8.597492012415887
 20
0.3695575458873642
 10
8.597492012415887
 20
0.3695575458873642
 10
8.597492012415887
 20
0.3665280150452792
 10
8.597492012415887
 20
0.3665280150452792
 10
8.597492012415887
 20
0.2193244679219927
 10
8.560414172255885
 20
0.0902981058534616
 10
8.486348925692436
 20
-0.0205962880397133
 10
8.412238462250869
 20
-0.1315132903722668
 10
8.312173510696853
 20
-0.2101454416382235
 10
8.186154071031348
 20
-0.2564927418382252
 10
8.186154071031348
 20
-0.2564927418382252
 10
8.662513883330879
 20
-1.132072372153312
 10
8.662513883330879
 20
-1.132072372153312
 10
8.662513883330879
 20
-1.132072372153312
 10
8.217896319558313
 20
-1.132072372153312
 10
8.217896319558313
 20
-1.132072372153312
 97
        0
 97
        1
330
96
 92
        1
 93
        1
 72
     4
 94
        3
 73
     0
 74
     0
 95
       47
 96
       43
 40
0.0
 40
0.0
 40
0.0
 40
0.0
 40
1.0
 40
1.0
 40
1.0
 40
2.0
 40
2.0
 40
2.0
 40
3.0
 40
3.0
 40
3.0
 40
4.0
 40
4.0
 40
4.0
 40
5.0
 40
5.0
 40
5.0
 40
6.0
 40
6.0
 40
6.0
 40
7.0
 40
7.0
 40
7.0
 40
8.0
 40
8.0
 40
8.0
 40
9.0
 40
9.0
 40
9.0
 40
10.0
 40
10.0
 40
10.0
 40
11.0
 40
11.0
 40
11.0
 40
12.0
 40
12.0
 40
12.0
 40
13.0
 40
13.0
 40
13.0
 40
14.0
 40
14.0
 40
14.0
 40
14.0
 10
6.692097980095883
 20
0.3181459553243018
 10
6.692097980095883
 20
0.1729545592829332
 10
6.660807900351679
 20
0.0456690470263432
 10
6.598318174618539
 20
-0.0636879730064106
 10
6.535783232007284
 20
-0.1730902099172799
 10
6.44883117514368
 20
-0.2582788085292444
 10
6.337462004029329
 20
-0.3192537688407
 10
6.226047616036542
 20
-0.3802739460309128
 10
6.096772561137091
 20
-0.4107501219674325
 10
5.949591622453183
 20
-0.4107501219674325
 10
5.949591622453183
 20
-0.4107501219674325
 10
5.498960213874563
 20
-0.4107501219674325
 10
5.498960213874563
 20
-0.4107501219674325
 10
5.498960213874563
 20
-0.4107501219674325
 10
5.498960213874563
 20
-1.132072372153312
 10
5.498960213874563
 20
-1.132072372153312
 10
5.498960213874563
 20
-1.132072372153312
 10
5.108783771507786
 20
-1.132072372153312
 10
5.108783771507786
 20
-1.132072372153312
 10
5.108783771507786
 20
-1.132072372153312
 10
5.108783771507786
 20
1.050048955019063
 10
5.108783771507786
 20
1.050048955019063
 10
5.108783771507786
 20
1.050048955019063
 10
5.303894601130233
 20
1.050048955019063
 10
5.303894601130233
 20
1.050048955019063
 10
5.303894601130233
 20
1.050048955019063
 10
5.498960213874563
 20
1.050048955019063
 10
5.498960213874563
 20
1.050048955019063
 10
5.498960213874563
 20
1.050048955019063
 10
5.949591622453183
 20
1.050048955019063
 10
5.949591622453183
 20
1.050048955019063
 10
6.096772561137091
 20
1.050048955019063
 10
6.226047616036542
 20
1.019798863474083
 10
6.337462004029329
 20
0.9593212888228622
 10
6.44883117514368
 20
0.8988211057322617
 10
6.535783232007284
 20
0.8138811999512164
 10
6.598318174618539
 20
0.704501571479084
 10
6.660807900351679
 20
0.5950993345682147
 10
6.692097980095883
 20
0.467316436650749
 10
6.692097980095883
 20
0.321152877727329
 10
6.692097980095883
 20
0.321152877727329
 10
6.692097980095883
 20
0.3181459553243018
 10
6.692097980095883
 20
0.3181459553243018
 97
        0
 97
        1
330
97
 92
        1
 93
        1
 72
     4
 94
        3
 73
     0
 74
     0
 95
       53
 96
       49
 40
0.0
 40
0.0
 40
0.0
 40
0.0
 40
1.0
 40
1.0
 40
1.0
 40
2.0
 40
2.0
 40
2.0
 40
3.0
 40
3.0
 40
3.0
 40
4.0
 40
4.0
 40
4.0
 40
5.0
 40
5.0
 40
5.0
 40
6.0
 40
6.0
 40
6.0
 40
7.0
 40
7.0
 40
7.0
 40
8.0
 40
8.0
 40
8.0
 40
9.0
 40
9.0
 40
9.0
 40
10.0
 40
10.0
 40
10.0
 40
11.0
 40
11.0
 40
11.0
 40
12.0
 40
12.0
 40
12.0
 40
13.0
 40
13.0
 40
13.0
 40
14.0
 40
14.0
 40
14.0
 40
15.0
 40
15.0
 40
15.0
 40
16.0
 40
16.0
 40
16.0
 40
16.0
 10
4.838115538339905
 20
-1.132072372153312
 10
4.838115538339905
 20
-1.132072372153312
 10
4.388998895182647
 20
-1.132072372153312
 10
4.388998895182647
 20
-1.132072372153312
 10
4.388998895182647
 20
-1.132072372153312
 10
3.873345615688716
 20
-0.3290884398587491
 10
3.873345615688716
 20
-0.3290884398587491
 10
3.873345615688716
 20
-0.3290884398587491
 10
3.859495120672079
 20
-0.3290884398587491
 10
3.859495120672079
 20
-0.3290884398587491
 10
3.859495120672079
 20
-0.3290884398587491
 10
3.342544681983397
 20
-1.132072372153312
 10
3.342544681983397
 20
-1.132072372153312
 10
3.342544681983397
 20
-1.132072372153312
 10
2.917619068686308
 20
-1.132072372153312
 10
2.917619068686308
 20
-1.132072372153312
 10
2.917619068686308
 20
-1.132072372153312
 10
3.629875334784671
 20
-0.0314398606536437
 10
3.629875334784671
 20
-0.0314398606536437
 10
3.629875334784671
 20
-0.0314398606536437
 10
3.629875334784671
 20
-0.0281701151455673
 10
3.629875334784671
 20
-0.0281701151455673
 10
3.629875334784671
 20
-0.0281701151455673
 10
2.92367813037144
 20
1.050048955019063
 10
2.92367813037144
 20
1.050048955019063
 10
2.92367813037144
 20
1.050048955019063
 10
3.38337552303822
 20
1.050048955019063
 10
3.38337552303822
 20
1.050048955019063
 10
3.38337552303822
 20
1.050048955019063
 10
3.891477583864393
 20
0.2289104461097646
 10
3.891477583864393
 20
0.2289104461097646
 10
3.891477583864393
 20
0.2289104461097646
 10
3.907690660770108
 20
0.2289104461097646
 10
3.907690660770108
 20
0.2289104461097646
 10
3.907690660770108
 20
0.2289104461097646
 10
4.413189925043137
 20
1.050048955019063
 10
4.413189925043137
 20
1.050048955019063
 10
4.413189925043137
 20
1.050048955019063
 10
4.850233661709206
 20
1.050048955019063
 10
4.850233661709206
 20
1.050048955019063
 10
4.850233661709206
 20
1.050048955019063
 10
4.121337584417473
 20
-0.03875086465509
 10
4.121337584417473
 20
-0.03875086465509
 10
4.121337584417473
 20
-0.03875086465509
 10
4.121337584417473
 20
-0.0441655858243483
 10
4.121337584417473
 20
-0.0441655858243483
 10
4.121337584417473
 20
-0.0441655858243483
 10
4.838115538339905
 20
-1.132072372153312
 10
4.838115538339905
 20
-1.132072372153312
 97
        0
 97
        1
330
98
 92
        1
 93
        1
 72
     4
 94
        3
 73
     0
 74
     0
 95
       41
 96
       37
 40
0.0
 40
0.0
 40
0.0
 40
0.0
 40
1.0
 40
1.0
 40
1.0
 40
2.0
 40
2.0
 40
2.0
 40
3.0
 40
3.0
 40
3.0
 40
4.0
 40
4.0
 40
4.0
 40
5.0
 40
5.0
 40
5.0
 40
6.0
 40
6.0
 40
6.0
 40
7.0
 40
7.0
 40
7.0
 40
8.0
 40
8.0
 40
8.0
 40
9.0
 40
9.0
 40
9.0
 40
10.0
 40
10.0
 40
10.0
 40
11.0
 40
11.0
 40
11.0
 40
12.0
 40
12.0
 40
12.0
 40
12.0
 10
2.704398879327563
 20
0.7218874611639292
 10
2.704398879327563
 20
0.7218874611639292
 10
1.682135695989444
 20
0.7218874611639292
 10
1.682135695989444
 20
0.7218874611639292
 10
1.682135695989444
 20
0.7218874611639292
 10
1.682135695989444
 20
0.1336384836497944
 10
1.682135695989444
 20
0.1336384836497944
 10
1.682135695989444
 20
0.1336384836497944
 10
2.648442992500732
 20
0.1336384836497944
 10
2.648442992500732
 20
0.1336384836497944
 10
2.648442992500732
 20
0.1336384836497944
 10
2.648442992500732
 20
-0.1808901214143534
 10
2.648442992500732
 20
-0.1808901214143534
 10
2.648442992500732
 20
-0.1808901214143534
 10
1.682135695989444
 20
-0.1808901214143534
 10
1.682135695989444
 20
-0.1808901214143534
 10
1.682135695989444
 20
-0.1808901214143534
 10
1.682135695989444
 20
-0.8039334867372364
 10
1.682135695989444
 20
-0.8039334867372364
 10
1.682135695989444
 20
-0.8039334867372364
 10
2.704398879327563
 20
-0.8039334867372364
 10
2.704398879327563
 20
-0.8039334867372364
 10
2.704398879327563
 20
-0.8039334867372364
 10
2.704398879327563
 20
-1.132072372153312
 10
2.704398879327563
 20
-1.132072372153312
 10
2.704398879327563
 20
-1.132072372153312
 10
1.292004470501103
 20
-1.132072372153312
 10
1.292004470501103
 20
-1.132072372153312
 10
1.292004470501103
 20
-1.132072372153312
 10
1.292004470501103
 20
1.050048955019063
 10
1.292004470501103
 20
1.050048955019063
 10
1.292004470501103
 20
1.050048955019063
 10
2.704398879327563
 20
1.050048955019063
 10
2.704398879327563
 20
1.050048955019063
 10
2.704398879327563
 20
1.050048955019063
 10
2.704398879327563
 20
0.7218874611639292
 10
2.704398879327563
 20
0.7218874611639292
 97
        0
 97
        1
330
99
 92
        1
 93
        1
 72
     4
 94
        3
 73
     0
 74
     0
 95
       29
 96
       25
 40
0.0
 40
0.0
 40
0.0
 40
0.0
 40
1.0
 40
1.0
 40
1.0
 40
2.0
 40
2.0
 40
2.0
 40
3.0
 40
3.0
 40
3.0
 40
4.0
 40
4.0
 40
4.0
 40
5.0
 40
5.0
 40
5.0
 40
6.0
 40
6.0
 40
6.0
 40
7.0
 40
7.0
 40
7.0
 40
8.0
 40
8.0
 40
8.0
 40
8.0
 10
14.6321478870667
 20
1.852083332870312
 10
14.6321478870667
 20
1.852083332870312
 10
0.761757443554465
 20
1.852083332870312
 10
0.761757443554465
 20
1.852083332870312
 10
0.5588297461057321
 20
1.852083332870312
 10
0.3927990213038966
 20
1.686052608068477
 10
0.3927990213038966
 20
1.483124910619744
 10
0.3927990213038966
 20
1.483124910619744
 10
0.3927990213038966
 20
-1.483124910619423
 10
0.3927990213038966
 20
-1.483124910619423
 10
0.3927990213038966
 20
-1.686052608068156
 10
0.5588297461057321
 20
-1.852083332869991
 10
0.761757443554465
 20
-1.852083332869991
 10
0.761757443554465
 20
-1.852083332869991
 10
14.6321478870667
 20
-1.852083332869991
 10
14.6321478870667
 20
-1.852083332869991
 10
14.83507558451511
 20
-1.852083332869991
 10
15.00110630931694
 20
-1.686052608068156
 10
15.00110630931694
 20
-1.483124910619423
 10
15.00110630931694
 20
-1.483124910619423
 10
15.00110630931694
 20
1.483124910619744
 10
15.00110630931694
 20
1.483124910619744
 10
15.00110630931694
 20
1.686052608068477
 10
14.83507558451511
 20
1.852083332870312
 10
14.6321478870667
 20
1.852083332870312
 97
        0
 97
        1
330
9A
 75
     2
 76
     1
 98
        1
 10
0.0
 20
0.0
450
        0
451
        0
460
0.0
461
0.0
452
        0
462
0.0
453
        0
470

  0
ENDBLK
  5
8E
330
8B
100
AcDbEntity
  8
0
100
AcDbBlockEnd
  0
ENDSEC
  0
SECTION
  2
ENTITIES
  0
INSERT
  5
7A
330
70
100
AcDbEntity
  8
Layer 1
100
AcDbBlockReference
  2
Block_0
 10
0.0
 20
0.0
 30
0.0
  0
INSERT
  5
8C
330
70
100
AcDbEntity
  8
Layer 1
100
AcDbBlockReference
  2
Block_1
 10
0.0
 20
0.0
 30
0.0
  0
ENDSEC
  0
SECTION
  2
OBJECTS
  0
DICTIONARY
  5
C
330
0
100
AcDbDictionary
281
     1
  3
ACAD_COLOR
350
63
  3
ACAD_DETAILVIEWSTYLE
350
6A
  3
ACAD_GROUP
350
D
  3
ACAD_LAYOUT
350
62
  3
ACAD_MATERIAL
350
10
  3
ACAD_MLEADERSTYLE
350
66
  3
ACAD_MLINESTYLE
350
5F
  3
ACAD_PLOTSETTINGS
350
61
  3
ACAD_PLOTSTYLENAME
350
E
  3
ACAD_SCALELIST
350
42
  3
ACAD_SECTIONVIEWSTYLE
350
68
  3
ACAD_TABLESTYLE
350
64
  3
ACAD_VISUALSTYLE
350
29
  3
ACDB_RECOMPOSE_DATA
350
A4
  3
AcDbVariableDictionary
350
9C
  0
DICTIONARY
  5
63
102
{ACAD_REACTORS
330
C
102
}
330
C
100
AcDbDictionary
281
     1
  0
DICTIONARY
  5
6A
102
{ACAD_REACTORS
330
C
102
}
330
C
100
AcDbDictionary
281
     1
  3
Imperial24
350
6B
  0
DICTIONARY
  5
D
102
{ACAD_REACTORS
330
C
102
}
330
C
100
AcDbDictionary
281
     1
  0
DICTIONARY
  5
62
102
{ACAD_REACTORS
330
C
102
}
330
C
100
AcDbDictionary
281
     1
  3
Layout1
350
6F
  3
Layout2
350
77
  3
Model
350
73
  0
DICTIONARY
  5
10
102
{ACAD_REACTORS
330
C
102
}
330
C
100
AcDbDictionary
281
     1
  3
ByBlock
350
19
  3
ByLayer
350
11
  3
Global
350
21
  0
DICTIONARY
  5
66
102
{ACAD_REACTORS
330
C
102
}
330
C
100
AcDbDictionary
281
     1
  3
Standard
350
67
  0
DICTIONARY
  5
5F
102
{ACAD_REACTORS
330
C
102
}
330
C
100
AcDbDictionary
281
     1
  3
Standard
350
60
  0
DICTIONARY
  5
61
102
{ACAD_REACTORS
330
C
102
}
330
C
100
AcDbDictionary
281
     1
  0
ACDBDICTIONARYWDFLT
  5
E
102
{ACAD_REACTORS
330
C
102
}
330
C
100
AcDbDictionary
281
     1
  3
Normal
350
F
100
AcDbDictionaryWithDefault
340
F
  0
DICTIONARY
  5
42
102
{ACAD_REACTORS
330
C
102
}
330
C
100
AcDbDictionary
281
     1
  3
A0
350
43
  3
A1
350
44
  3
A2
350
45
  3
A3
350
46
  3
A4
350
47
  3
A5
350
48
  3
A6
350
49
  3
A7
350
4A
  3
A8
350
4B
  3
A9
350
4C
  3
B0
350
4D
  3
B1
350
4E
  3
B2
350
4F
  3
B3
350
50
  3
B4
350
51
  3
B5
350
52
  3
B6
350
53
  0
DICTIONARY
  5
68
102
{ACAD_REACTORS
330
C
102
}
330
C
100
AcDbDictionary
281
     1
  3
Imperial24
350
69
  0
DICTIONARY
  5
64
102
{ACAD_REACTORS
330
C
102
}
330
C
100
AcDbDictionary
281
     1
  3
Standard
350
65
  0
DICTIONARY
  5
29
102
{ACAD_REACTORS
330
C
102
}
330
C
100
AcDbDictionary
281
     1
  3
2dWireframe
350
2F
  3
Basic
350
2E
  3
Brighten
350
35
  3
ColorChange
350
39
  3
Conceptual
350
32
  3
Dim
350
34
  3
EdgeColorOff
350
41
  3
Facepattern
350
38
  3
Flat
350
2A
  3
FlatWithEdges
350
2B
  3
Gouraud
350
2C
  3
GouraudWithEdges
350
2D
  3
Hidden
350
31
  3
JitterOff
350
3F
  3
Linepattern
350
37
  3
OverhangOff
350
40
  3
Realistic
350
33
  3
Shaded
350
3E
  3
Shaded with edges
350
3D
  3
Shades of Gray
350
3A
  3
Sketchy
350
3B
  3
Thicken
350
36
  3
Wireframe
350
30
  3
X-Ray
350
3C
  0
XRECORD
  5
A4
102
{ACAD_REACTORS
330
C
102
}
330
C
100
AcDbXrecord
280
     1
 90
        1
330
65
  0
DICTIONARY
  5
9C
102
{ACAD_REACTORS
330
C
102
}
330
C
100
AcDbDictionary
281
     1
  3
CANNOSCALE
350
A1
  3
CMLEADERSTYLE
350
9E
  3
CTABLESTYLE
350
9D
  3
CVIEWDETAILSTYLE
350
9F
  3
CVIEWSECTIONSTYLE
350
A0
  0
ACDBDETAILVIEWSTYLE
  5
6B
102
{ACAD_REACTORS
330
6A
102
}
330
6A
100
AcDbModelDocViewStyle
 70
     0
  3
Imperial24
290
     1
300
Imperial24
 90
        0
100
AcDbDetailViewStyle
 70
     0
 71
     0
 90
        3
 71
     1
340
55
 62
   256
 40
0.24
340
0
 62
   256
 40
0.24
300

 40
0.36
280
     3
 71
     2
340
5D
 90
       25
 62
   256
 71
     3
340
55
 62
   256
 40
0.24
 90
        1
 40
0.75
 90
        1
300
%<\AcVar ViewType \f "%tc1">% %<\AcVar ViewDetailId>%\PSCALE %<\AcVar ViewScale \f "%sn">%
 71
     4
340
5D
 90
       25
 62
   256
340
5D
 90
       25
 62
   256
280
     0
  0
LAYOUT
  5
6F
102
{ACAD_REACTORS
330
62
102
}
330
62
100
AcDbPlotSettings
  1

  2

  4

  6

 40
0.0
 41
0.0
 42
0.0
 43
0.0
 44
0.0
 45
0.0
 46
0.0
 47
0.0
 48
0.0
 49
0.0
140
0.0
141
0.0
142
1.0
143
1.0
 70
   688
 72
     0
 73
     0
 74
     5
  7

 75
    16
147
1.0
 76
     0
 77
     2
 78
   300
148
0.0
149
0.0
100
AcDbLayout
  1
Layout1
 70
     1
 71
     1
 10
0.0
 20
0.0
 11
12.0
 21
9.0
 12
0.0
 22
0.0
 32
0.0
 14
0.0
 24
0.0
 34
0.0
 15
0.0
 25
0.0
 35
0.0
146
0.0
 13
0.0
 23
0.0
 33
0.0
 16
1.0
 26
0.0
 36
0.0
 17
0.0
 27
1.0
 37
0.0
 76
     0
330
6C
  0
LAYOUT
  5
77
102
{ACAD_REACTORS
330
62
102
}
330
62
100
AcDbPlotSettings
  1

  2

  4

  6

 40
0.0
 41
0.0
 42
0.0
 43
0.0
 44
0.0
 45
0.0
 46
0.0
 47
0.0
 48
0.0
 49
0.0
140
0.0
141
0.0
142
1.0
143
1.0
 70
   688
 72
     0
 73
     0
 74
     5
  7

 75
    16
147
1.0
 76
     0
 77
     2
 78
   300
148
0.0
149
0.0
100
AcDbLayout
  1
Layout2
 70
     1
 71
     2
 10
0.0
 20
0.0
 11
12.0
 21
9.0
 12
0.0
 22
0.0
 32
0.0
 14
0.0
 24
0.0
 34
0.0
 15
0.0
 25
0.0
 35
0.0
146
0.0
 13
0.0
 23
0.0
 33
0.0
 16
1.0
 26
0.0
 36
0.0
 17
0.0
 27
1.0
 37
0.0
 76
     0
330
74
  0
LAYOUT
  5
73
102
{ACAD_REACTORS
330
62
102
}
330
62
100
AcDbPlotSettings
  1

  2

  4

  6

 40
0.0
 41
0.0
 42
0.0
 43
0.0
 44
0.0
 45
0.0
 46
0.0
 47
0.0
 48
0.0
 49
0.0
140
0.0
141
0.0
142
1.0
143
1.0
 70
  1712
 72
     0
 73
     0
 74
     0
  7

 75
     0
147
1.0
 76
     0
 77
     2
 78
   300
148
0.0
149
0.0
100
AcDbLayout
  1
Model
 70
     1
 71
     0
 10
0.0
 20
0.0
 11
12.0
 21
9.0
 12
0.0
 22
0.0
 32
0.0
 14
0.0
 24
0.0
 34
0.0
 15
0.0
 25
0.0
 35
0.0
146
0.0
 13
0.0
 23
0.0
 33
0.0
 16
1.0
 26
0.0
 36
0.0
 17
0.0
 27
1.0
 37
0.0
 76
     0
330
70
  0
MATERIAL
  5
19
102
{ACAD_XDICTIONARY
360
1A
102
}
102
{ACAD_REACTORS
330
10
102
}
330
10
100
AcDbMaterial
  1
ByBlock
 72
     0
 43
0.0208333333333333
 43
0.0
 43
0.0
 43
0.0
 43
0.0
 43
0.0208333333333333
 43
0.0
 43
0.0
 43
0.0
 43
0.0
 43
1.0
 43
0.0
 43
0.0
 43
0.0
 43
0.0
 43
1.0
 77
     0
 47
0.0208333333333333
 47
0.0
 47
0.0
 47
0.0
 47
0.0
 47
0.0208333333333333
 47
0.0
 47
0.0
 47
0.0
 47
0.0
 47
1.0
 47
0.0
 47
0.0
 47
0.0
 47
0.0
 47
1.0
171
     0
 49
0.0208333333333333
 49
0.0
 49
0.0
 49
0.0
 49
0.0
 49
0.0208333333333333
 49
0.0
 49
0.0
 49
0.0
 49
0.0
 49
1.0
 49
0.0
 49
0.0
 49
0.0
 49
0.0
 49
1.0
175
     0
142
0.0208333333333333
142
0.0
142
0.0
142
0.0
142
0.0
142
0.0208333333333333
142
0.0
142
0.0
142
0.0
142
0.0
142
1.0
142
0.0
142
0.0
142
0.0
142
0.0
142
1.0
179
     0
144
0.0208333333333333
144
0.0
144
0.0
144
0.0
144
0.0
144
0.0208333333333333
144
0.0
144
0.0
144
0.0
144
0.0
144
1.0
144
0.0
144
0.0
144
0.0
144
0.0
144
1.0
147
0.0208333333333333
147
0.0
147
0.0
147
0.0
147
0.0
147
0.0208333333333333
147
0.0
147
0.0
147
0.0
147
0.0
147
1.0
147
0.0
147
0.0
147
0.0
147
0.0
147
1.0
  0
MATERIAL
  5
11
102
{ACAD_XDICTIONARY
360
12
102
}
102
{ACAD_REACTORS
330
10
102
}
330
10
100
AcDbMaterial
  1
ByLayer
 72
     0
 43
0.0208333333333333
 43
0.0
 43
0.0
 43
0.0
 43
0.0
 43
0.0208333333333333
 43
0.0
 43
0.0
 43
0.0
 43
0.0
 43
1.0
 43
0.0
 43
0.0
 43
0.0
 43
0.0
 43
1.0
 77
     0
 47
0.0208333333333333
 47
0.0
 47
0.0
 47
0.0
 47
0.0
 47
0.0208333333333333
 47
0.0
 47
0.0
 47
0.0
 47
0.0
 47
1.0
 47
0.0
 47
0.0
 47
0.0
 47
0.0
 47
1.0
171
     0
 49
0.0208333333333333
 49
0.0
 49
0.0
 49
0.0
 49
0.0
 49
0.0208333333333333
 49
0.0
 49
0.0
 49
0.0
 49
0.0
 49
1.0
 49
0.0
 49
0.0
 49
0.0
 49
0.0
 49
1.0
175
     0
142
0.0208333333333333
142
0.0
142
0.0
142
0.0
142
0.0
142
0.0208333333333333
142
0.0
142
0.0
142
0.0
142
0.0
142
1.0
142
0.0
142
0.0
142
0.0
142
0.0
142
1.0
179
     0
144
0.0208333333333333
144
0.0
144
0.0
144
0.0
144
0.0
144
0.0208333333333333
144
0.0
144
0.0
144
0.0
144
0.0
144
1.0
144
0.0
144
0.0
144
0.0
144
0.0
144
1.0
147
0.0208333333333333
147
0.0
147
0.0
147
0.0
147
0.0
147
0.0208333333333333
147
0.0
147
0.0
147
0.0
147
0.0
147
1.0
147
0.0
147
0.0
147
0.0
147
0.0
147
1.0
  0
MATERIAL
  5
21
102
{ACAD_XDICTIONARY
360
22
102
}
102
{ACAD_REACTORS
330
10
102
}
330
10
100
AcDbMaterial
  1
Global
 72
     0
 43
0.0208333333333333
 43
0.0
 43
0.0
 43
0.0
 43
0.0
 43
0.0208333333333333
 43
0.0
 43
0.0
 43
0.0
 43
0.0
 43
1.0
 43
0.0
 43
0.0
 43
0.0
 43
0.0
 43
1.0
 77
     0
 47
0.0208333333333333
 47
0.0
 47
0.0
 47
0.0
 47
0.0
 47
0.0208333333333333
 47
0.0
 47
0.0
 47
0.0
 47
0.0
 47
1.0
 47
0.0
 47
0.0
 47
0.0
 47
0.0
 47
1.0
171
     0
 49
0.0208333333333333
 49
0.0
 49
0.0
 49
0.0
 49
0.0
 49
0.0208333333333333
 49
0.0
 49
0.0
 49
0.0
 49
0.0
 49
1.0
 49
0.0
 49
0.0
 49
0.0
 49
0.0
 49
1.0
175
     0
142
0.0208333333333333
142
0.0
142
0.0
142
0.0
142
0.0
142
0.0208333333333333
142
0.0
142
0.0
142
0.0
142
0.0
142
1.0
142
0.0
142
0.0
142
0.0
142
0.0
142
1.0
179
     0
144
0.0208333333333333
144
0.0
144
0.0
144
0.0
144
0.0
144
0.0208333333333333
144
0.0
144
0.0
144
0.0
144
0.0
144
1.0
144
0.0
144
0.0
144
0.0
144
0.0
144
1.0
147
0.0208333333333333
147
0.0
147
0.0
147
0.0
147
0.0
147
0.0208333333333333
147
0.0
147
0.0
147
0.0
147
0.0
147
1.0
147
0.0
147
0.0
147
0.0
147
0.0
147
1.0
  0
MLEADERSTYLE
  5
67
102
{ACAD_REACTORS
330
66
102
}
330
66
100
AcDbMLeaderStyle
179
     2
170
     2
171
     1
172
     0
 90
        2
 40
0.0
 41
0.0
173
     1
 91
-1056964608
340
5B
 92
       -2
290
     1
 42
0.09
291
     1
 43
0.36
  3
Standard
 44
0.18
300

342
55
174
     1
178
     6
175
     1
176
     0
 93
-1056964608
 45
0.18
292
     0
297
     0
 46
0.18
 94
-1056964608
 47
1.0
 49
1.0
140
1.0
293
     1
141
0.0
294
     1
177
     0
142
1.0
295
     1
296
     0
143
0.125
271
     0
272
     9
273
     9
298
     1
  0
MLINESTYLE
  5
60
102
{ACAD_REACTORS
330
5F
102
}
330
5F
100
AcDbMlineStyle
  2
STANDARD
 70
     0
  3

 62
   256
 51
90.0
 52
90.0
 71
     2
 49
0.5
 62
   256
  6
BYLAYER
 49
-0.5
 62
   256
  6
BYLAYER
  0
ACDBPLACEHOLDER
  5
F
102
{ACAD_REACTORS
330
E
102
}
330
E
  0
SCALE
  5
43
102
{ACAD_REACTORS
330
42
102
}
330
42
100
AcDbScale
 70
     0
300
1:1
140
1.0
141
1.0
290
     1
  0
SCALE
  5
44
102
{ACAD_REACTORS
330
42
102
}
330
42
100
AcDbScale
 70
     0
300
1/128" = 1'-0"
140
0.0078125
141
12.0
290
     0
  0
SCALE
  5
45
102
{ACAD_REACTORS
330
42
102
}
330
42
100
AcDbScale
 70
     0
300
1/64" = 1'-0"
140
0.015625
141
12.0
290
     0
  0
SCALE
  5
46
102
{ACAD_REACTORS
330
42
102
}
330
42
100
AcDbScale
 70
     0
300
1/32" = 1'-0"
140
0.03125
141
12.0
290
     0
  0
SCALE
  5
47
102
{ACAD_REACTORS
330
42
102
}
330
42
100
AcDbScale
 70
     0
300
1/16" = 1'-0"
140
0.0625
141
12.0
290
     0
  0
SCALE
  5
48
102
{ACAD_REACTORS
330
42
102
}
330
42
100
AcDbScale
 70
     0
300
3/32" = 1'-0"
140
0.09375
141
12.0
290
     0
  0
SCALE
  5
49
102
{ACAD_REACTORS
330
42
102
}
330
42
100
AcDbScale
 70
     0
300
1/8" = 1'-0"
140
0.125
141
12.0
290
     0
  0
SCALE
  5
4A
102
{ACAD_REACTORS
330
42
102
}
330
42
100
AcDbScale
 70
     0
300
3/16" = 1'-0"
140
0.1875
141
12.0
290
     0
  0
SCALE
  5
4B
102
{ACAD_REACTORS
330
42
102
}
330
42
100
AcDbScale
 70
     0
300
1/4" = 1'-0"
140
0.25
141
12.0
290
     0
  0
SCALE
  5
4C
102
{ACAD_REACTORS
330
42
102
}
330
42
100
AcDbScale
 70
     0
300
3/8" = 1'-0"
140
0.375
141
12.0
290
     0
  0
SCALE
  5
4D
102
{ACAD_REACTORS
330
42
102
}
330
42
100
AcDbScale
 70
     0
300
1/2" = 1'-0"
140
0.5
141
12.0
290
     0
  0
SCALE
  5
4E
102
{ACAD_REACTORS
330
42
102
}
330
42
100
AcDbScale
 70
     0
300
3/4" = 1'-0"
140
0.75
141
12.0
290
     0
  0
SCALE
  5
4F
102
{ACAD_REACTORS
330
42
102
}
330
42
100
AcDbScale
 70
     0
300
1" = 1'-0"
140
1.0
141
12.0
290
     0
  0
SCALE
  5
50
102
{ACAD_REACTORS
330
42
102
}
330
42
100
AcDbScale
 70
     0
300
1-1/2" = 1'-0"
140
1.5
141
12.0
290
     0
  0
SCALE
  5
51
102
{ACAD_REACTORS
330
42
102
}
330
42
100
AcDbScale
 70
     0
300
3" = 1'-0"
140
3.0
141
12.0
290
     0
  0
SCALE
  5
52
102
{ACAD_REACTORS
330
42
102
}
330
42
100
AcDbScale
 70
     0
300
6" = 1'-0"
140
6.0
141
12.0
290
     0
  0
SCALE
  5
53
102
{ACAD_REACTORS
330
42
102
}
330
42
100
AcDbScale
 70
     0
300
1'-0" = 1'-0"
140
12.0
141
12.0
290
     0
  0
ACDBSECTIONVIEWSTYLE
  5
69
102
{ACAD_REACTORS
330
68
102
}
330
68
100
AcDbModelDocViewStyle
 70
     0
  3
Imperial24
290
     1
300
Imperial24
 90
        0
100
AcDbSectionViewStyle
 70
     0
 71
     0
 90
       78
 71
     1
340
55
 62
   256
 40
0.24
340
0
340
0
 62
   256
 40
0.24
300
I, O, Q, S, X, Z
 40
0.48
 90
        3
 40
0.18
 90
        1
 71
     2
340
5D
 90
       25
 62
   256
340
5D
 90
       50
 62
   256
 40
0.24
 40
0.0
 40
0.24
 71
     3
340
55
 62
   256
 40
0.24
 90
        1
 40
0.75
 90
        1
300
%<\AcVar ViewType \f "%tc1">% %<\AcVar ViewSectionStartId>%-%<\AcVar ViewSectionEndId>%\PSCALE %<\AcVar ViewScale \f "%sn">%
 71
     4
 62
   256
 62
   257
300
ANSI31
 40
1.0
 90
        0
290
     0
290
     0
 90
        6
 40
0.0
 40
1.570796326794896
 40
0.2617993877991494
 40
1.308996938995747
 40
-0.2617993877991494
 40
1.832595714594046
  0
TABLESTYLE
  5
65
102
{ACAD_XDICTIONARY
360
A2
102
}
102
{ACAD_REACTORS
330
64
102
}
330
64
100
AcDbTableStyle
280
     0
  3
Standard
 70
     0
 71
     0
 40
0.06
 41
0.06
280
     0
281
     0
  7
Standard
140
0.18
170
     2
 62
     0
 63
     7
283
     0
 90
      512
 91
        0
  1

274
    -2
284
     1
 64
     0
275
    -2
285
     1
 65
     0
276
    -2
286
     1
 66
     0
277
    -2
287
     1
 67
     0
278
    -2
288
     1
 68
     0
279
    -2
289
     1
 69
     0
  7
Standard
140
0.25
170
     5
 62
     0
 63
     7
283
     0
 90
      512
 91
        0
  1

274
    -2
284
     1
 64
     0
275
    -2
285
     1
 65
     0
276
    -2
286
     1
 66
     0
277
    -2
287
     1
 67
     0
278
    -2
288
     1
 68
     0
279
    -2
289
     1
 69
     0
  7
Standard
140
0.18
170
     5
 62
     0
 63
     7
283
     0
 90
      512
 91
        0
  1

274
    -2
284
     1
 64
     0
275
    -2
285
     1
 65
     0
276
    -2
286
     1
 66
     0
277
    -2
287
     1
 67
     0
278
    -2
288
     1
 68
     0
279
    -2
289
     1
 69
     0
  0
VISUALSTYLE
  5
2F
102
{ACAD_REACTORS
330
29
102
}
330
29
100
AcDbVisualStyle
  2
2dWireframe
 70
     4
177
     3
291
     0
 70
    58
 90
        0
176
     1
 90
        2
176
     1
 90
        0
176
     1
 90
        0
176
     1
 40
0.6
176
     1
 40
30.0
176
     1
 62
     7
420
 16777215
176
     1
 90
        1
176
     1
 90
        4
176
     1
 62
     7
176
     1
 62
   257
176
     1
 90
        1
176
     1
 90
        1
176
     1
 40
1.0
176
     1
 90
        0
176
     1
 62
   257
176
     1
 40
1.0
176
     1
 90
        1
176
     1
 90
        6
176
     1
 90
        2
176
     1
 62
     7
176
     1
 90
        5
176
     1
 90
        0
176
     1
 90
        0
176
     1
290
     0
176
     1
 90
        1
176
     1
 40
0.0
176
     1
 90
        0
176
     1
290
     1
176
     1
290
     1
176
     1
290
     0
176
     1
290
     0
176
     1
290
     0
176
     1
290
     0
176
     1
290
     0
176
     1
290
     0
176
     1
290
     0
176
     1
 90
       50
176
     1
 40
0.0
176
     1
 40
1.0
176
     1
 90
        0
176
     1
 62
    18
420
        0
176
     1
 90
       50
176
     1
 90
        3
176
     1
 62
     5
420
      255
176
     1
290
     0
176
     1
 90
       50
176
     1
 90
       50
176
     1
 90
       50
176
     1
290
     0
176
     1
 90
       50
176
     1
 62
   256
176
     0
 40
1.0
176
     0
 90
        2
176
     1
  1
strokes_ogs.tif
176
     1
290
     0
176
     1
 40
1.0
176
     1
 40
1.0
176
     1
  0
VISUALSTYLE
  5
2E
102
{ACAD_REACTORS
330
29
102
}
330
29
100
AcDbVisualStyle
  2
Basic
 70
     7
177
     3
291
     1
 70
    58
 90
        1
176
     1
 90
        0
176
     1
 90
        1
176
     1
 90
        0
176
     1
 40
0.6
176
     1
 40
30.0
176
     1
 62
     7
420
 16777215
176
     1
 90
        0
176
     1
 90
        4
176
     1
 62
     7
176
     1
 62
   257
176
     1
 90
        1
176
     1
 90
        1
176
     1
 40
1.0
176
     1
 90
        8
176
     1
 62
     7
176
     1
 40
1.0
176
     1
 90
        1
176
     1
 90
        6
176
     1
 90
        2
176
     1
 62
     7
176
     1
 90
        5
176
     1
 90
        0
176
     1
 90
        0
176
     1
290
     0
176
     1
 90
        1
176
     1
 40
0.0
176
     1
 90
        0
176
     1
290
     0
176
     1
290
     1
176
     1
290
     1
176
     1
290
     0
176
     1
290
     0
176
     1
290
     0
176
     1
290
     0
176
     1
290
     0
176
     1
290
     0
176
     1
 90
       50
176
     1
 40
0.0
176
     1
 40
1.0
176
     1
 90
        0
176
     1
 62
    18
420
        0
176
     1
 90
       50
176
     1
 90
        3
176
     1
 62
     5
420
      255
176
     1
290
     0
176
     1
 90
       50
176
     1
 90
       50
176
     1
 90
       50
176
     1
290
     0
176
     1
 90
       50
176
     1
 62
   256
176
     0
 40
1.0
176
     0
 90
        2
176
     1
  1
strokes_ogs.tif
176
     1
290
     0
176
     1
 40
1.0
176
     1
 40
1.0
176
     1
  0
VISUALSTYLE
  5
35
102
{ACAD_REACTORS
330
29
102
}
330
29
100
AcDbVisualStyle
  2
Brighten
 70
    12
177
     3
291
     1
 70
    58
 90
        2
176
     1
 90
        2
176
     1
 90
        0
176
     1
 90
        0
176
     1
 40
0.6
176
     1
 40
30.0
176
     1
 62
     7
420
 16777215
176
     1
 90
        1
176
     1
 90
        4
176
     1
 62
     7
176
     1
 62
   257
176
     1
 90
        1
176
     1
 90
        1
176
     1
 40
1.0
176
     1
 90
        8
176
     1
 62
     7
176
     1
 40
1.0
176
     1
 90
        1
176
     1
 90
        6
176
     1
 90
        2
176
     1
 62
     7
176
     1
 90
        5
176
     1
 90
        0
176
     1
 90
        0
176
     1
290
     0
176
     1
 90
        1
176
     1
 40
50.0
176
     1
 90
        0
176
     1
290
     0
176
     1
290
     1
176
     1
290
     1
176
     1
290
     0
176
     1
290
     0
176
     1
290
     0
176
     1
290
     0
176
     1
290
     0
176
     1
290
     0
176
     1
 90
       50
176
     1
 40
0.0
176
     1
 40
1.0
176
     1
 90
        0
176
     1
 62
    18
420
        0
176
     1
 90
       50
176
     1
 90
        3
176
     1
 62
     5
420
      255
176
     1
290
     0
176
     1
 90
       50
176
     1
 90
       50
176
     1
 90
       50
176
     1
290
     0
176
     1
 90
       50
176
     1
 62
   256
176
     0
 40
1.0
176
     0
 90
        2
176
     1
  1
strokes_ogs.tif
176
     1
290
     0
176
     1
 40
1.0
176
     1
 40
1.0
176
     1
  0
VISUALSTYLE
  5
39
102
{ACAD_REACTORS
330
29
102
}
330
29
100
AcDbVisualStyle
  2
ColorChange
 70
    16
177
     3
291
     1
 70
    58
 90
        2
176
     1
 90
        2
176
     1
 90
        3
176
     1
 90
        0
176
     1
 40
0.6
176
     1
 40
30.0
176
     1
 62
     8
420
  8421504
176
     1
 90
        1
176
     1
 90
        4
176
     1
 62
     7
176
     1
 62
   257
176
     1
 90
        1
176
     1
 90
        1
176
     1
 40
1.0
176
     1
 90
        8
176
     1
 62
     8
420
  8421504
176
     1
 40
1.0
176
     1
 90
        1
176
     1
 90
        6
176
     1
 90
        2
176
     1
 62
     7
176
     1
 90
        5
176
     1
 90
        0
176
     1
 90
        0
176
     1
290
     0
176
     1
 90
        1
176
     1
 40
0.0
176
     1
 90
        0
176
     1
290
     0
176
     1
290
     1
176
     1
290
     1
176
     1
290
     0
176
     1
290
     0
176
     1
290
     0
176
     1
290
     0
176
     1
290
     0
176
     1
290
     0
176
     1
 90
       50
176
     1
 40
0.0
176
     1
 40
1.0
176
     1
 90
        0
176
     1
 62
    18
420
        0
176
     1
 90
       50
176
     1
 90
        3
176
     1
 62
     5
420
      255
176
     1
290
     0
176
     1
 90
       50
176
     1
 90
       50
176
     1
 90
       50
176
     1
290
     0
176
     1
 90
       50
176
     1
 62
   256
176
     0
 40
1.0
176
     0
 90
        2
176
     1
  1
strokes_ogs.tif
176
     1
290
     0
176
     1
 40
1.0
176
     1
 40
1.0
176
     1
  0
VISUALSTYLE
  5
32
102
{ACAD_REACTORS
330
29
102
}
330
29
100
AcDbVisualStyle
  2
Conceptual
 70
     9
177
     3
291
     0
 70
    58
 90
        3
176
     1
 90
        2
176
     1
 90
        0
176
     1
 90
        0
176
     1
 40
0.6
176
     1
 40
30.0
176
     1
 62
     7
420
 16777215
176
     1
 90
        2
176
     1
 90
        2
176
     1
 62
     7
176
     1
 62
   257
176
     1
 90
        1
176
     1
 90
        1
176
     1
 40
179.0
176
     1
 90
        8
176
     1
 62
     7
176
     1
 40
1.0
176
     1
 90
        1
176
     1
 90
        6
176
     1
 90
        2
176
     1
 62
     7
176
     1
 90
        3
176
     1
 90
        0
176
     1
 90
        0
176
     1
290
     0
176
     1
 90
        1
176
     1
 40
0.0
176
     1
 90
        0
176
     1
290
     0
176
     1
290
     1
176
     1
290
     1
176
     1
290
     0
176
     1
290
     0
176
     1
290
     0
176
     1
290
     0
176
     1
290
     0
176
     1
290
     0
176
     1
 90
       50
176
     1
 40
0.0
176
     1
 40
1.0
176
     1
 90
        0
176
     1
 62
    18
420
        0
176
     1
 90
       50
176
     1
 90
        3
176
     1
 62
     5
420
      255
176
     1
290
     0
176
     1
 90
       50
176
     1
 90
       50
176
     1
 90
       50
176
     1
290
     0
176
     1
 90
       50
176
     1
 62
   256
176
     0
 40
1.0
176
     0
 90
        2
176
     1
  1
strokes_ogs.tif
176
     1
290
     0
176
     1
 40
1.0
176
     1
 40
1.0
176
     1
  0
VISUALSTYLE
  5
34
102
{ACAD_REACTORS
330
29
102
}
330
29
100
AcDbVisualStyle
  2
Dim
 70
    11
177
     3
291
     1
 70
    58
 90
        2
176
     1
 90
        2
176
     1
 90
        0
176
     1
 90
        0
176
     1
 40
0.6
176
     1
 40
30.0
176
     1
 62
     7
420
 16777215
176
     1
 90
        1
176
     1
 90
        4
176
     1
 62
     7
176
     1
 62
   257
176
     1
 90
        1
176
     1
 90
        1
176
     1
 40
1.0
176
     1
 90
        8
176
     1
 62
     7
176
     1
 40
1.0
176
     1
 90
        1
176
     1
 90
        6
176
     1
 90
        2
176
     1
 62
     7
176
     1
 90
        5
176
     1
 90
        0
176
     1
 90
        0
176
     1
290
     0
176
     1
 90
        1
176
     1
 40
-50.0
176
     1
 90
        0
176
     1
290
     0
176
     1
290
     1
176
     1
290
     1
176
     1
290
     0
176
     1
290
     0
176
     1
290
     0
176
     1
290
     0
176
     1
290
     0
176
     1
290
     0
176
     1
 90
       50
176
     1
 40
0.0
176
     1
 40
1.0
176
     1
 90
        0
176
     1
 62
    18
420
        0
176
     1
 90
       50
176
     1
 90
        3
176
     1
 62
     5
420
      255
176
     1
290
     0
176
     1
 90
       50
176
     1
 90
       50
176
     1
 90
       50
176
     1
290
     0
176
     1
 90
       50
176
     1
 62
   256
176
     0
 40
1.0
176
     0
 90
        2
176
     1
  1
strokes_ogs.tif
176
     1
290
     0
176
     1
 40
1.0
176
     1
 40
1.0
176
     1
  0
VISUALSTYLE
  5
41
102
{ACAD_REACTORS
330
29
102
}
330
29
100
AcDbVisualStyle
  2
EdgeColorOff
 70
    22
177
     3
291
     1
 70
    58
 90
        2
176
     0
 90
        2
176
     0
 90
        0
176
     0
 90
        0
176
     0
 40
0.6
176
     0
 40
30.0
176
     0
 62
     7
420
 16777215
176
     0
 90
        1
176
     0
 90
        4
176
     0
 62
     7
176
     0
 62
   257
176
     0
 90
        1
176
     0
 90
        1
176
     0
 40
1.0
176
     0
 90
        8
176
     2
 62
     7
176
     0
 40
1.0
176
     0
 90
        1
176
     0
 90
        6
176
     0
 90
        2
176
     0
 62
     7
176
     0
 90
        5
176
     0
 90
        0
176
     0
 90
        0
176
     0
290
     0
176
     0
 90
        1
176
     0
 40
0.0
176
     0
 90
        0
176
     0
290
     0
176
     0
290
     1
176
     0
290
     1
176
     0
290
     0
176
     0
290
     0
176
     0
290
     0
176
     0
290
     0
176
     0
290
     0
176
     0
290
     0
176
     0
 90
       50
176
     0
 40
0.0
176
     0
 40
1.0
176
     0
 90
        0
176
     0
 62
    18
420
        0
176
     0
 90
       50
176
     0
 90
        3
176
     0
 62
     5
420
      255
176
     0
290
     0
176
     0
 90
       50
176
     0
 90
       50
176
     0
 90
       50
176
     0
290
     0
176
     0
 90
       50
176
     0
 62
   256
176
     0
 40
1.0
176
     0
 90
        2
176
     0
  1
strokes_ogs.tif
176
     0
290
     0
176
     0
 40
1.0
176
     0
 40
1.0
176
     0
  0
VISUALSTYLE
  5
38
102
{ACAD_REACTORS
330
29
102
}
330
29
100
AcDbVisualStyle
  2
Facepattern
 70
    15
177
     3
291
     1
 70
    58
 90
        2
176
     1
 90
        2
176
     1
 90
        0
176
     1
 90
        0
176
     1
 40
0.6
176
     1
 40
30.0
176
     1
 62
     7
420
 16777215
176
     1
 90
        1
176
     1
 90
        4
176
     1
 62
     7
176
     1
 62
   257
176
     1
 90
        1
176
     1
 90
        1
176
     1
 40
1.0
176
     1
 90
        8
176
     1
 62
     7
176
     1
 40
1.0
176
     1
 90
        1
176
     1
 90
        6
176
     1
 90
        2
176
     1
 62
     7
176
     1
 90
        5
176
     1
 90
        0
176
     1
 90
        0
176
     1
290
     0
176
     1
 90
        1
176
     1
 40
0.0
176
     1
 90
        0
176
     1
290
     0
176
     1
290
     1
176
     1
290
     1
176
     1
290
     0
176
     1
290
     0
176
     1
290
     0
176
     1
290
     0
176
     1
290
     0
176
     1
290
     0
176
     1
 90
       50
176
     1
 40
0.0
176
     1
 40
1.0
176
     1
 90
        0
176
     1
 62
    18
420
        0
176
     1
 90
       50
176
     1
 90
        3
176
     1
 62
     5
420
      255
176
     1
290
     0
176
     1
 90
       50
176
     1
 90
       50
176
     1
 90
       50
176
     1
290
     0
176
     1
 90
       50
176
     1
 62
   256
176
     0
 40
1.0
176
     0
 90
        2
176
     1
  1
strokes_ogs.tif
176
     1
290
     0
176
     1
 40
1.0
176
     1
 40
1.0
176
     1
  0
VISUALSTYLE
  5
2A
102
{ACAD_REACTORS
330
29
102
}
330
29
100
AcDbVisualStyle
  2
Flat
 70
     0
177
     3
291
     1
 70
    58
 90
        2
176
     1
 90
        1
176
     1
 90
        1
176
     1
 90
        2
176
     1
 40
0.6
176
     1
 40
30.0
176
     1
 62
     7
420
 16777215
176
     1
 90
        0
176
     1
 90
        0
176
     1
 62
     7
176
     1
 62
   257
176
     1
 90
        1
176
     1
 90
        1
176
     1
 40
1.0
176
     1
 90
        8
176
     1
 62
     7
176
     1
 40
1.0
176
     1
 90
        1
176
     1
 90
        6
176
     1
 90
        2
176
     1
 62
     7
176
     1
 90
        5
176
     1
 90
        0
176
     1
 90
        0
176
     1
290
     0
176
     1
 90
       13
176
     1
 40
0.0
176
     1
 90
        0
176
     1
290
     0
176
     1
290
     1
176
     1
290
     1
176
     1
290
     0
176
     1
290
     0
176
     1
290
     0
176
     1
290
     0
176
     1
290
     0
176
     1
290
     0
176
     1
 90
       50
176
     1
 40
0.0
176
     1
 40
1.0
176
     1
 90
        0
176
     1
 62
    18
420
        0
176
     1
 90
       50
176
     1
 90
        3
176
     1
 62
     5
420
      255
176
     1
290
     0
176
     1
 90
       50
176
     1
 90
       50
176
     1
 90
       50
176
     1
290
     0
176
     1
 90
       50
176
     1
 62
   256
176
     0
 40
1.0
176
     0
 90
        2
176
     1
  1
strokes_ogs.tif
176
     1
290
     0
176
     1
 40
1.0
176
     1
 40
1.0
176
     1
  0
VISUALSTYLE
  5
2B
102
{ACAD_REACTORS
330
29
102
}
330
29
100
AcDbVisualStyle
  2
FlatWithEdges
 70
     1
177
     3
291
     1
 70
    58
 90
        2
176
     1
 90
        1
176
     1
 90
        1
176
     1
 90
        2
176
     1
 40
0.6
176
     1
 40
30.0
176
     1
 62
     7
420
 16777215
176
     1
 90
        1
176
     1
 90
        0
176
     1
 62
     7
176
     1
 62
   257
176
     1
 90
        1
176
     1
 90
        1
176
     1
 40
1.0
176
     1
 90
        0
176
     1
 62
   257
176
     1
 40
1.0
176
     1
 90
        1
176
     1
 90
        6
176
     1
 90
        2
176
     1
 62
     7
176
     1
 90
        5
176
     1
 90
        0
176
     1
 90
        0
176
     1
290
     0
176
     1
 90
       13
176
     1
 40
0.0
176
     1
 90
        0
176
     1
290
     0
176
     1
290
     1
176
     1
290
     1
176
     1
290
     0
176
     1
290
     0
176
     1
290
     0
176
     1
290
     0
176
     1
290
     0
176
     1
290
     0
176
     1
 90
       50
176
     1
 40
0.0
176
     1
 40
1.0
176
     1
 90
        0
176
     1
 62
    18
420
        0
176
     1
 90
       50
176
     1
 90
        3
176
     1
 62
     5
420
      255
176
     1
290
     0
176
     1
 90
       50
176
     1
 90
       50
176
     1
 90
       50
176
     1
290
     0
176
     1
 90
       50
176
     1
 62
   256
176
     0
 40
1.0
176
     0
 90
        2
176
     1
  1
strokes_ogs.tif
176
     1
290
     0
176
     1
 40
1.0
176
     1
 40
1.0
176
     1
  0
VISUALSTYLE
  5
2C
102
{ACAD_REACTORS
330
29
102
}
330
29
100
AcDbVisualStyle
  2
Gouraud
 70
     2
177
     3
291
     1
 70
    58
 90
        2
176
     1
 90
        2
176
     1
 90
        1
176
     1
 90
        2
176
     1
 40
0.6
176
     1
 40
30.0
176
     1
 62
     7
420
 16777215
176
     1
 90
        0
176
     1
 90
        0
176
     1
 62
     7
176
     1
 62
   257
176
     1
 90
        1
176
     1
 90
        1
176
     1
 40
1.0
176
     1
 90
        0
176
     1
 62
     7
176
     1
 40
1.0
176
     1
 90
        1
176
     1
 90
        6
176
     1
 90
        2
176
     1
 62
     7
176
     1
 90
        5
176
     1
 90
        0
176
     1
 90
        0
176
     1
290
     0
176
     1
 90
       13
176
     1
 40
0.0
176
     1
 90
        0
176
     1
290
     0
176
     1
290
     1
176
     1
290
     1
176
     1
290
     0
176
     1
290
     0
176
     1
290
     0
176
     1
290
     0
176
     1
290
     0
176
     1
290
     0
176
     1
 90
       50
176
     1
 40
0.0
176
     1
 40
1.0
176
     1
 90
        0
176
     1
 62
    18
420
        0
176
     1
 90
       50
176
     1
 90
        3
176
     1
 62
     5
420
      255
176
     1
290
     0
176
     1
 90
       50
176
     1
 90
       50
176
     1
 90
       50
176
     1
290
     0
176
     1
 90
       50
176
     1
 62
   256
176
     0
 40
1.0
176
     0
 90
        2
176
     1
  1
strokes_ogs.tif
176
     1
290
     0
176
     1
 40
1.0
176
     1
 40
1.0
176
     1
  0
VISUALSTYLE
  5
2D
102
{ACAD_REACTORS
330
29
102
}
330
29
100
AcDbVisualStyle
  2
GouraudWithEdges
 70
     3
177
     3
291
     1
 70
    58
 90
        2
176
     1
 90
        2
176
     1
 90
        1
176
     1
 90
        2
176
     1
 40
0.6
176
     1
 40
30.0
176
     1
 62
     7
420
 16777215
176
     1
 90
        1
176
     1
 90
        0
176
     1
 62
     7
176
     1
 62
   257
176
     1
 90
        1
176
     1
 90
        1
176
     1
 40
1.0
176
     1
 90
        0
176
     1
 62
   257
176
     1
 40
1.0
176
     1
 90
        1
176
     1
 90
        6
176
     1
 90
        2
176
     1
 62
     7
176
     1
 90
        5
176
     1
 90
        0
176
     1
 90
        0
176
     1
290
     0
176
     1
 90
       13
176
     1
 40
0.0
176
     1
 90
        0
176
     1
290
     0
176
     1
290
     1
176
     1
290
     1
176
     1
290
     0
176
     1
290
     0
176
     1
290
     0
176
     1
290
     0
176
     1
290
     0
176
     1
290
     0
176
     1
 90
       50
176
     1
 40
0.0
176
     1
 40
1.0
176
     1
 90
        0
176
     1
 62
    18
420
        0
176
     1
 90
       50
176
     1
 90
        3
176
     1
 62
     5
420
      255
176
     1
290
     0
176
     1
 90
       50
176
     1
 90
       50
176
     1
 90
       50
176
     1
290
     0
176
     1
 90
       50
176
     1
 62
   256
176
     0
 40
1.0
176
     0
 90
        2
176
     1
  1
strokes_ogs.tif
176
     1
290
     0
176
     1
 40
1.0
176
     1
 40
1.0
176
     1
  0
VISUALSTYLE
  5
31
102
{ACAD_REACTORS
330
29
102
}
330
29
100
AcDbVisualStyle
  2
Hidden
 70
     6
177
     3
291
     0
 70
    58
 90
        1
176
     1
 90
        2
176
     1
 90
        2
176
     1
 90
        0
176
     1
 40
0.6
176
     1
 40
30.0
176
     1
 62
     7
420
 16777215
176
     1
 90
        2
176
     1
 90
        2
176
     1
 62
     7
176
     1
 62
   257
176
     1
 90
        2
176
     1
 90
        1
176
     1
 40
40.0
176
     1
 90
        0
176
     1
 62
   257
176
     1
 40
1.0
176
     1
 90
        1
176
     1
 90
        6
176
     1
 90
        2
176
     1
 62
     7
176
     1
 90
        3
176
     1
 90
        0
176
     1
 90
        0
176
     1
290
     0
176
     1
 90
        1
176
     1
 40
0.0
176
     1
 90
        0
176
     1
290
     0
176
     1
290
     1
176
     1
290
     1
176
     1
290
     0
176
     1
290
     0
176
     1
290
     0
176
     1
290
     0
176
     1
290
     0
176
     1
290
     0
176
     1
 90
       50
176
     1
 40
0.0
176
     1
 40
1.0
176
     1
 90
        0
176
     1
 62
    18
420
        0
176
     1
 90
       50
176
     1
 90
        3
176
     1
 62
     5
420
      255
176
     1
290
     0
176
     1
 90
       50
176
     1
 90
       50
176
     1
 90
       50
176
     1
290
     0
176
     1
 90
       50
176
     1
 62
   256
176
     0
 40
1.0
176
     0
 90
        2
176
     1
  1
strokes_ogs.tif
176
     1
290
     0
176
     1
 40
1.0
176
     1
 40
1.0
176
     1
  0
VISUALSTYLE
  5
3F
102
{ACAD_REACTORS
330
29
102
}
330
29
100
AcDbVisualStyle
  2
JitterOff
 70
    20
177
     3
291
     1
 70
    58
 90
        2
176
     0
 90
        2
176
     0
 90
        0
176
     0
 90
        0
176
     0
 40
0.6
176
     0
 40
30.0
176
     0
 62
     7
420
 16777215
176
     0
 90
        1
176
     0
 90
        4
176
     0
 62
     7
176
     0
 62
   257
176
     0
 90
        1
176
     0
 90
        1
176
     0
 40
1.0
176
     0
 90
       10
176
     2
 62
     7
176
     0
 40
1.0
176
     0
 90
        1
176
     0
 90
        6
176
     0
 90
        2
176
     0
 62
     7
176
     0
 90
        5
176
     0
 90
        0
176
     0
 90
        0
176
     0
290
     0
176
     0
 90
        1
176
     0
 40
0.0
176
     0
 90
        0
176
     0
290
     0
176
     0
290
     1
176
     0
290
     1
176
     0
290
     0
176
     0
290
     0
176
     0
290
     0
176
     0
290
     0
176
     0
290
     0
176
     0
290
     0
176
     0
 90
       50
176
     0
 40
0.0
176
     0
 40
1.0
176
     0
 90
        0
176
     0
 62
    18
420
        0
176
     0
 90
       50
176
     0
 90
        3
176
     0
 62
     5
420
      255
176
     0
290
     0
176
     0
 90
       50
176
     0
 90
       50
176
     0
 90
       50
176
     0
290
     0
176
     0
 90
       50
176
     0
 62
   256
176
     0
 40
1.0
176
     0
 90
        2
176
     0
  1
strokes_ogs.tif
176
     0
290
     0
176
     0
 40
1.0
176
     0
 40
1.0
176
     0
  0
VISUALSTYLE
  5
37
102
{ACAD_REACTORS
330
29
102
}
330
29
100
AcDbVisualStyle
  2
Linepattern
 70
    14
177
     3
291
     1
 70
    58
 90
        2
176
     1
 90
        2
176
     1
 90
        0
176
     1
 90
        0
176
     1
 40
0.6
176
     1
 40
30.0
176
     1
 62
     7
420
 16777215
176
     1
 90
        1
176
     1
 90
        4
176
     1
 62
     7
176
     1
 62
   257
176
     1
 90
        7
176
     1
 90
        7
176
     1
 40
1.0
176
     1
 90
        8
176
     1
 62
     7
176
     1
 40
1.0
176
     1
 90
        1
176
     1
 90
        6
176
     1
 90
        2
176
     1
 62
     7
176
     1
 90
        5
176
     1
 90
        0
176
     1
 90
        0
176
     1
290
     0
176
     1
 90
        1
176
     1
 40
0.0
176
     1
 90
        0
176
     1
290
     0
176
     1
290
     1
176
     1
290
     1
176
     1
290
     0
176
     1
290
     0
176
     1
290
     0
176
     1
290
     0
176
     1
290
     0
176
     1
290
     0
176
     1
 90
       50
176
     1
 40
0.0
176
     1
 40
1.0
176
     1
 90
        0
176
     1
 62
    18
420
        0
176
     1
 90
       50
176
     1
 90
        3
176
     1
 62
     5
420
      255
176
     1
290
     0
176
     1
 90
       50
176
     1
 90
       50
176
     1
 90
       50
176
     1
290
     0
176
     1
 90
       50
176
     1
 62
   256
176
     0
 40
1.0
176
     0
 90
        2
176
     1
  1
strokes_ogs.tif
176
     1
290
     0
176
     1
 40
1.0
176
     1
 40
1.0
176
     1
  0
VISUALSTYLE
  5
40
102
{ACAD_REACTORS
330
29
102
}
330
29
100
AcDbVisualStyle
  2
OverhangOff
 70
    21
177
     3
291
     1
 70
    58
 90
        2
176
     0
 90
        2
176
     0
 90
        0
176
     0
 90
        0
176
     0
 40
0.6
176
     0
 40
30.0
176
     0
 62
     7
420
 16777215
176
     0
 90
        1
176
     0
 90
        4
176
     0
 62
     7
176
     0
 62
   257
176
     0
 90
        1
176
     0
 90
        1
176
     0
 40
1.0
176
     0
 90
        9
176
     2
 62
     7
176
     0
 40
1.0
176
     0
 90
        1
176
     0
 90
        6
176
     0
 90
        2
176
     0
 62
     7
176
     0
 90
        5
176
     0
 90
        0
176
     0
 90
        0
176
     0
290
     0
176
     0
 90
        1
176
     0
 40
0.0
176
     0
 90
        0
176
     0
290
     0
176
     0
290
     1
176
     0
290
     1
176
     0
290
     0
176
     0
290
     0
176
     0
290
     0
176
     0
290
     0
176
     0
290
     0
176
     0
290
     0
176
     0
 90
       50
176
     0
 40
0.0
176
     0
 40
1.0
176
     0
 90
        0
176
     0
 62
    18
420
        0
176
     0
 90
       50
176
     0
 90
        3
176
     0
 62
     5
420
      255
176
     0
290
     0
176
     0
 90
       50
176
     0
 90
       50
176
     0
 90
       50
176
     0
290
     0
176
     0
 90
       50
176
     0
 62
   256
176
     0
 40
1.0
176
     0
 90
        2
176
     0
  1
strokes_ogs.tif
176
     0
290
     0
176
     0
 40
1.0
176
     0
 40
1.0
176
     0
  0
VISUALSTYLE
  5
33
102
{ACAD_REACTORS
330
29
102
}
330
29
100
AcDbVisualStyle
  2
Realistic
 70
     8
177
     3
291
     0
 70
    58
 90
        2
176
     1
 90
        3
176
     1
 90
        0
176
     1
 90
        2
176
     1
 40
0.6
176
     1
 40
30.0
176
     1
 62
     7
420
 16777215
176
     1
 90
        0
176
     1
 90
        0
176
     1
 62
     7
176
     1
 62
   257
176
     1
 90
        1
176
     1
 90
        1
176
     1
 40
1.0
176
     1
 90
        8
176
     1
 62
   257
176
     1
 40
1.0
176
     1
 90
        1
176
     1
 90
        6
176
     1
 90
        2
176
     1
 62
     7
176
     1
 90
        3
176
     1
 90
        0
176
     1
 90
        0
176
     1
290
     0
176
     1
 90
       13
176
     1
 40
0.0
176
     1
 90
        0
176
     1
290
     0
176
     1
290
     1
176
     1
290
     1
176
     1
290
     0
176
     1
290
     0
176
     1
290
     0
176
     1
290
     0
176
     1
290
     0
176
     1
290
     0
176
     1
 90
       50
176
     1
 40
0.0
176
     1
 40
1.0
176
     1
 90
        0
176
     1
 62
    18
420
        0
176
     1
 90
       50
176
     1
 90
        3
176
     1
 62
     5
420
      255
176
     1
290
     0
176
     1
 90
       50
176
     1
 90
       50
176
     1
 90
       50
176
     1
290
     0
176
     1
 90
       50
176
     1
 62
   256
176
     0
 40
1.0
176
     0
 90
        2
176
     1
  1
strokes_ogs.tif
176
     1
290
     0
176
     1
 40
1.0
176
     1
 40
1.0
176
     1
  0
VISUALSTYLE
  5
3E
102
{ACAD_REACTORS
330
29
102
}
330
29
100
AcDbVisualStyle
  2
Shaded
 70
    27
177
     3
291
     0
 70
    58
 90
        2
176
     1
 90
        2
176
     1
 90
        1
176
     1
 90
        2
176
     1
 40
0.6
176
     1
 40
30.0
176
     1
 62
     7
420
 16777215
176
     1
 90
        0
176
     1
 90
        4
176
     1
 62
     7
176
     1
 62
   257
176
     1
 90
        1
176
     1
 90
        1
176
     1
 40
1.0
176
     1
 90
        8
176
     1
 62
   257
176
     1
 40
1.0
176
     1
 90
        1
176
     1
 90
        6
176
     1
 90
        2
176
     1
 62
     8
420
  7895160
176
     1
 90
        3
176
     1
 90
        0
176
     1
 90
        0
176
     1
290
     0
176
     1
 90
        5
176
     1
 40
0.0
176
     1
 90
        0
176
     1
290
     0
176
     1
290
     1
176
     1
290
     1
176
     1
290
     0
176
     1
290
     0
176
     1
290
     0
176
     1
290
     0
176
     1
290
     0
176
     1
290
     0
176
     1
 90
       50
176
     1
 40
0.0
176
     1
 40
1.0
176
     1
 90
        0
176
     1
 62
    18
420
        0
176
     1
 90
       50
176
     1
 90
        3
176
     1
 62
     5
420
      255
176
     1
290
     0
176
     1
 90
       50
176
     1
 90
       50
176
     1
 90
       50
176
     1
290
     0
176
     1
 90
       50
176
     1
 62
   256
176
     0
 40
1.0
176
     0
 90
        2
176
     1
  1
strokes_ogs.tif
176
     1
290
     0
176
     1
 40
1.0
176
     1
 40
1.0
176
     1
  0
VISUALSTYLE
  5
3D
102
{ACAD_REACTORS
330
29
102
}
330
29
100
AcDbVisualStyle
  2
Shaded with edges
 70
    26
177
     3
291
     0
 70
    58
 90
        2
176
     1
 90
        2
176
     1
 90
        1
176
     1
 90
        2
176
     1
 40
0.6
176
     1
 40
30.0
176
     1
 62
     7
420
 16777215
176
     1
 90
        1
176
     1
 90
        2
176
     1
 62
     7
176
     1
 62
   257
176
     1
 90
        2
176
     1
 90
        1
176
     1
 40
1.0
176
     1
 90
        8
176
     1
 62
   257
176
     1
 40
1.0
176
     1
 90
        1
176
     1
 90
        6
176
     1
 90
        2
176
     1
 62
     7
176
     1
 90
        3
176
     1
 90
        0
176
     1
 90
        0
176
     1
290
     0
176
     1
 90
        5
176
     1
 40
0.0
176
     1
 90
        0
176
     1
290
     0
176
     1
290
     1
176
     1
290
     1
176
     1
290
     0
176
     1
290
     0
176
     1
290
     0
176
     1
290
     0
176
     1
290
     0
176
     1
290
     0
176
     1
 90
       50
176
     1
 40
0.0
176
     1
 40
1.0
176
     1
 90
        0
176
     1
 62
    18
420
        0
176
     1
 90
       50
176
     1
 90
        3
176
     1
 62
     5
420
      255
176
     1
290
     0
176
     1
 90
       50
176
     1
 90
       50
176
     1
 90
       50
176
     1
290
     0
176
     1
 90
       50
176
     1
 62
   256
176
     0
 40
1.0
176
     0
 90
        2
176
     1
  1
strokes_ogs.tif
176
     1
290
     0
176
     1
 40
1.0
176
     1
 40
1.0
176
     1
  0
VISUALSTYLE
  5
3A
102
{ACAD_REACTORS
330
29
102
}
330
29
100
AcDbVisualStyle
  2
Shades of Gray
 70
    23
177
     3
291
     0
 70
    58
 90
        2
176
     1
 90
        2
176
     1
 90
        3
176
     1
 90
        0
176
     1
 40
0.6
176
     1
 40
30.0
176
     1
 62
     7
420
 16777215
176
     1
 90
        2
176
     1
 90
        2
176
     1
 62
     7
176
     1
 62
     7
176
     1
 90
        1
176
     1
 90
        1
176
     1
 40
40.0
176
     1
 90
        8
176
     1
 62
     7
176
     1
 40
1.0
176
     1
 90
        1
176
     1
 90
        6
176
     1
 90
        2
176
     1
 62
     7
176
     1
 90
        3
176
     1
 90
        0
176
     1
 90
        0
176
     1
290
     0
176
     1
 90
        1
176
     1
 40
0.0
176
     1
 90
        0
176
     1
290
     0
176
     1
290
     1
176
     1
290
     1
176
     1
290
     0
176
     1
290
     0
176
     1
290
     0
176
     1
290
     0
176
     1
290
     0
176
     1
290
     0
176
     1
 90
       50
176
     1
 40
0.0
176
     1
 40
1.0
176
     1
 90
        0
176
     1
 62
    18
420
        0
176
     1
 90
       50
176
     1
 90
        3
176
     1
 62
     5
420
      255
176
     1
290
     0
176
     1
 90
       50
176
     1
 90
       50
176
     1
 90
       50
176
     1
290
     0
176
     1
 90
       50
176
     1
 62
   256
176
     0
 40
1.0
176
     0
 90
        2
176
     1
  1
strokes_ogs.tif
176
     1
290
     0
176
     1
 40
1.0
176
     1
 40
1.0
176
     1
  0
VISUALSTYLE
  5
3B
102
{ACAD_REACTORS
330
29
102
}
330
29
100
AcDbVisualStyle
  2
Sketchy
 70
    24
177
     3
291
     0
 70
    58
 90
        1
176
     1
 90
        2
176
     1
 90
        2
176
     1
 90
        0
176
     1
 40
0.6
176
     1
 40
30.0
176
     1
 62
     7
420
 16777215
176
     1
 90
        2
176
     1
 90
        2
176
     1
 62
     7
176
     1
 62
     7
176
     1
 90
        1
176
     1
 90
        1
176
     1
 40
40.0
176
     1
 90
       11
176
     1
 62
     7
176
     1
 40
1.0
176
     1
 90
        1
176
     1
 90
        6
176
     1
 90
        2
176
     1
 62
     7
176
     1
 90
        6
176
     1
 90
        0
176
     1
 90
        0
176
     1
290
     0
176
     1
 90
        1
176
     1
 40
0.0
176
     1
 90
        0
176
     1
290
     0
176
     1
290
     1
176
     1
290
     1
176
     1
290
     0
176
     1
290
     0
176
     1
290
     0
176
     1
290
     0
176
     1
290
     0
176
     1
290
     0
176
     1
 90
       50
176
     1
 40
0.0
176
     1
 40
1.0
176
     1
 90
        0
176
     1
 62
    18
420
        0
176
     1
 90
       50
176
     1
 90
        3
176
     1
 62
     5
420
      255
176
     1
290
     0
176
     1
 90
       50
176
     1
 90
       50
176
     1
 90
       50
176
     1
290
     0
176
     1
 90
       50
176
     1
 62
   256
176
     0
 40
1.0
176
     0
 90
        2
176
     1
  1
strokes_ogs.tif
176
     1
290
     0
176
     1
 40
1.0
176
     1
 40
1.0
176
     1
  0
VISUALSTYLE
  5
36
102
{ACAD_REACTORS
330
29
102
}
330
29
100
AcDbVisualStyle
  2
Thicken
 70
    13
177
     3
291
     1
 70
    58
 90
        2
176
     1
 90
        2
176
     1
 90
        0
176
     1
 90
        0
176
     1
 40
0.6
176
     1
 40
30.0
176
     1
 62
     7
420
 16777215
176
     1
 90
        1
176
     1
 90
        4
176
     1
 62
     7
176
     1
 62
   257
176
     1
 90
        1
176
     1
 90
        1
176
     1
 40
1.0
176
     1
 90
       12
176
     1
 62
     7
176
     1
 40
1.0
176
     1
 90
        1
176
     1
 90
        6
176
     1
 90
        2
176
     1
 62
     7
176
     1
 90
        5
176
     1
 90
        0
176
     1
 90
        0
176
     1
290
     0
176
     1
 90
        1
176
     1
 40
0.0
176
     1
 90
        0
176
     1
290
     0
176
     1
290
     1
176
     1
290
     1
176
     1
290
     0
176
     1
290
     0
176
     1
290
     0
176
     1
290
     0
176
     1
290
     0
176
     1
290
     0
176
     1
 90
       50
176
     1
 40
0.0
176
     1
 40
1.0
176
     1
 90
        0
176
     1
 62
    18
420
        0
176
     1
 90
       50
176
     1
 90
        3
176
     1
 62
     5
420
      255
176
     1
290
     0
176
     1
 90
       50
176
     1
 90
       50
176
     1
 90
       50
176
     1
290
     0
176
     1
 90
       50
176
     1
 62
   256
176
     0
 40
1.0
176
     0
 90
        2
176
     1
  1
strokes_ogs.tif
176
     1
290
     0
176
     1
 40
1.0
176
     1
 40
1.0
176
     1
  0
VISUALSTYLE
  5
30
102
{ACAD_REACTORS
330
29
102
}
330
29
100
AcDbVisualStyle
  2
Wireframe
 70
     5
177
     3
291
     0
 70
    58
 90
        0
176
     1
 90
        2
176
     1
 90
        0
176
     1
 90
        0
176
     1
 40
0.6
176
     1
 40
30.0
176
     1
 62
     7
420
 16777215
176
     1
 90
        1
176
     1
 90
        4
176
     1
 62
     7
176
     1
 62
   257
176
     1
 90
        1
176
     1
 90
        1
176
     1
 40
1.0
176
     1
 90
        0
176
     1
 62
   257
176
     1
 40
1.0
176
     1
 90
        1
176
     1
 90
        6
176
     1
 90
        2
176
     1
 62
     7
176
     1
 90
        3
176
     1
 90
        0
176
     1
 90
        0
176
     1
290
     0
176
     1
 90
        1
176
     1
 40
0.0
176
     1
 90
        0
176
     1
290
     0
176
     1
290
     1
176
     1
290
     1
176
     1
290
     0
176
     1
290
     0
176
     1
290
     0
176
     1
290
     0
176
     1
290
     0
176
     1
290
     0
176
     1
 90
       50
176
     1
 40
0.0
176
     1
 40
1.0
176
     1
 90
        0
176
     1
 62
    18
420
        0
176
     1
 90
       50
176
     1
 90
        3
176
     1
 62
     5
420
      255
176
     1
290
     0
176
     1
 90
       50
176
     1
 90
       50
176
     1
 90
       50
176
     1
290
     0
176
     1
 90
       50
176
     1
 62
   256
176
     0
 40
1.0
176
     0
 90
        2
176
     1
  1
strokes_ogs.tif
176
     1
290
     0
176
     1
 40
1.0
176
     1
 40
1.0
176
     1
  0
VISUALSTYLE
  5
3C
102
{ACAD_REACTORS
330
29
102
}
330
29
100
AcDbVisualStyle
  2
X-Ray
 70
    25
177
     3
291
     0
 70
    58
 90
        2
176
     1
 90
        2
176
     1
 90
        1
176
     1
 90
        1
176
     1
 40
0.5
176
     1
 40
30.0
176
     1
 62
     7
420
 16777215
176
     1
 90
        1
176
     1
 90
        0
176
     1
 62
     7
176
     1
 62
   257
176
     1
 90
        1
176
     1
 90
        1
176
     1
 40
1.0
176
     1
 90
        8
176
     1
 62
     7
176
     1
 40
1.0
176
     1
 90
        1
176
     1
 90
        6
176
     1
 90
        2
176
     1
 62
     7
176
     1
 90
        3
176
     1
 90
        0
176
     1
 90
        0
176
     1
290
     0
176
     1
 90
       13
176
     1
 40
0.0
176
     1
 90
        0
176
     1
290
     0
176
     1
290
     1
176
     1
290
     1
176
     1
290
     0
176
     1
290
     0
176
     1
290
     0
176
     1
290
     0
176
     1
290
     0
176
     1
290
     0
176
     1
 90
       50
176
     1
 40
0.0
176
     1
 40
1.0
176
     1
 90
        0
176
     1
 62
    18
420
        0
176
     1
 90
       50
176
     1
 90
        3
176
     1
 62
     5
420
      255
176
     1
290
     0
176
     1
 90
       50
176
     1
 90
       50
176
     1
 90
       50
176
     1
290
     0
176
     1
 90
       50
176
     1
 62
   256
176
     0
 40
1.0
176
     0
 90
        2
176
     1
  1
strokes_ogs.tif
176
     1
290
     0
176
     1
 40
1.0
176
     1
 40
1.0
176
     1
  0
DICTIONARYVAR
  5
A1
102
{ACAD_REACTORS
330
9C
102
}
330
9C
100
DictionaryVariables
280
     0
  1
1:1
  0
DICTIONARYVAR
  5
9E
102
{ACAD_REACTORS
330
9C
102
}
330
9C
100
DictionaryVariables
280
     0
  1
STANDARD
  0
DICTIONARYVAR
  5
9D
102
{ACAD_REACTORS
330
9C
102
}
330
9C
100
DictionaryVariables
280
     0
  1
STANDARD
  0
DICTIONARYVAR
  5
9F
102
{ACAD_REACTORS
330
9C
102
}
330
9C
100
DictionaryVariables
280
     0
  1
Imperial24
  0
DICTIONARYVAR
  5
A0
102
{ACAD_REACTORS
330
9C
102
}
330
9C
100
DictionaryVariables
280
     0
  1
Imperial24
  0
DICTIONARY
  5
1A
330
19
100
AcDbDictionary
280
     1
281
     1
  3
BUMPTILE
360
1C
  3
DIFFUSETILE
360
1B
  3
OPACITYTILE
360
1F
  3
REFLECTIONTILE
360
1E
  3
REFRACTIONTILE
360
20
  3
SPECULARTILE
360
1D
  0
DICTIONARY
  5
12
330
11
100
AcDbDictionary
280
     1
281
     1
  3
BUMPTILE
360
14
  3
DIFFUSETILE
360
13
  3
OPACITYTILE
360
17
  3
REFLECTIONTILE
360
16
  3
REFRACTIONTILE
360
18
  3
SPECULARTILE
360
15
  0
DICTIONARY
  5
22
330
21
100
AcDbDictionary
280
     1
281
     1
  3
BUMPTILE
360
24
  3
DIFFUSETILE
360
23
  3
OPACITYTILE
360
27
  3
REFLECTIONTILE
360
26
  3
REFRACTIONTILE
360
28
  3
SPECULARTILE
360
25
  0
DICTIONARY
  5
A2
330
65
100
AcDbDictionary
280
     1
281
     1
  3
ACAD_ROUNDTRIP_2008_TABLESTYLE_CELLSTYLEMAP
360
A3
  0
XRECORD
  5
1C
102
{ACAD_REACTORS
330
1A
102
}
330
1A
100
AcDbXrecord
280
     1
270
     1
271
     1
  0
XRECORD
  5
1B
102
{ACAD_REACTORS
330
1A
102
}
330
1A
100
AcDbXrecord
280
     1
270
     1
271
     1
  0
XRECORD
  5
1F
102
{ACAD_REACTORS
330
1A
102
}
330
1A
100
AcDbXrecord
280
     1
270
     1
271
     1
  0
XRECORD
  5
1E
102
{ACAD_REACTORS
330
1A
102
}
330
1A
100
AcDbXrecord
280
     1
270
     1
271
     1
  0
XRECORD
  5
20
102
{ACAD_REACTORS
330
1A
102
}
330
1A
100
AcDbXrecord
280
     1
270
     1
271
     1
  0
XRECORD
  5
1D
102
{ACAD_REACTORS
330
1A
102
}
330
1A
100
AcDbXrecord
280
     1
270
     1
271
     1
  0
XRECORD
  5
14
102
{ACAD_REACTORS
330
12
102
}
330
12
100
AcDbXrecord
280
     1
270
     1
271
     1
  0
XRECORD
  5
13
102
{ACAD_REACTORS
330
12
102
}
330
12
100
AcDbXrecord
280
     1
270
     1
271
     1
  0
XRECORD
  5
17
102
{ACAD_REACTORS
330
12
102
}
330
12
100
AcDbXrecord
280
     1
270
     1
271
     1
  0
XRECORD
  5
16
102
{ACAD_REACTORS
330
12
102
}
330
12
100
AcDbXrecord
280
     1
270
     1
271
     1
  0
XRECORD
  5
18
102
{ACAD_REACTORS
330
12
102
}
330
12
100
AcDbXrecord
280
     1
270
     1
271
     1
  0
XRECORD
  5
15
102
{ACAD_REACTORS
330
12
102
}
330
12
100
AcDbXrecord
280
     1
270
     1
271
     1
  0
XRECORD
  5
24
102
{ACAD_REACTORS
330
22
102
}
330
22
100
AcDbXrecord
280
     1
270
     1
271
     1
  0
XRECORD
  5
23
102
{ACAD_REACTORS
330
22
102
}
330
22
100
AcDbXrecord
280
     1
270
     1
271
     1
  0
XRECORD
  5
27
102
{ACAD_REACTORS
330
22
102
}
330
22
100
AcDbXrecord
280
     1
270
     1
271
     1
  0
XRECORD
  5
26
102
{ACAD_REACTORS
330
22
102
}
330
22
100
AcDbXrecord
280
     1
270
     1
271
     1
  0
XRECORD
  5
28
102
{ACAD_REACTORS
330
22
102
}
330
22
100
AcDbXrecord
280
     1
270
     1
271
     1
  0
XRECORD
  5
25
102
{ACAD_REACTORS
330
22
102
}
330
22
100
AcDbXrecord
280
     1
270
     1
271
     1
  0
CELLSTYLEMAP
  5
A3
102
{ACAD_REACTORS
330
A2
102
}
330
A2
100
AcDbCellStyleMap
 90
        3
300
CELLSTYLE
  1
TABLEFORMAT_BEGIN
 90
        5
170
     1
 91
        0
 92
    32768
 62
   257
 93
        1
300
CONTENTFORMAT
  1
CONTENTFORMAT_BEGIN
 90
        0
 91
        0
 92
      512
 93
        0
300

 40
0.0
140
1.0
 94
        5
 62
     0
340
55
144
0.25
309
CONTENTFORMAT_END
171
     0
 94
        0
309
TABLEFORMAT_END
  1
CELLSTYLE_BEGIN
 90
        1
 91
        1
300
_TITLE
309
CELLSTYLE_END
300
CELLSTYLE
  1
TABLEFORMAT_BEGIN
 90
        5
170
     1
 91
        0
 92
        0
 62
   257
 93
        1
300
CONTENTFORMAT
  1
CONTENTFORMAT_BEGIN
 90
        0
 91
        0
 92
      512
 93
        0
300

 40
0.0
140
1.0
 94
        5
 62
     0
340
55
144
0.18
309
CONTENTFORMAT_END
171
     0
 94
        0
309
TABLEFORMAT_END
  1
CELLSTYLE_BEGIN
 90
        2
 91
        1
300
_HEADER
309
CELLSTYLE_END
300
CELLSTYLE
  1
TABLEFORMAT_BEGIN
 90
        5
170
     1
 91
        0
 92
        0
 62
   257
 93
        1
300
CONTENTFORMAT
  1
CONTENTFORMAT_BEGIN
 90
        0
 91
        0
 92
      512
 93
        0
300

 40
0.0
140
1.0
 94
        2
 62
     0
340
55
144
0.18
309
CONTENTFORMAT_END
171
     0
 94
        0
309
TABLEFORMAT_END
  1
CELLSTYLE_BEGIN
 90
        3
 91
        2
300
_DATA
309
CELLSTYLE_END
  0
ENDSEC
  0
EOF
